<svg xmlns="http://www.w3.org/2000/svg" viewBox="0 0 388.34 288.1"><defs><style>.cls-1,.cls-4,.cls-7{fill:none;stroke-linejoin:round;}.cls-1,.cls-4,.cls-7,.cls-9{stroke:#fff;}.cls-1,.cls-4{stroke-linecap:round;}.cls-11,.cls-19,.cls-2,.cls-8{fill:#fff;}.cls-3{opacity:0.5;}.cls-4{stroke-width:0.5px;}.cls-5{opacity:0.99;}.cls-6,.cls-9{fill:#0096d6;}.cls-7{stroke-width:0.72px;}.cls-8{fill-rule:evenodd;}.cls-9{stroke-miterlimit:10;stroke-width:1.8px;}.cls-10,.cls-29{fill:#c1d82f;}.cls-11{font-size:7px;font-family:FiraSans-Regular, Fira Sans;}.cls-12{letter-spacing:-0.01em;}.cls-13{letter-spacing:-0.01em;}.cls-14{letter-spacing:-0.04em;}.cls-15{letter-spacing:0em;}.cls-16{letter-spacing:0em;}.cls-17{letter-spacing:-0.02em;}.cls-18{letter-spacing:0em;}.cls-19{font-size:9px;font-family:FiraSans-SemiBold, Fira Sans;font-weight:600;}.cls-20{letter-spacing:-0.05em;}.cls-21{letter-spacing:0em;}.cls-22{letter-spacing:-0.01em;}.cls-23{letter-spacing:-0.01em;}.cls-24{letter-spacing:0em;}.cls-25{letter-spacing:-0.03em;}.cls-26{letter-spacing:-0.02em;}.cls-27{letter-spacing:-0.08em;}.cls-28{letter-spacing:0em;}.cls-29{font-size:16px;font-family:Montserrat-Black, Montserrat Black;font-weight:800;}.cls-30{letter-spacing:-0.01em;}.cls-31{letter-spacing:-0.03em;}</style></defs><g id="Layer_2" data-name="Layer 2"><g id="Laag_1" data-name="Laag 1"><path class="cls-1" d="M208.28,54.19c8.4,1.58,16.44,3.06,23.68,4.31C277.7,66.43,386.35,82.86,387.44,83a.46.46,0,0,1,.31.19.48.48,0,0,1,.08.35c-.31,1.67-30.64,166.07-31.16,170.19.06.23.2.6.34,1a15.17,15.17,0,0,1,.78,2.54c.14.83-.66,1.39-1.43,1.93-.57.39-1.2.84-1.31,1.29-.18.61.2,1.82,1.13,3.59l.13.27a22.46,22.46,0,0,0,1.78,3.28c.47.47.41,1.64-.19,4.18l-.06.24a23.93,23.93,0,0,0,.73,3.81c.54,2.06-2.47,4-3.56,4.54-.13.44,1.46,2.17,2.06,2.82.34.38.64.7.86,1a2.86,2.86,0,0,1,0,3.18.45.45,0,0,1-.38.21h-.09c-4.15-.79-101.63-19.48-104.27-20.33A12.13,12.13,0,0,0,250,267c-5.27,0-13.33.93-14.13,1.38-.36.2-1.3.43-5.44.43-3.79,0-8.35-.2-8.8-.22a72.15,72.15,0,0,1-8.47.5l-1.55-.1a53.57,53.57,0,0,1-6.92-.73,3.58,3.58,0,0,0-.68-.06c-1.77,0-4.32,1-6.36,1.83a19.68,19.68,0,0,1-3.15,1.08l-7.16,1.15h-.1c-1-.07-10.05-.77-11.61-3.41a2.22,2.22,0,0,0-2.09-.86,15.84,15.84,0,0,0-3.91.73,6.67,6.67,0,0,1-1.71.35h-.17a31.05,31.05,0,0,0-6.21,1.23,6.8,6.8,0,0,1-2.23.24,45.94,45.94,0,0,1-8.76-1,11.61,11.61,0,0,0-2-.31c-.42,0-.49.08-.76.37A5.68,5.68,0,0,1,145,271.2c-1.32.47-2.13.43-2.58-.1a2.75,2.75,0,0,1-.23-2.2,2.83,2.83,0,0,0,0-1.33c-.7-.94-2.88-2.43-6.7-3.58a44.14,44.14,0,0,1-6.46-2.68c-1-.47-1.85-.9-2.73-1.27a5,5,0,0,0-1.92-.33,18.72,18.72,0,0,0-3.35.42,12.36,12.36,0,0,1-3.06.35c-2.12-.17-2.45-1.06-3-2.53-.08-.22-.17-.46-.28-.73,0,0-.06-.15-.39-.15-1.59,0-5.49,2.48-6.85,3.44l-.07,0c-.54.27-5.35,2.61-6.81,2.61h-.2c-.64,0-2.5.25-7.74,1.46l-.22.05a1.58,1.58,0,0,1-.34,0c-1.53,0-7.26-1.68-10.91-3.6a28.8,28.8,0,0,0-5.79-2.24,21.8,21.8,0,0,1-2.24-.72c-2.1-.84-4.15-1.75-4.89-2.72-.48-.62-1-3.62-1.79-8.58-.12-.82-.22-1.46-.27-1.69a8.35,8.35,0,0,1,.42-3.26l.53-3.92a16.19,16.19,0,0,1-.13-3.52c.07-.78,0-.88-.2-1a1.83,1.83,0,0,1-.54-.86,3.61,3.61,0,0,0-.49-.85,3.3,3.3,0,0,1-.79-2.65,5.34,5.34,0,0,0-.17-2.34,8,8,0,0,1-.23-1.43,3,3,0,0,0-.9-2l-.23-.29a8,8,0,0,0-.73-.78c-.78-.78-1.58-1.58-1.59-2.39a7,7,0,0,0-2.08-.75,9.09,9.09,0,0,1-2.45-.89,2.82,2.82,0,0,1-1.23-2.38c0-.11,0-.22,0-.32a3.62,3.62,0,0,0-.85-.07,34.91,34.91,0,0,0-5.11.57,2.47,2.47,0,0,1-.73.07c-.45,0-2.7,0-3.33-1.16a8.13,8.13,0,0,0-1-1.42l-1-1.27a17.17,17.17,0,0,0-1.2-1.31,7.67,7.67,0,0,1-1.91-2.75c-.12-.25-.7-.84-3.69-.84-.58,0-1.23,0-1.94.07a.63.63,0,0,1-.19,0,42.07,42.07,0,0,0-6.73-1.19c-3.46-.45-6.73-.88-8-1.64a23.45,23.45,0,0,1-4.37-3.7,12.92,12.92,0,0,0-1.76-1.6A1.6,1.6,0,0,1,12.8,198a4.9,4.9,0,0,1,1.32-3.65,8,8,0,0,1,3.45-1.57,6.2,6.2,0,0,0,1.22-.41,3.22,3.22,0,0,0,0-1.17,9.83,9.83,0,0,1,0-3,10.29,10.29,0,0,1,2.05-3.72,11.35,11.35,0,0,0,1.82-3.08,3.47,3.47,0,0,0-.25-2.48,6.2,6.2,0,0,1-.42-3.71,1.42,1.42,0,0,1,1.43-1.34,7.37,7.37,0,0,1,3.11,1.32c1.11.64,2.36,1.39,3.1,1.26l.25-.06A11.79,11.79,0,0,0,28.14,175c-.76-.54-1.63-1.16-2.44-1.86a4,4,0,0,0-3-.93,3.36,3.36,0,0,1-3.57-2c-1.29-2.36-.59-3.19.17-3.79.1-.08.27-.21.28-.26s0-.24-.39-.59a6.89,6.89,0,0,1-1.43-1.87,1.62,1.62,0,0,1-.13-1.46c.33-.64,1.15-.78,1.75-.88l.35-.07,0-.09c.19-.56.51-1.49,1.3-1.56a5.72,5.72,0,0,0,2.52-.8,1.44,1.44,0,0,1,1-.27,13.23,13.23,0,0,1,1.58.14,22.16,22.16,0,0,0,2.35.18,7.26,7.26,0,0,0,1.12-.08A34.58,34.58,0,0,0,25.45,157c-2.19-.87-3.11-1.26-3.41-1.6a5.64,5.64,0,0,1-.89-2.77,11.88,11.88,0,0,0-.21-1.2c0-.18-.23-.4-1.34-.4L19,151h-.62a3.28,3.28,0,0,1-1.12-.14c-1.34-.5-3.06-3.52-2.66-5.18a11.67,11.67,0,0,0,.05-5.57,26.38,26.38,0,0,1-.44-4.05c0-.79-.09-1.69-.2-2.86a15.6,15.6,0,0,0-2.05-5.79c-.39-.76-.79-1.55-1.22-2.47-1.18-2.6-.19-5.19.4-6.75a5.34,5.34,0,0,0,.35-1.1,10.55,10.55,0,0,1,.33-3.37c.08-.44.17-.92.26-1.47.25-1.5.06-1.82-.16-2.19a2.84,2.84,0,0,1-.42-1.07c-.09-.5-.15-1.18-.22-2a51.09,51.09,0,0,0-.67-5.22C10.07,99,6.39,95.47,4.82,94c-.31-.31-.56-.55-.71-.71a3.89,3.89,0,0,0-1-.76A3.88,3.88,0,0,1,1.8,91.25a1.87,1.87,0,0,1-.23-2,1.9,1.9,0,0,0,.17-.83v-.1a8.26,8.26,0,0,0-1-3.78,1.33,1.33,0,0,1-.23-1c.15-.57.72-.86,1.32-1.18A3.09,3.09,0,0,0,3,81.46c.31-.46,0-2.35-1.92-6.16-.59-1.18.19-2.12.88-3a3.64,3.64,0,0,0,1-1.69,21.65,21.65,0,0,1,1.69-5.54,6.24,6.24,0,0,1,.72-1,3.68,3.68,0,0,0,.94-1.67A9.07,9.07,0,0,0,6,60.22c-.29-1.3-.4-1.88-.08-2.22a.63.63,0,0,1,.49-.19,9.8,9.8,0,0,1,5.38,3.5c.92,1.55,10.46,8,13.71,9.79,1.85,1.07,5.47,3.78,8.11,5.76,1.28,1,2.48,1.85,2.71,2a6.87,6.87,0,0,1,2.16,1.93A98.23,98.23,0,0,0,52,82.88h.29c1,0,1.9,1,2.59,1.88a4.72,4.72,0,0,0,.8.84h0c.13,0,.3-.21.48-.43a2.58,2.58,0,0,1,.73-.7.73.73,0,0,1,.41-.12c.66,0,1.06.85,1.27,1.52,1.32.21,6.69,1.1,7.68,1.3.28,0,.88.21,1.72.42A45.93,45.93,0,0,0,74.88,89a.65.65,0,0,0,.25,0,1.43,1.43,0,0,1,.67-.13A12.26,12.26,0,0,1,81.16,91,5.69,5.69,0,0,1,82,92.81c.54,1.57,1.35,4,2.73,4.89a1,1,0,0,0,.5.19c.42,0,.71-1,.93-1.64.27-.87.5-1.63,1.17-1.63a.84.84,0,0,1,.42.12c.87.49.93,2,1,3.86a20.84,20.84,0,0,0,.36,3.67c.07.32.21.67.37.67.6,0,2-1.77,2.58-2.94.21-.39.38-.73.55-1s.45-.88.73-1.38a4,4,0,0,0-.4-.56c-.55-.67-1.56-1.93-.16-3.35a2.33,2.33,0,0,1,1.74-.78,4.7,4.7,0,0,1,3,1.58.46.46,0,0,1,0,.63,22.58,22.58,0,0,0-2.77,3.2,31.9,31.9,0,0,0,2.78,4.55,20.64,20.64,0,0,1,2.32,7.58c.11,1.34-.94,1.95-2.06,2.6a11.25,11.25,0,0,0-1.43.93,3.71,3.71,0,0,0-1.27,1.9A8.66,8.66,0,0,1,93.91,118a1.48,1.48,0,0,1-1.13.76,1,1,0,0,1-.7-.33c-.62-.69-.79-2.48-.72-3.64a17.86,17.86,0,0,0-4.08,4.07c0,.6-.84,1.38-3,3.34-.68.61-1.39,1.25-2,1.88-.32.31-.68.76-.52,1.13s1.16.85,1.7.85a.55.55,0,0,0,.18,0A20.11,20.11,0,0,1,86.24,125c1.69-.62,3.79-1.39,5-2a5.89,5.89,0,0,0,2.28-2.83,9.81,9.81,0,0,1,1.73-2.58,6.81,6.81,0,0,1,4.26-2.06A2.27,2.27,0,0,1,101,116c.26.22.37.24.4.24a1.62,1.62,0,0,0,.52-.35,6.49,6.49,0,0,1,1.79-1.15,1.79,1.79,0,0,1,.75-.18c1.57,0,2.1,2.26,2.53,4.07.11.5.23,1,.34,1.32a1.24,1.24,0,0,1-.05,1.12.79.79,0,0,1-.64.3,4.07,4.07,0,0,1-2.62-1.94.35.35,0,0,0-.08-.1c-.27,0-1,.87-1.28,1.54a.89.89,0,0,1-.94.53,8.14,8.14,0,0,1-2.4-.66c-.29-.11-.56-.22-.77-.28a16.87,16.87,0,0,0-.35,3.33,17.31,17.31,0,0,1-.31,3,.88.88,0,0,1-.85.72,2.8,2.8,0,0,1-1.45-.73,3.2,3.2,0,0,0-1.31-.72.23.23,0,0,0-.17.07c-.63.55.71,2.68,1.14,3.38a4.44,4.44,0,0,1,.26.43c.31.55-.11,1.06-.55,1.59a4.84,4.84,0,0,0-1.3,2.59.62.62,0,0,0,0,.12h0a9.82,9.82,0,0,0,2.76-1.21,8.38,8.38,0,0,1,2.93-1.23.79.79,0,0,1,.64.27c.88,1.06,1.17,5,.88,6.08a4.48,4.48,0,0,1-.83,1.42,3.57,3.57,0,0,0-1,2.28,22.55,22.55,0,0,1-1.3,6.69c-.29.84-.76,1.25-1.45,1.25a4.59,4.59,0,0,1-1.3-.29,8.51,8.51,0,0,0-1.51-.39,1.09,1.09,0,0,1-.85-.58c-.42-.85.35-2.28,1.24-3.94a10.45,10.45,0,0,0,1.2-2.72,9.84,9.84,0,0,0-2.19,1c-1.46.79-2.83,1.5-3.61,1.2-.39.17-1.31,2-1.92,3.25-1.46,2.95-2.51,4.89-3.76,5.1h-.18a.84.84,0,0,1-.74-.38c-.55-.86.25-3,2-7,.16-.35.32-.72.46-1-1.52,1-4.61,3.42-6.82,5.13-2.47,1.91-3.89,3-4.26,3.19a23,23,0,0,1-2.76,1c-1,.31-2,.65-2.56.89a39.11,39.11,0,0,0,4.31,4.16,28.37,28.37,0,0,1,2.36,2.2h.14c1,0,3.48-1,5.49-1.88a18.94,18.94,0,0,1,3.64-1.32h.16c1.35,0,1.68,1.71,1.92,3,.07.34.13.66.2.88,1.08,0,4.87-2.28,6.44-3.71A13,13,0,0,0,95.79,154a13.55,13.55,0,0,1,1.88-2.94c.79-.83.93-1.22,1-1.33a.45.45,0,0,1,0-.46.47.47,0,0,1,.59-.18,13.61,13.61,0,0,1,3.14,2c.09.08.14.08.16.08.45,0,1.25-1.2,1.42-1.75a1.67,1.67,0,0,0,0-.18c.21-.75.55-.95,2.42-1.44,1.14-.29,1.27-1,1.44-1.79a3.09,3.09,0,0,1,.54-1.4c.31-.39.14-1.13,0-1.84a4.65,4.65,0,0,1-.17-1.75,13.24,13.24,0,0,0-.49-4.21l-.15-.71c-.36-1.75,1.1-2.29,2.28-2.72a6.21,6.21,0,0,0,1.53-.73c.16-.12.16-.2.16-.23,0-.31-.59-.88-1-1.25s-1-1-.94-1.46l-.44-.18a3.52,3.52,0,0,1-2-1.45,1.4,1.4,0,0,1-.17-1.21c.21-.56.82-.78,1.32-1a2.4,2.4,0,0,0,.54-.23,2.48,2.48,0,0,0,.33-.52,4.54,4.54,0,0,1,1.84-1.94c.62-.37.39-1.27,0-2.5a5.1,5.1,0,0,1-.35-1.61,6.74,6.74,0,0,1,1.15-2.58,6.83,6.83,0,0,0,.82-1.57c.25-1.26,6.49-5.56,8-6.25,0,0,.06,0,.09-.11.32-.86-1-3.76-2-5.68a11.45,11.45,0,0,1-1.33-3.46,4.62,4.62,0,0,0-1.3-.23c-1.46-.14-3.66-.35-4.71-2.21-1.19-2,.68-3.22,2-4.07.8-.5,1.62-1,1.75-1.55h-.1a12.51,12.51,0,0,0-2.67.65,14,14,0,0,1-3.45.8c-.91,0-1.22-.43-1.32-.79a1,1,0,0,1,.1-.75c.43-.72,1.77-1.06,3.93-1.54,1.65-.37,4.14-.94,4.16-1.67,0-.89-1.58-2.79-3.14-4.63-1.85-2.18-3.75-4.42-4.28-6.3-.25-.93-.24-1.51,0-1.88a.94.94,0,0,1,.8-.37,6.47,6.47,0,0,1,2.44.94,10.16,10.16,0,0,0,1.73.8l.13,0c.23-.3-.26-2.21-.58-3.47a31.09,31.09,0,0,1-.87-4.14c-.08-.71,0-1.09.19-1.33a.64.64,0,0,1,.48-.22c.49,0,1,.5,1.82,1.45.5.57,1.44,1.61,1.79,1.61a.59.59,0,0,0,.08-.18c.74-2.3-1-6.78-1.53-7.72-.34-.65-.13-1.38.16-2.38a17.48,17.48,0,0,0,.73-3.5,1.06,1.06,0,0,0-.14-.75c-.25-.29-.92-.35-1.7-.42-1.65-.14-4.13-.34-5.79-3.2-2.93-5-2.3-7.44-2.27-7.54a.45.45,0,0,1,.12-.21l1.68-1.66-.26-8.71a.44.44,0,0,1,.16-.37.46.46,0,0,1,.39-.1c.2,0,5.23,1.12,13.38,2.83m-38,114.81.12.45-.06-.42Z"/><path class="cls-1" d="M88.09,69c-.38-.14-3-.82-3-.82L83,67.67s.62-1.44.25-2-1.38.38-1.38.38L78.7,63a5.16,5.16,0,0,0,0-1.78c-.19-.86-.69-.88-.69-.88l-.45-1.31,1-.76L80.2,57l-1.32-.52.63-.88s1.75-.35,2.25,0-.06,1.82-.06,1.82L83.83,59l.75,1.44L86,60.25l.13,1.12-1,1.19.53.75L86.84,63l.43-.74.82,1.32-2.44.93a6,6,0,0,0-.13,1.51l2.79,1.62.59.81ZM86.33,56.18l.13-.57.88,1.88.62.13L88,57l-.87-2.08.5-.34,1.25.59.56.43V57l3,1.29,1.43-.93-1.49-3.11-1.25-.74.31-1.85-.72-1.38,1.72.13.69,1-.41,1.91.85.93.94,1.35,1.4.51-.28,1.69H97.1l-.19-2.2s3.14-2,3.14-2.69-2.38-.75-2.38-.75L96.38,51s-3.93-2.19-4.72-2.19a2.38,2.38,0,0,0-1.69.38c-.53.37-.32,1-.76,1.75a34.74,34.74,0,0,1-3.75,3.61v1.84Zm.8,3,1,2.09,1.06.5.44-.61.06-.58.55-.27.25.44.33-.38,1-1.4-1.06-.23-.42.38.17.29v.29l-.36-.12-.44-.46v-.42l-.85-.08-1.13-.38-.52.1v.28h-1Zm3.23,9.06L91,69s1.8.91,2.5.66a.78.78,0,0,0,.45-1V68s.3,0,0-1.13a2.65,2.65,0,0,0-1.15-1.63l.58-.39.57-2.28-.78-.23.25-.9L92.07,61l-1.33.75.5,2.21-.67,1.21-.88.5s-.54,1.8-.54,2a5.42,5.42,0,0,0,.54,1Zm5.3-9.27-.16,1.83.66.55-.33.42.33.75a1,1,0,0,0,1,.21A1.66,1.66,0,0,0,98.38,61a2.68,2.68,0,0,0-1-1.8l-.79-.41ZM102,46.62s-.17-.5-.46,0a7.36,7.36,0,0,0-.29,2.23l1.6.19s.23.52.27.49a10.24,10.24,0,0,0,0,1.47c.13.13,3.22,3.59,3.22,3.59h.32l-.24-1.54.24-.75-3.78-3.8Zm-1,10.81a3.63,3.63,0,0,0-.46.87c0,.26-.54.68-.54,1.18a1.29,1.29,0,0,0,.5.87s.29-.42.5.63a5.44,5.44,0,0,1,0,2l.87-.29,1-.4-.67-.9,1.12-.66v-1l-.48-.3-.81-1.13.37-.1s-.66-1.19-.91-1.19S101.05,57.43,101.05,57.43Z"/><path class="cls-2" d="M257.18,169.42h0l-2-.28a.24.24,0,0,1-.21-.28.26.26,0,0,1,.28-.21l2,.27a.25.25,0,0,1,0,.5Z"/><path class="cls-2" d="M313.07,173.61h-4a.25.25,0,0,1,0-.5h4a.25.25,0,0,1,0,.5Z"/><path class="cls-2" d="M305.05,173.61h-4a.25.25,0,0,1,0-.5h4a.25.25,0,0,1,0,.5Z"/><path class="cls-2" d="M297,173.61h-4a.25.25,0,0,1,0-.5h4a.25.25,0,0,1,0,.5Z"/><path class="cls-2" d="M289,173.21h0l-4-.46a.25.25,0,0,1,.06-.5l4,.46a.25.25,0,0,1,.22.28A.24.24,0,0,1,289,173.21Z"/><path class="cls-2" d="M281.07,172.28h0l-4-.46a.25.25,0,0,1,.05-.5l4,.47a.25.25,0,0,1,.22.27A.26.26,0,0,1,281.07,172.28Z"/><path class="cls-2" d="M316.71,172.06a.26.26,0,0,1-.22-.13.26.26,0,0,1,.11-.34l3.58-1.8a.25.25,0,0,1,.34.11.25.25,0,0,1-.11.33L316.83,172A.25.25,0,0,1,316.71,172.06Z"/><path class="cls-2" d="M273.1,171.36h0l-4-.46a.25.25,0,0,1-.22-.28.26.26,0,0,1,.28-.22l4,.47a.25.25,0,0,1,.22.28A.26.26,0,0,1,273.1,171.36Z"/><path class="cls-2" d="M265.13,170.43h0l-4-.47a.26.26,0,0,1-.22-.28.25.25,0,0,1,.28-.22l.26,0,3.72.43a.25.25,0,0,1,0,.5Z"/><path class="cls-2" d="M323.94,168.65a.25.25,0,0,1-.24-.2.25.25,0,0,1,.19-.3l3.93-.82a.26.26,0,0,1,.3.2.25.25,0,0,1-.2.29l-3.92.82Z"/><path class="cls-2" d="M331.8,167a.25.25,0,0,1-.06-.5l3.93-.81a.25.25,0,0,1,.3.19.27.27,0,0,1-.2.3l-3.92.81Z"/><path class="cls-2" d="M365.89,166.89h0l-2.33-.22a.24.24,0,0,1-.22-.27.25.25,0,0,1,.27-.22l2.28.21,1.56-.45a.25.25,0,1,1,.14.48l-1.6.46Z"/><path class="cls-2" d="M359.56,166.31h0l-4-.37a.25.25,0,0,1-.23-.27.25.25,0,0,1,.27-.23l4,.37a.25.25,0,0,1,.22.27A.25.25,0,0,1,359.56,166.31Z"/><path class="cls-2" d="M351.58,165.57h0l-4-.36a.26.26,0,0,1-.23-.28.25.25,0,0,1,.28-.22l4,.37a.25.25,0,0,1,.23.27A.26.26,0,0,1,351.58,165.57Z"/><path class="cls-2" d="M339.65,165.37a.26.26,0,0,1-.25-.2.24.24,0,0,1,.2-.29l3-.62h.07l1,.09a.25.25,0,1,1,0,.5l-.94-.09-2.93.62Z"/><path class="cls-2" d="M122.78,121a.22.22,0,0,1-.18-.08l-1.33-1.5a.25.25,0,0,1,0-.35.26.26,0,0,1,.36,0l1.32,1.5a.25.25,0,0,1,0,.35A.27.27,0,0,1,122.78,121Z"/><path class="cls-2" d="M126,124.65a.25.25,0,0,1-.19-.09l-1.61-1.82a.25.25,0,0,1,.37-.33l1.62,1.82a.25.25,0,0,1,0,.36A.23.23,0,0,1,126,124.65Z"/><path class="cls-2" d="M131,128h-2a.23.23,0,0,1-.19-.09l-1.33-1.49a.25.25,0,1,1,.38-.34l1.25,1.42H131a.25.25,0,0,1,0,.5Z"/><path class="cls-2" d="M171,148.12a.15.15,0,0,1-.09,0l-3.53-1.51a.25.25,0,1,1,.2-.46l3.52,1.51a.25.25,0,0,1,.13.33A.24.24,0,0,1,171,148.12Zm-7-3-.1,0-3.53-1.51a.27.27,0,0,1-.13-.33.25.25,0,0,1,.33-.13l3.52,1.51a.25.25,0,0,1,.14.33A.28.28,0,0,1,164,145.1Zm-7.11-2.88h-.08L153.14,141a.25.25,0,0,1-.16-.31.27.27,0,0,1,.32-.17l3.65,1.18a.26.26,0,0,1,.16.32A.26.26,0,0,1,156.87,142.22Zm-7.3-2.35-.08,0-3.05-1a.3.3,0,0,1-.13-.09l-.37-.5a.25.25,0,0,1,.4-.3l.33.44,3,1a.25.25,0,0,1,.16.31A.26.26,0,0,1,149.57,139.87Zm-5.72-4.56a.25.25,0,0,1-.2-.1l-.8-1.07-1.93-1.49a.24.24,0,0,1,0-.35.25.25,0,0,1,.35-.05l2,1.51,0,.05.82,1.1a.25.25,0,0,1-.05.35A.3.3,0,0,1,143.85,135.31ZM138,130.36a.3.3,0,0,1-.16-.05l-.32-.25-3-1.49a.24.24,0,0,1-.12-.33.26.26,0,0,1,.34-.11l3.08,1.51.36.27a.24.24,0,0,1,0,.35A.22.22,0,0,1,138,130.36Z"/><path class="cls-2" d="M176.8,148.42h-2a.25.25,0,0,1,0-.5h1.8l.36-1.76a.24.24,0,0,1,.29-.19.25.25,0,0,1,.2.29l-.41,2A.24.24,0,0,1,176.8,148.42Z"/><path class="cls-2" d="M177.56,144.7h-.05a.25.25,0,0,1-.19-.29l.4-2a.26.26,0,0,1,.2-.2.27.27,0,0,1,.26.12l1,1.74a.25.25,0,0,1-.43.25l-.67-1.16-.26,1.31A.26.26,0,0,1,177.56,144.7Z"/><path class="cls-2" d="M218.11,176.35h0l-3.83-.61a.25.25,0,0,1-.21-.29.26.26,0,0,1,.29-.2l3.83.61a.25.25,0,0,1,.21.28A.26.26,0,0,1,218.11,176.35ZM210.48,175a.2.2,0,0,1-.11,0l-3.46-1.75a.26.26,0,0,1-.11-.34.26.26,0,0,1,.34-.11l3.46,1.76a.24.24,0,0,1,.1.33A.24.24,0,0,1,210.48,175Zm-6.91-3.52a.25.25,0,0,1-.12,0l-1.19-.61-2.32-1a.25.25,0,0,1-.13-.33.24.24,0,0,1,.33-.13l2.33,1,1.21.61a.26.26,0,0,1,.11.34A.23.23,0,0,1,203.57,171.5Zm-7.1-3.13a.2.2,0,0,1-.1,0l-3.56-1.52a.25.25,0,0,1-.13-.33.23.23,0,0,1,.32-.13l3.57,1.52a.25.25,0,0,1,.13.33A.24.24,0,0,1,196.47,168.37Zm-6.69-3.62a.26.26,0,0,1-.2-.1l-2.43-3a.25.25,0,0,1,0-.35.24.24,0,0,1,.35,0l2.43,3a.24.24,0,0,1,0,.35A.22.22,0,0,1,189.78,164.75Zm-4.86-6.05a.27.27,0,0,1-.2-.09l-.55-.7-1.28-2.77a.26.26,0,0,1,.13-.33.25.25,0,0,1,.33.12l1.24,2.72.52.64a.26.26,0,0,1,0,.36A.33.33,0,0,1,184.92,158.7Zm-3.41-6.94a.26.26,0,0,1-.23-.15L181,151l-.9-3.16a.25.25,0,0,1,.48-.14l.89,3.13.25.54a.26.26,0,0,1-.13.33Z"/><path class="cls-2" d="M223.91,177.28h0l-2-.31a.26.26,0,0,1-.21-.29.25.25,0,0,1,.29-.21l1.68.27V175a.25.25,0,0,1,.25-.25.25.25,0,0,1,.25.25v2a.27.27,0,0,1-.08.19A.35.35,0,0,1,223.91,177.28Z"/><path class="cls-2" d="M223.91,172.9a.26.26,0,0,1-.25-.25v-2a.25.25,0,0,1,.09-.19.25.25,0,0,1,.2-.06l1.75.28,0,0a.25.25,0,0,1,.35.07.26.26,0,0,1-.07.35l-.12.07a.25.25,0,0,1-.17,0l-1.56-.24v1.71A.25.25,0,0,1,223.91,172.9Z"/><path class="cls-2" d="M229.71,168.66a.24.24,0,0,1-.21-.11.25.25,0,0,1,.07-.35l2.51-1.6a.33.33,0,0,1,.14,0l1.58.09a.24.24,0,0,1,.24.26.25.25,0,0,1-.26.24l-1.5-.09-2.44,1.56A.22.22,0,0,1,229.71,168.66Z"/><path class="cls-2" d="M240.33,167.51h0l-2-.11a.26.26,0,0,1-.23-.27.28.28,0,0,1,.26-.23l2,.11a.24.24,0,0,1,.23.26A.25.25,0,0,1,240.33,167.51Z"/><path class="cls-2" d="M70.33,186.59h0a.25.25,0,0,1-.19-.3l.46-1.94a.24.24,0,0,1,.3-.19.26.26,0,0,1,.19.3l-.46,2A.26.26,0,0,1,70.33,186.59Z"/><path class="cls-2" d="M71.92,180a.15.15,0,0,1-.09,0,.24.24,0,0,1-.14-.32l1.78-4.41a.25.25,0,0,1,.33-.13.24.24,0,0,1,.13.32l-1.77,4.41A.27.27,0,0,1,71.92,180Z"/><path class="cls-2" d="M75.48,171.22h-.09a.26.26,0,0,1-.14-.33L76,169a.24.24,0,0,1,.14-.14l1.87-.69a.25.25,0,1,1,.18.46l-1.77.66-.71,1.76A.24.24,0,0,1,75.48,171.22Z"/><path class="cls-2" d="M81.55,167.39a.27.27,0,0,1-.24-.17.26.26,0,0,1,.15-.32l3.45-1.28a.25.25,0,0,1,.17.47l-3.44,1.28Zm6.89-2.57a.26.26,0,0,1-.24-.16.25.25,0,0,1,.15-.32l3.45-1.29a.25.25,0,0,1,.17.47l-3.44,1.28Zm6.9-2.52a.25.25,0,0,1,0-.5l3.64-.5a.25.25,0,0,1,.28.21.26.26,0,0,1-.21.29l-3.64.5Z"/><path class="cls-2" d="M102.63,161.3a.25.25,0,0,1,0-.5l1.85-.25.76-1.7a.26.26,0,0,1,.33-.13.25.25,0,0,1,.13.33l-.82,1.83a.25.25,0,0,1-.2.14l-2,.27Z"/><path class="cls-2" d="M107.22,155.43l-.12,0a.26.26,0,0,1-.1-.34l2.1-3.61a.25.25,0,1,1,.43.25l-2.09,3.61A.25.25,0,0,1,107.22,155.43ZM111,148.1h0a.25.25,0,0,1-.24-.26l.08-4.17a.26.26,0,0,1,.25-.25h0a.24.24,0,0,1,.24.26l-.08,4.17A.26.26,0,0,1,111,148.1Z"/><path class="cls-2" d="M111.17,139.75h0a.26.26,0,0,1-.24-.26l0-2a.27.27,0,0,1,.12-.21l1.72-1a.25.25,0,0,1,.34.09.24.24,0,0,1-.08.34l-1.6.95,0,1.86A.25.25,0,0,1,111.17,139.75Z"/><path class="cls-2" d="M113,136.71a.26.26,0,0,1-.22-.13.25.25,0,0,1,.09-.34l1.59-1v-1.86a.25.25,0,0,1,.25-.25.25.25,0,0,1,.25.25v2a.25.25,0,0,1-.12.22l-1.72,1A.28.28,0,0,1,113,136.71Z"/><path class="cls-2" d="M114.68,129.65a.25.25,0,0,1-.25-.25v-.33a.3.3,0,0,1,0-.15l2.14-3a.25.25,0,0,1,.35-.06.24.24,0,0,1,.06.34l-2.1,3v.25A.25.25,0,0,1,114.68,129.65Zm4.48-6.62a.3.3,0,0,1-.15,0,.25.25,0,0,1-.05-.35l2.14-3,.06-.23a.26.26,0,0,1,.31-.18.26.26,0,0,1,.18.31l-.08.27a.3.3,0,0,1,0,.08l-2.17,3A.24.24,0,0,1,119.16,123Zm3.31-7.21h-.07a.27.27,0,0,1-.18-.31l1.06-3.89a.25.25,0,0,1,.31-.17.25.25,0,0,1,.18.31l-1.06,3.88A.26.26,0,0,1,122.47,115.82Zm2.12-7.78h-.07a.25.25,0,0,1-.18-.3l.9-3.28,0-.55a.26.26,0,0,1,.24-.26.23.23,0,0,1,.26.23l0,.58a.28.28,0,0,1,0,.09l-.9,3.32A.25.25,0,0,1,124.59,108Zm.6-7.92a.25.25,0,0,1-.25-.24l0-.58-.8-3.3a.25.25,0,1,1,.48-.12l.81,3.34,0,.63a.26.26,0,0,1-.24.27Zm-1.8-7.85a.24.24,0,0,1-.24-.19l-1-3.91a.25.25,0,1,1,.49-.12l1,3.91a.27.27,0,0,1-.19.31Zm-.82-7.9h0a.24.24,0,0,1-.22-.27l.37-3.39-.08-.56a.25.25,0,0,1,.5-.06l.08.62-.38,3.44A.24.24,0,0,1,122.57,84.37Zm-.22-8a.27.27,0,0,1-.25-.22l-.12-.91V72.11a.25.25,0,0,1,.5,0v3.1l.12.88a.24.24,0,0,1-.22.28Zm-.12-8a.25.25,0,0,1-.25-.25V65.17l-.58-.75a.24.24,0,0,1,0-.35.25.25,0,0,1,.35,0l.64.82a.3.3,0,0,1,0,.16v3A.25.25,0,0,1,122.23,68.33Z"/><path class="cls-2" d="M118.67,62h-.06l-1.93-.53a.24.24,0,0,1-.16-.13l-.85-1.82a.25.25,0,0,1,.12-.33.27.27,0,0,1,.34.12l.79,1.71,1.82.49a.25.25,0,0,1,.17.31A.25.25,0,0,1,118.67,62Z"/><path class="cls-2" d="M114.08,55.76a.24.24,0,0,1-.22-.14l-.13-.26a.36.36,0,0,1,0-.11v-4a.25.25,0,0,1,.5,0v4l.1.21a.25.25,0,0,1-.12.33A.22.22,0,0,1,114.08,55.76Zm-.12-8.6a.25.25,0,0,1-.25-.25V45.79l-2-2.18a.25.25,0,0,1,0-.36.25.25,0,0,1,.35,0l2.12,2.25a.24.24,0,0,1,.07.18v1.22A.25.25,0,0,1,114,47.16Zm-2.67-7.63a.25.25,0,0,1-.25-.24L111,37.92l-.79-2.77a.25.25,0,0,1,.49-.14l.79,2.83.07,1.43a.25.25,0,0,1-.24.26Z"/><path class="cls-2" d="M109.66,31.12a.25.25,0,0,1-.25-.25V29l-1.64-.86a.25.25,0,0,1-.1-.34.24.24,0,0,1,.34-.1l1.76.93a.24.24,0,0,1,.14.22v2A.25.25,0,0,1,109.66,31.12Z"/><path class="cls-2" d="M104,26.13a.27.27,0,0,1-.12,0l-1.77-.94A.23.23,0,0,1,102,25l-.08-2a.24.24,0,0,1,.23-.26.25.25,0,0,1,.27.23l.07,1.86,1.65.87a.25.25,0,0,1,.1.34A.25.25,0,0,1,104,26.13Z"/><path class="cls-2" d="M102.12,22.83a.25.25,0,0,1-.25-.24l-.08-2a.24.24,0,0,1,.24-.26.25.25,0,0,1,.26.23l.08,2a.24.24,0,0,1-.24.26Z"/><path class="cls-2" d="M69.86,265.15h0a.25.25,0,0,1-.23-.27l.36-4a.25.25,0,1,1,.49,0l-.35,4A.25.25,0,0,1,69.86,265.15Z"/><path class="cls-2" d="M70.57,257.17h0a.25.25,0,0,1-.22-.27l.35-4a.25.25,0,1,1,.5,0l-.35,4A.25.25,0,0,1,70.57,257.17Z"/><path class="cls-2" d="M71,249.2a.25.25,0,0,1-.25-.24l-.27-4a.23.23,0,0,1,.23-.26.25.25,0,0,1,.27.23l.27,4a.26.26,0,0,1-.23.27Z"/><path class="cls-2" d="M70.45,241.21a.25.25,0,0,1-.25-.25v-4a.25.25,0,0,1,.25-.25.25.25,0,0,1,.25.25v4A.25.25,0,0,1,70.45,241.21Z"/><path class="cls-2" d="M70.17,233.24a.27.27,0,0,1-.25-.18l-1-3.38a.38.38,0,0,1,0-.1l.06-.49a.26.26,0,0,1,.28-.21.25.25,0,0,1,.22.28l-.06.43,1,3.33a.25.25,0,0,1-.18.31Z"/><path class="cls-2" d="M69.78,225.41h0a.26.26,0,0,1-.22-.28l.51-4a.26.26,0,0,1,.28-.22.25.25,0,0,1,.22.28l-.51,4A.26.26,0,0,1,69.78,225.41Z"/><path class="cls-2" d="M70.8,217.47h0a.25.25,0,0,1-.21-.28l.3-2.36-.14-1.57A.26.26,0,0,1,71,213a.25.25,0,0,1,.27.23l.14,1.62-.31,2.41A.24.24,0,0,1,70.8,217.47Z"/><path class="cls-2" d="M70.64,209.5a.25.25,0,0,1-.24-.23l-.2-2.37-.54-1.46a.25.25,0,1,1,.47-.17l.55,1.49s0,.05,0,.07l.19,2.4a.24.24,0,0,1-.22.27Z"/><path class="cls-2" d="M68.5,201.85a.24.24,0,0,1-.23-.16l-.1-.25a.34.34,0,0,1,0-.1l.13-1.74a.25.25,0,0,1,.5,0l-.13,1.68.07.2a.25.25,0,0,1-.14.32Z"/><g id="Mountains._All_of_em" data-name="Mountains.  All of &apos;em" class="cls-3"><polyline class="cls-4" points="131.98 77.53 135.65 73.02 135.75 72.89 137.72 72.89 138.87 75.21 140.25 77.6"/><polyline class="cls-4" points="136.12 81.95 137.49 77.14 138.64 78.81 141.4 75.25 143.02 77.6 143.94 80.9"/><polyline class="cls-4" points="131.14 81.95 131.98 80 133.3 80.98 134.72 78.81 136.12 83.48 137.72 85.73"/><polyline class="cls-4" points="136.92 86.91 140.59 82.4 140.69 82.27 142.65 82.27 143.81 84.59 145.19 86.98"/><polyline class="cls-4" points="141.06 91.33 142.42 86.52 143.58 88.18 146.34 84.62 147.96 86.98 148.88 90.28"/><polyline class="cls-4" points="136.08 91.33 136.92 89.38 138.24 90.36 139.66 88.18 141.06 92.86 142.65 95.11"/><polyline class="cls-4" points="151.32 97.04 152.69 92.23 153.84 93.89 156.61 90.33 158.22 92.68 159.14 95.99"/><polyline class="cls-4" points="146.34 97.04 147.19 95.09 148.5 96.06 149.92 93.89 151.32 98.57 152.92 100.82"/><polyline class="cls-4" points="144.08 78.22 147.74 73.71 147.84 73.58 149.81 73.58 150.96 75.9"/><polyline class="cls-4" points="143.23 82.64 144.08 80.69 145.39 81.67 146.81 79.5 148.21 84.18 149.81 86.42"/><polyline class="cls-4" points="139.4 99.75 143.07 95.24 143.17 95.11 145.14 95.11 146.29 97.43 147.67 99.82"/><polyline class="cls-4" points="143.54 104.17 144.91 99.36 146.06 101.03 148.82 97.46 150.44 99.82 151.36 103.12"/><polyline class="cls-4" points="138.56 104.17 139.4 102.22 140.72 103.2 142.14 101.03 143.54 105.7 145.14 107.95"/><polyline class="cls-4" points="162.61 101.75 163.97 96.94 165.13 98.6 167.89 95.04 169.5 97.39 170.43 100.69"/><polyline class="cls-4" points="157.63 101.75 158.47 99.8 159.79 100.77 161.21 98.6 162.61 103.28 164.2 105.53"/><polyline class="cls-4" points="149.9 105.12 153.56 100.61 153.67 100.48 155.63 100.48 156.78 102.8 158.17 105.19"/><polyline class="cls-4" points="154.03 109.54 155.4 104.73 156.55 106.39 159.32 102.83 160.93 105.19 161.85 108.49"/><polyline class="cls-4" points="149.05 109.54 149.9 107.59 151.22 108.57 152.63 106.39 154.03 111.07 155.63 113.32"/><polyline class="cls-4" points="174.36 100.39 175.21 98.44 176.52 99.42 177.94 97.25 179.34 101.93 180.94 104.17"/><polyline class="cls-4" points="167.59 103.92 171.25 99.41 171.35 99.28 173.32 99.28 174.47 101.6 175.85 103.99"/><polyline class="cls-4" points="171.72 108.35 173.09 103.53 174.24 105.2 177 101.64 178.62 103.99 179.54 107.29"/><polyline class="cls-4" points="166.74 108.35 167.59 106.39 168.9 107.37 170.32 105.2 171.72 109.88 173.32 112.12"/><polyline class="cls-4" points="153.45 137.58 154.81 132.77 155.97 134.44 158.73 130.87 160.35 133.23 161.27 136.53"/><polyline class="cls-4" points="169.18 116.27 170.54 111.45 171.7 113.12 174.46 109.56 176.08 111.91 177 115.21"/><polyline class="cls-4" points="174.17 118.72 177.83 114.21 177.94 114.08 179.9 114.08 181.05 116.4 182.43 118.79"/><polyline class="cls-4" points="189.34 103.99 190.71 99.18 191.86 100.84 194.63 97.28 196.24 99.63 197.16 102.94"/><polyline class="cls-4" points="184.36 103.07 185.21 101.12 186.52 102.09 187.94 99.92 189.34 104.6 190.94 106.84"/><polyline class="cls-4" points="194.33 105.98 197.99 101.47 198.1 101.35 200.06 101.35 201.22 103.67 202.6 106.05"/><polyline class="cls-4" points="178.81 108.08 182.47 103.57 182.57 103.44 184.54 103.44 185.69 105.76 187.07 108.14"/><polyline class="cls-4" points="182.94 112.5 184.31 107.69 185.46 109.35 188.23 105.79 189.84 108.14 190.76 111.45"/><polyline class="cls-4" points="177.96 112.5 178.81 110.55 180.12 111.53 181.54 109.35 182.94 114.03 184.54 116.28"/><polyline class="cls-4" points="160.18 133.89 163.84 129.38 163.94 129.25 165.91 129.25 167.06 131.57 168.44 133.96"/><polyline class="cls-4" points="164.31 138.31 165.68 133.5 166.83 135.17 169.6 131.6 171.21 133.96 172.13 137.26"/><polyline class="cls-4" points="159.33 138.31 160.18 136.36 161.49 137.34 162.91 135.17 164.31 139.85 165.91 142.09"/><polyline class="cls-4" points="197.04 78.88 200.71 74.37 200.81 74.24 202.77 74.24 203.93 76.56 205.31 78.95"/><polyline class="cls-4" points="201.18 83.3 202.54 78.49 203.7 80.16 206.46 76.59 208.07 78.95 209 82.25"/><polyline class="cls-4" points="207.12 83.95 210.78 79.44 210.89 79.31 212.85 79.31 214 81.63 215.39 84.02"/><polyline class="cls-4" points="211.25 88.37 212.62 83.56 213.77 85.23 216.54 81.67 218.15 84.02 219.07 87.32"/><polyline class="cls-4" points="165.85 141.78 166.69 139.83 168.01 140.8 169.43 138.63 170.83 143.31 172.43 145.56"/><polyline class="cls-4" points="184.65 75.21 186.02 70.4 187.17 72.07 189.93 68.5 191.55 70.86 192.47 74.16"/><polyline class="cls-4" points="189.64 77.21 193.3 72.7 193.41 72.57 195.37 72.57 196.52 74.89 197.91 77.28"/><polyline class="cls-4" points="149.4 73.37 150.77 68.56 151.92 70.22 154.69 66.66 156.3 69.01 157.22 72.31"/><polyline class="cls-4" points="154.39 75.36 158.05 70.86 158.16 70.73 160.12 70.73 161.28 73.05 162.66 75.43"/><polyline class="cls-4" points="167.99 127 169.36 122.19 170.51 123.86 173.28 120.3 174.89 122.65 175.81 125.95"/><polyline class="cls-4" points="172.98 129 176.64 124.49 176.75 124.36 178.71 124.36 179.87 126.68 181.25 129.07"/><polyline class="cls-4" points="199.16 111.07 200.53 106.26 201.68 107.92 204.44 104.36 206.06 106.72 206.98 110.02"/><polyline class="cls-4" points="194.18 110.15 195.03 108.2 196.34 109.17 197.76 107 199.16 111.68 200.76 113.93"/><polyline class="cls-4" points="204.15 113.07 207.81 108.56 207.92 108.43 209.88 108.43 211.03 110.75 212.42 113.14"/><polyline class="cls-4" points="186.8 119.55 188.17 114.73 189.32 116.4 192.09 112.84 193.7 115.19 194.62 118.49"/><polyline class="cls-4" points="181.82 118.62 182.67 116.67 183.98 117.65 185.4 115.48 186.8 120.16 188.4 122.4"/><polyline class="cls-4" points="191.79 121.54 195.45 117.03 195.56 116.9 197.52 116.9 198.67 119.22 200.06 121.61"/><polyline class="cls-4" points="185.5 127 186.87 122.19 188.02 123.86 190.78 120.3 192.4 122.65 193.32 125.95"/><polyline class="cls-4" points="180.52 126.08 181.37 124.13 182.68 125.11 184.1 122.94 185.5 127.61 187.1 129.86"/><polyline class="cls-4" points="190.49 129 194.15 124.49 194.26 124.36 196.22 124.36 197.37 126.68 198.76 129.07"/><polyline class="cls-4" points="176.8 135.43 178.17 130.62 179.32 132.29 182.09 128.72 183.7 131.08 184.62 134.38"/><polyline class="cls-4" points="171.82 134.51 172.67 132.56 173.98 133.54 175.4 131.36 176.8 136.04 178.4 138.29"/><polyline class="cls-4" points="181.79 137.43 185.45 132.92 185.56 132.79 187.52 132.79 188.67 135.11 190.06 137.5"/><polyline class="cls-4" points="36.25 94.37 37.62 89.56 38.77 91.22 41.54 87.66 43.15 90.01 44.07 93.31"/><polyline class="cls-4" points="31.27 93.45 32.12 91.5 33.43 92.47 34.85 90.3 36.25 94.98 37.85 97.22"/><polyline class="cls-4" points="41.24 96.36 44.9 91.86 45.01 91.73 46.97 91.73 48.13 94.05 49.51 96.43"/><polyline class="cls-4" points="52.87 95.15 54.23 90.33 55.38 92 58.15 88.44 59.77 90.79 60.69 94.09"/><polyline class="cls-4" points="47.89 94.22 48.73 92.27 50.05 93.25 51.47 91.08 52.87 95.76 54.46 98"/><polyline class="cls-4" points="57.85 97.14 61.52 92.63 61.62 92.5 63.59 92.5 64.74 94.82 66.12 97.21"/><polyline class="cls-4" points="24.59 98.36 25.96 93.55 27.11 95.21 29.88 91.65 31.49 94 32.41 97.31"/><polyline class="cls-4" points="19.61 97.44 20.46 95.49 21.77 96.46 23.19 94.29 24.59 98.97 26.19 101.22"/><polyline class="cls-4" points="29.58 100.36 33.24 95.85 33.35 95.72 35.31 95.72 36.47 98.04 37.85 100.42"/><polyline class="cls-4" points="64.98 101.41 66.35 96.59 67.5 98.26 70.27 94.7 71.88 97.05 72.8 100.35"/><polyline class="cls-4" points="27.13 87.22 28.5 82.41 29.65 84.08 32.42 80.52 34.03 82.87 34.95 86.17"/><polyline class="cls-4" points="22.15 86.3 23 84.35 24.32 85.33 25.73 83.16 27.13 87.83 28.73 90.08"/><polyline class="cls-4" points="32.12 89.22 35.78 84.71 35.89 84.58 37.85 84.58 39.01 86.9 40.39 89.29"/><polyline class="cls-4" points="31.27 123.54 32.63 118.72 33.79 120.39 36.55 116.83 38.17 119.18 39.09 122.48"/><polyline class="cls-4" points="26.29 122.61 27.13 120.66 28.45 121.64 29.87 119.47 31.27 124.15 32.87 126.39"/><polyline class="cls-4" points="36.26 125.53 39.92 121.02 40.02 120.89 41.99 120.89 43.14 123.22 44.52 125.6"/><polyline class="cls-4" points="16.87 107.57 18.24 102.75 19.39 104.42 22.16 100.86 23.77 103.21 24.69 106.51"/><polyline class="cls-4" points="42.28 132.35 43.65 127.54 44.8 129.21 47.57 125.65 49.18 128 50.1 131.3"/><polyline class="cls-4" points="43.48 123.08 44.84 118.27 45.99 119.93 48.76 116.37 50.37 118.72 51.3 122.03"/><polyline class="cls-4" points="48.47 125.08 52.13 120.56 52.23 120.44 54.2 120.44 55.35 122.76 56.73 125.14"/><polyline class="cls-4" points="54.76 132.35 56.13 127.54 57.28 129.21 60.04 125.65 61.66 128 62.58 131.3"/><polyline class="cls-4" points="55.95 123.08 57.32 118.27 58.47 119.93 61.24 116.37 62.85 118.72 63.77 122.03"/><polyline class="cls-4" points="60.94 125.08 64.6 120.56 64.71 120.44 66.67 120.44 67.83 122.76 69.21 125.14"/><polyline class="cls-4" points="139.12 74.65 140.48 69.84 141.64 71.5 144.4 67.94 146.02 70.3 146.94 73.6"/><polyline class="cls-4" points="199.54 90.35 203.2 85.84 203.31 85.71 205.27 85.71 206.42 88.03 207.81 90.42"/><polyline class="cls-4" points="195.17 91.45 196.01 89.5 197.33 90.47 198.75 88.3 200.15 92.98 201.75 95.23"/><polyline class="cls-4" points="197.52 100.4 198.89 95.59 200.04 97.25 202.81 93.69 204.42 96.04 205.34 99.34"/><polyline class="cls-4" points="202.51 102.39 206.17 97.89 206.28 97.76 208.24 97.76 209.4 100.08 210.78 102.46"/><polyline class="cls-4" points="127.34 63.88 128.71 59.07 129.86 60.74 132.62 57.17 134.24 59.53 135.16 62.83"/><polyline class="cls-4" points="132.33 65.88 135.99 61.37 136.09 61.24 138.06 61.24 139.21 63.56"/><polyline class="cls-4" points="127.96 66.98 128.81 65.03 130.12 66 131.54 63.83 132.94 68.51 134.54 70.75"/><polyline class="cls-4" points="167.28 74.04 168.65 69.22 170.26 70.89 173.03 67.33 174.18 69.68 175.1 72.98"/><polyline class="cls-4" points="161.84 72.65 162.69 70.7 164.47 71.68 165.88 69.51 166.82 74.19"/><polyline class="cls-4" points="208.68 72.01 212.34 67.5 212.44 67.37 214.41 67.37 215.56 69.69 216.94 72.08"/><polyline class="cls-4" points="204.31 73.1 205.16 71.15 206.47 72.13 207.89 69.96 209.29 74.64 210.89 76.88"/><polyline class="cls-4" points="18.81 127.18 20.18 122.37 21.33 124.03 24.1 120.47 25.71 122.82 26.64 126.13"/><polyline class="cls-4" points="23.8 129.18 27.47 124.67 27.57 124.54 29.54 124.54 30.69 126.86 32.07 129.25"/><polyline class="cls-4" points="19.44 130.27 20.28 128.32 21.6 129.3 23.02 127.13 24.41 131.8 26.01 134.05"/><polyline class="cls-4" points="125.69 193.48 127.06 188.66 128.22 190.33 130.98 186.77 132.59 189.12 133.52 192.42"/><polyline class="cls-4" points="130.69 195.47 134.35 190.96 134.45 190.83 136.42 190.83 137.57 193.15 138.95 195.54"/><polyline class="cls-4" points="126.32 196.57 127.16 194.62 128.48 195.59 129.9 193.42 131.3 198.1 132.89 200.35"/><polyline class="cls-4" points="135.67 183.03 137.03 178.21 138.19 179.88 140.95 176.32 142.57 178.67 143.49 181.97"/><polyline class="cls-4" points="140.66 185.02 144.32 180.51 144.43 180.38 146.39 180.38 147.54 182.7 148.93 185.09"/><polyline class="cls-4" points="136.29 186.12 137.13 184.17 138.45 185.14 139.87 182.97 141.27 187.65 142.87 189.9"/><polyline class="cls-4" points="144.41 190.24 145.78 185.42 146.94 187.09 149.7 183.53 151.31 185.88 152.24 189.18"/><polyline class="cls-4" points="149.41 192.23 153.07 187.72 153.17 187.59 155.14 187.59 156.29 189.91 157.67 192.3"/><polyline class="cls-4" points="145.04 193.33 145.88 191.38 147.2 192.35 148.62 190.18 150.02 194.86 151.61 197.11"/><polyline class="cls-4" points="151.32 183.8 152.17 181.85 153.48 182.82 154.9 180.65 156.3 185.33 157.9 187.58"/><polyline class="cls-4" points="290.39 259.08 291.76 254.27 292.91 255.93 295.68 252.37 297.29 254.73 298.21 258.03"/><polyline class="cls-4" points="295.38 261.08 299.04 256.57 299.15 256.44 301.11 256.44 302.26 258.76 303.65 261.15"/><polyline class="cls-4" points="291.01 262.17 291.86 260.22 293.17 261.2 294.59 259.03 295.99 263.7 297.59 265.95"/><polyline class="cls-4" points="300.36 248.63 301.73 243.82 302.88 245.48 305.65 241.92 307.26 244.28 308.18 247.58"/><polyline class="cls-4" points="305.35 250.63 309.01 246.12 309.12 245.99 311.08 245.99 312.24 248.31 313.62 250.7"/><polyline class="cls-4" points="300.99 251.72 301.83 249.77 303.15 250.75 304.56 248.58 305.96 253.25 307.56 255.5"/><polyline class="cls-4" points="299.51 266.29 300.88 261.48 302.03 263.14 304.8 259.58 306.41 261.94 307.33 265.24"/><polyline class="cls-4" points="304.5 268.29 308.17 263.78 308.27 263.65 310.24 263.65 311.39 265.97 312.77 268.36"/><polyline class="cls-4" points="300.14 269.38 300.98 267.43 302.3 268.41 303.71 266.24 305.12 270.92 306.71 273.16"/><polyline class="cls-4" points="309.49 255.84 310.85 251.03 312.01 252.69 314.77 249.13 316.38 251.49 317.31 254.79"/><polyline class="cls-4" points="314.48 257.84 318.14 253.33 318.24 253.2 320.21 253.2 321.36 255.52 322.74 257.91"/><polyline class="cls-4" points="310.11 258.93 310.95 256.98 312.27 257.96 313.69 255.79 315.09 260.46 316.69 262.71"/><polyline class="cls-4" points="121.9 234.4 123.27 229.58 124.42 231.25 127.19 227.69 128.8 230.04 129.72 233.34"/><polyline class="cls-4" points="126.89 236.39 130.55 231.88 130.66 231.75 132.62 231.75 133.78 234.07 135.16 236.46"/><polyline class="cls-4" points="122.52 237.49 123.37 235.54 124.69 236.51 126.1 234.34 127.5 239.02 129.1 241.26"/><polyline class="cls-4" points="131.87 223.94 133.24 219.13 134.39 220.8 137.16 217.24 138.77 219.59 139.69 222.89"/><polyline class="cls-4" points="136.86 225.94 140.53 221.43 140.63 221.3 142.6 221.3 143.75 223.62 145.13 226.01"/><polyline class="cls-4" points="132.5 227.04 133.34 225.09 134.66 226.06 136.07 223.89 137.47 228.57 139.07 230.81"/><polyline class="cls-4" points="134.66 239.25 136.03 234.44 137.18 236.1 139.95 232.54 141.56 234.9 142.48 238.2"/><polyline class="cls-4" points="139.65 241.25 143.31 236.74 143.42 236.61 145.38 236.61 146.53 238.93 147.92 241.32"/><polyline class="cls-4" points="135.28 242.34 136.13 240.39 137.44 241.37 138.86 239.2 140.26 243.88 141.86 246.12"/><polyline class="cls-4" points="144.63 228.8 146 223.99 147.15 225.65 149.92 222.09 151.53 224.44 152.45 227.75"/><polyline class="cls-4" points="149.62 230.8 153.28 226.29 153.39 226.16 155.35 226.16 156.51 228.48 157.89 230.87"/><polyline class="cls-4" points="145.25 231.89 146.1 229.94 147.42 230.92 148.83 228.75 150.23 233.42 151.83 235.67"/><polyline class="cls-4" points="359.14 93.13 360.51 88.32 361.66 89.98 364.43 86.42 366.04 88.78 366.96 92.08"/><polyline class="cls-4" points="364.13 95.13 367.79 90.62 367.9 90.49 369.86 90.49 371.02 92.81 372.4 95.2"/><polyline class="cls-4" points="359.76 96.22 360.61 94.27 361.93 95.25 363.34 93.08 364.74 97.75 366.34 100"/><polyline class="cls-4" points="362.12 105.17 363.48 100.36 364.63 102.03 367.4 98.46 369.01 100.82 369.94 104.12"/><polyline class="cls-4" points="367.11 107.17 370.77 102.66 370.87 102.53 372.84 102.53 373.99 104.85 375.37 107.24"/><polyline class="cls-4" points="351.03 106.77 352.39 101.95 353.55 103.62 356.31 100.06 357.93 102.41 358.85 105.71"/><polyline class="cls-4" points="356.02 108.76 359.68 104.25 359.78 104.12 361.75 104.12 362.9 106.44 364.28 108.83"/><polyline class="cls-4" points="351.65 109.86 352.5 107.91 353.81 108.88 355.23 106.71 356.63 111.39 358.23 113.64"/><polyline class="cls-4" points="354 118.81 355.37 114 356.52 115.66 359.29 112.1 360.9 114.45 361.82 117.75"/><polyline class="cls-4" points="358.99 120.81 362.65 116.3 362.76 116.17 364.72 116.17 365.87 118.49 367.26 120.87"/><polyline class="cls-4" points="339.1 87.63 340.47 82.82 341.62 84.48 344.39 80.92 346 83.28 346.92 86.58"/><polyline class="cls-4" points="344.09 89.63 347.75 85.12 347.86 84.99 349.82 84.99 350.98 87.31 352.36 89.7"/><polyline class="cls-4" points="339.72 90.72 340.57 88.77 341.88 89.75 343.3 87.58 344.7 92.26 346.3 94.5"/><polyline class="cls-4" points="342.07 99.67 343.44 94.86 344.59 96.53 347.36 92.97 348.97 95.32 349.89 98.62"/><polyline class="cls-4" points="347.06 101.67 350.73 97.16 350.83 97.03 352.8 97.03 353.95 99.35 355.33 101.74"/><polyline class="cls-4" points="339.1 110.56 340.47 105.75 341.62 107.42 344.39 103.86 346 106.21 346.92 109.51"/><polyline class="cls-4" points="344.09 112.56 347.75 108.05 347.86 107.92 349.82 107.92 350.98 110.24 352.36 112.63"/><polyline class="cls-4" points="339.72 113.66 340.57 111.71 341.88 112.68 343.3 110.51 344.7 115.19 346.3 117.44"/><polyline class="cls-4" points="342.07 122.61 343.44 117.8 344.59 119.46 347.36 115.9 348.97 118.25 349.89 121.55"/><polyline class="cls-4" points="347.06 124.6 350.73 120.09 350.83 119.97 352.8 119.97 353.95 122.28 355.33 124.67"/><polyline class="cls-4" points="325.65 84.28 327.02 79.47 328.17 81.13 330.93 77.57 332.55 79.92 333.47 83.22"/><polyline class="cls-4" points="330.64 86.28 334.3 81.77 334.4 81.64 336.37 81.64 337.52 83.95 338.9 86.34"/><polyline class="cls-4" points="326.27 87.37 327.12 85.42 328.43 86.39 329.85 84.22 331.25 88.9 332.85 91.15"/><polyline class="cls-4" points="328.62 96.32 329.99 91.51 331.14 93.17 333.91 89.61 335.52 91.97 336.44 95.27"/><polyline class="cls-4" points="333.61 98.32 337.27 93.81 337.38 93.68 339.34 93.68 340.5 96 341.88 98.39"/><polyline class="cls-4" points="109.81 237.06 111.17 232.25 112.33 233.91 115.09 230.35 116.7 232.7 117.63 236"/><polyline class="cls-4" points="114.8 239.06 118.46 234.54 118.56 234.42 120.53 234.42 121.68 236.74 123.06 239.12"/><polyline class="cls-4" points="110.43 240.15 111.27 238.2 112.59 239.18 114.01 237 115.41 241.68 117 243.93"/><polyline class="cls-4" points="112.78 249.1 114.15 244.29 115.3 245.95 118.06 242.39 119.68 244.75 120.6 248.05"/><polyline class="cls-4" points="117.77 251.1 121.43 246.59 121.53 246.46 123.5 246.46 124.65 248.78 126.03 251.17"/><polyline class="cls-4" points="35.36 136.57 36.73 131.76 37.88 133.42 40.65 129.86 42.26 132.21 43.18 135.52"/><polyline class="cls-4" points="40.35 138.57 44.01 134.06 44.12 133.93 46.08 133.93 47.23 136.25 48.62 138.63"/><polyline class="cls-4" points="35.98 139.66 36.83 137.71 38.14 138.69 39.56 136.51 40.96 141.19 42.56 143.44"/><polyline class="cls-4" points="38.33 148.61 39.7 143.8 40.85 145.47 43.62 141.9 45.23 144.26 46.15 147.56"/><polyline class="cls-4" points="43.32 150.61 46.99 146.1 47.09 145.97 49.05 145.97 50.21 148.29 51.59 150.68"/><polyline class="cls-4" points="322.26 101.29 323.63 96.48 324.78 98.14 327.55 94.58 329.16 96.94 330.08 100.24"/><polyline class="cls-4" points="327.25 103.29 330.92 98.78 331.02 98.65 332.99 98.65 334.14 100.97 335.52 103.36"/><polyline class="cls-4" points="322.88 104.38 323.73 102.43 325.05 103.41 326.46 101.24 327.86 105.92 329.46 108.16"/><polyline class="cls-4" points="325.24 113.33 326.6 108.52 327.76 110.19 330.52 106.63 332.13 108.98 333.06 112.28"/><polyline class="cls-4" points="330.23 115.33 333.89 110.82 333.99 110.69 335.96 110.69 337.11 113.01 338.49 115.4"/><polyline class="cls-4" points="306.04 85.2 307.41 80.39 308.56 82.05 311.32 78.49 312.94 80.84 313.86 84.15"/><polyline class="cls-4" points="311.03 87.2 314.69 82.69 314.8 82.56 316.76 82.56 317.91 84.88 319.3 87.27"/><polyline class="cls-4" points="306.66 88.29 307.51 86.34 308.82 87.32 310.24 85.14 311.64 89.82 313.24 92.07"/><polyline class="cls-4" points="309.01 97.24 310.38 92.43 311.53 94.09 314.3 90.53 315.91 92.89 316.83 96.19"/><polyline class="cls-4" points="314 99.24 317.66 94.73 317.77 94.6 319.73 94.6 320.89 96.92 322.27 99.31"/></g><g id="Seatac_Int._Airport" data-name="Seatac Int. Airport" class="cls-5"><rect class="cls-6" x="107.09" y="121.25" width="11.06" height="11.06" rx="1.32"/><path class="cls-2" d="M112.14,122.81a.49.49,0,1,1,1,0v2.73l3.82,2.29v1l-3.8-1.25v2l.88.69v.79l-1.36-.42-1.35.42v-.79l.87-.69v-2l-3.81,1.25v-1l3.77-2.29Z"/></g><g id="Bellingham_Int._Airport" data-name="Bellingham Int. Airport"><rect class="cls-6" x="99.97" y="40.19" width="11.06" height="11.06" rx="1.32"/><path class="cls-2" d="M105,41.75a.49.49,0,1,1,1,0V44.5l3.82,2.29v1L106,46.55v2l.88.69v.79l-1.36-.42-1.36.42v-.79l.87-.69v-2l-3.8,1.25v-1L105,44.5Z"/></g><polyline class="cls-7" points="139.9 161.11 141.27 156.3 142.42 157.96 145.19 154.4 146.8 156.76 147.72 160.06"/><polyline class="cls-7" points="118.91 201.36 120.28 196.54 121.43 198.21 124.19 194.65 125.81 197 126.73 200.3"/><g id="Spokane_Int._Airport" data-name="Spokane Int. Airport"><rect class="cls-6" x="331.81" y="162.08" width="11.06" height="11.06" rx="1.32"/><path class="cls-2" d="M336.86,163.64a.49.49,0,1,1,1,0v2.72l3.82,2.3v1l-3.8-1.25v2l.87.69V172l-1.35-.42L336,172v-.79l.87-.69v-2l-3.8,1.25v-1l3.77-2.3Z"/></g><path class="cls-8" d="M76.8,191.24c-.07-4.2-2.37-5.87-2.46-5.94l-.14-.1-.14.1a3.57,3.57,0,0,1-4.41,0l-.15-.13-.15.13a3.57,3.57,0,0,1-4.41,0l-.14-.1-.14.1c-.1.07-2.39,1.74-2.46,5.94a7.3,7.3,0,0,0,.61,3.5A8.16,8.16,0,0,0,66,198.37l.27-.37a7.2,7.2,0,0,1-3.62-6.72h0a9.45,9.45,0,0,1,.43-2.72H75.89a9.1,9.1,0,0,1,.44,2.72h0c0,.25.63,6.06-6.83,8.06A12,12,0,0,1,66.29,198l-.27.37a11.85,11.85,0,0,0,3.42,1.44l.06,0,.06,0c4.13-1.09,5.88-3.36,6.62-5.07A7.38,7.38,0,0,0,76.8,191.24Z"/><path class="cls-2" d="M71.17,191.3H68.92l0,1.11a2.67,2.67,0,0,1,.6-.07,1.76,1.76,0,0,1,1.86,1.86,1.88,1.88,0,0,1-2,1.93,1.74,1.74,0,0,1-1.81-1.28l1-.27a.89.89,0,0,0,.92.65.93.93,0,0,0,1-.95c0-.79-.61-1.09-1.31-1.09a2.79,2.79,0,0,0-1.17.27l.06-3h3.18Z"/><path class="cls-8" d="M255.23,167.4c-.07-4.27-2.41-6-2.51-6l-.14-.1-.14.1a3.65,3.65,0,0,1-4.49,0l-.16-.13-.15.13a3.65,3.65,0,0,1-4.49,0l-.14-.1-.14.1c-.1.07-2.44,1.77-2.51,6A7.45,7.45,0,0,0,241,171a8.19,8.19,0,0,0,3.26,3.7l.28-.38a7.32,7.32,0,0,1-3.69-6.84h0v0a9.33,9.33,0,0,1,.44-2.76h13a9.33,9.33,0,0,1,.44,2.76v0h0c0,.25.64,6.17-6.95,8.21a12.18,12.18,0,0,1-3.27-1.37l-.28.38a12.56,12.56,0,0,0,3.48,1.47l.07,0,.06,0c4.21-1.11,6-3.43,6.74-5.17A7.45,7.45,0,0,0,255.23,167.4Z"/><path class="cls-2" d="M244.16,172.29l1.37-2.11h0a1.3,1.3,0,0,1-.53.09,1.73,1.73,0,0,1-1.71-1.81,1.9,1.9,0,0,1,2-1.95,1.86,1.86,0,0,1,2,1.94,2.79,2.79,0,0,1-.53,1.56l-1.45,2.29Zm1.11-4.87a1,1,0,0,0,0,2.07,1,1,0,1,0,0-2.07Z"/><path class="cls-2" d="M250.34,166.5c.63,0,2,.25,2,2.94s-1.42,2.95-2,2.95-2.06-.25-2.06-2.95S249.7,166.5,250.34,166.5Zm0,5c1,0,1.09-1.32,1.09-2s-.13-2-1.09-2-1.1,1.32-1.1,2S249.37,171.47,250.34,171.47Z"/><g id="Seatac_Int._Airport-2" data-name="Seatac Int. Airport" class="cls-5"><rect class="cls-6" x="69.1" y="248.89" width="11.06" height="11.06" rx="1.32"/><path class="cls-2" d="M74.15,250.45a.49.49,0,1,1,1,0v2.73l3.81,2.29v1l-3.8-1.25v2L76,258v.79l-1.35-.42-1.36.42V258l.87-.69v-2l-3.8,1.25v-1l3.77-2.29Z"/></g><g id="Bellingham_Int._Airport-2" data-name="Bellingham Int. Airport"><rect class="cls-6" x="88.13" width="11.06" height="11.06" rx="1.32"/><path class="cls-2" d="M93.18,1.56a.49.49,0,1,1,1,0V4.3L98,6.6v1l-3.8-1.25v2l.88.69v.8L93.7,9.46l-1.35.42v-.8l.87-.69v-2L89.41,7.61v-1l3.77-2.3Z"/></g><path class="cls-9" d="M105.21,20a3,3,0,1,1-3-3A3,3,0,0,1,105.21,20Z"/><path class="cls-9" d="M125,119.57a3,3,0,1,1-3-3A3,3,0,0,1,125,119.57Z"/><path class="cls-9" d="M79.86,169.35a3,3,0,1,1-3-3A3,3,0,0,1,79.86,169.35Z"/><path class="cls-9" d="M356.89,165.66a3,3,0,1,1-3-3A3,3,0,0,1,356.89,165.66Z"/><path class="cls-9" d="M72.94,264.31a3,3,0,1,1-3-3A3,3,0,0,1,72.94,264.31Z"/><path class="cls-10" d="M115.62,59.38A3.38,3.38,0,1,1,119,56,3.38,3.38,0,0,1,115.62,59.38Z"/><path class="cls-2" d="M115.62,53.31a2.7,2.7,0,1,1-2.7,2.7,2.7,2.7,0,0,1,2.7-2.7m0-1.35a4.05,4.05,0,1,0,4,4,4.05,4.05,0,0,0-4-4Z"/><path class="cls-9" d="M114,148.15a3,3,0,1,1-3-3A3,3,0,0,1,114,148.15Z"/><path class="cls-9" d="M74.24,244.59a3,3,0,1,1-3-3A3,3,0,0,1,74.24,244.59Z"/><polyline class="cls-7" points="139.58 65.34 140.95 60.53 142.1 62.19 144.86 58.63 146.48 60.98 147.4 64.29"/><text class="cls-11" transform="translate(36.71 106.52)">O<tspan class="cls-12" x="4.84" y="0">l</tspan><tspan x="6.83" y="0">ympic</tspan><tspan x="-8.52" y="7.5">Nation</tspan><tspan class="cls-13" x="12.63" y="7.5">a</tspan><tspan x="16.37" y="7.5">l </tspan><tspan class="cls-14" x="20.29" y="7.5">P</tspan><tspan x="24.11" y="7.5">ark</tspan></text><path class="cls-2" d="M49.5,60.13l-.36.41a1.67,1.67,0,0,0-1.1-.42c-.48,0-.87.22-.87.69s.19.6,1.06.86,1.43.54,1.43,1.47-.64,1.43-1.73,1.43a2.2,2.2,0,0,1-1.63-.63l.36-.4a1.91,1.91,0,0,0,1.27.48c.57,0,1-.28,1-.86s-.22-.68-1-.93-1.43-.65-1.43-1.4A1.35,1.35,0,0,1,48,59.57,2,2,0,0,1,49.5,60.13Z"/><path class="cls-2" d="M53.36,64.12l-.15.45a.74.74,0,0,1-.72-.56,1.25,1.25,0,0,1-1.1.56,1.07,1.07,0,0,1-1.17-1.12c0-.79.59-1.21,1.62-1.21h.57V62c0-.53-.26-.73-.77-.73a3.21,3.21,0,0,0-1,.2L50.48,61a3.59,3.59,0,0,1,1.28-.25c.89,0,1.29.45,1.29,1.22v1.69C53.05,63.94,53.17,64.05,53.36,64.12Zm-1-.61v-.85h-.49c-.67,0-1,.25-1,.76a.58.58,0,0,0,.64.66A.94.94,0,0,0,52.41,63.51Z"/><path class="cls-2" d="M57.16,61.84v2.64h-.64V61.93c0-.56-.23-.72-.58-.72a1.11,1.11,0,0,0-.94.65v2.62h-.65V60.79h.56l.05.55a1.34,1.34,0,0,1,1.13-.63A1,1,0,0,1,57.16,61.84Z"/><path class="cls-2" d="M61.09,63.81a1.51,1.51,0,0,1-1.26,1.63L59.65,65a1,1,0,0,0,.77-1.18V59.66h.67Z"/><path class="cls-2" d="M65.13,64.48h-.55l0-.57a1.24,1.24,0,0,1-1.15.66,1,1,0,0,1-1-1.13V60.79H63v2.58c0,.5.17.69.57.69a1.11,1.11,0,0,0,.92-.63V60.79h.64Z"/><path class="cls-2" d="M69.2,64.12l-.15.45a.74.74,0,0,1-.72-.56,1.25,1.25,0,0,1-1.1.56,1.07,1.07,0,0,1-1.17-1.12c0-.79.59-1.21,1.62-1.21h.57V62c0-.53-.26-.73-.77-.73a3.26,3.26,0,0,0-1,.2L66.32,61a3.59,3.59,0,0,1,1.28-.25c.89,0,1.29.45,1.29,1.22v1.69C68.89,63.94,69,64.05,69.2,64.12Zm-1-.61v-.85h-.48c-.68,0-1,.25-1,.76a.58.58,0,0,0,.64.66A.94.94,0,0,0,68.25,63.51Z"/><path class="cls-2" d="M73,61.84v2.64h-.64V61.93c0-.56-.23-.72-.58-.72a1.11,1.11,0,0,0-.94.65v2.62h-.65V60.79h.56l0,.55a1.35,1.35,0,0,1,1.13-.63A1,1,0,0,1,73,61.84Z"/><path class="cls-2" d="M49.94,72h-.67V67.16h.67Z"/><path class="cls-2" d="M53.56,68.63l-.28.4a1.68,1.68,0,0,0-1-.31c-.42,0-.68.19-.68.48s.2.44.8.6c.77.19,1.22.5,1.22,1.15S53,72.07,52.2,72.07a2,2,0,0,1-1.39-.49l.34-.39a1.66,1.66,0,0,0,1,.36c.48,0,.79-.21.79-.56s-.18-.51-.89-.69S51,69.74,51,69.22s.57-1,1.33-1A2,2,0,0,1,53.56,68.63Z"/><path class="cls-2" d="M54.51,71.25V66.81l.64-.08v4.51c0,.2.06.29.23.29a.61.61,0,0,0,.24,0l.17.45a1,1,0,0,1-.51.13A.73.73,0,0,1,54.51,71.25Z"/><path class="cls-2" d="M59.35,71.62l-.14.45a.75.75,0,0,1-.73-.56,1.25,1.25,0,0,1-1.1.56A1.07,1.07,0,0,1,56.21,71c0-.79.59-1.21,1.62-1.21h.57v-.28c0-.53-.26-.73-.77-.73a3.26,3.26,0,0,0-1,.2l-.16-.47a3.63,3.63,0,0,1,1.28-.25c.89,0,1.29.45,1.29,1.22v1.69C59,71.44,59.16,71.55,59.35,71.62Zm-1-.61v-.85h-.48c-.68,0-1,.25-1,.76a.58.58,0,0,0,.64.66A.94.94,0,0,0,58.4,71Z"/><path class="cls-2" d="M63.15,69.34V72h-.64V69.43c0-.56-.23-.72-.58-.72a1.11,1.11,0,0,0-.94.65V72h-.65V68.29h.56l.05.55a1.35,1.35,0,0,1,1.13-.63A1,1,0,0,1,63.15,69.34Z"/><path class="cls-2" d="M67.24,66.81V72h-.57l-.06-.51a1.24,1.24,0,0,1-1.06.6c-.9,0-1.4-.77-1.4-1.92s.55-1.94,1.45-1.94a1.33,1.33,0,0,1,1,.45V66.73ZM66.6,71V69.2a1.07,1.07,0,0,0-.86-.48c-.55,0-.89.46-.89,1.42s.3,1.42.84,1.42A1.08,1.08,0,0,0,66.6,71Z"/><path class="cls-2" d="M70.8,68.63l-.27.4a1.71,1.71,0,0,0-1-.31c-.42,0-.68.19-.68.48s.2.44.79.6c.78.19,1.23.5,1.23,1.15s-.71,1.12-1.46,1.12a2,2,0,0,1-1.39-.49l.34-.39a1.66,1.66,0,0,0,1,.36c.48,0,.79-.21.79-.56s-.18-.51-.9-.69-1.11-.56-1.11-1.08.57-1,1.33-1A1.92,1.92,0,0,1,70.8,68.63Z"/><text class="cls-11" transform="translate(151.27 64.48)">Mount Ba<tspan class="cls-15" x="30.02" y="0">k</tspan><tspan class="cls-16" x="33.55" y="0">er Ski A</tspan><tspan class="cls-17" x="57.07" y="0">r</tspan><tspan class="cls-13" x="59.61" y="0">e</tspan><tspan x="63.38" y="0">a</tspan></text><path class="cls-2" d="M171.82,84.28h-.89l-2-4.1c0,.4.09,1,.09,1.89v2.21h-.63V79.45h.87l2,4.11a13.18,13.18,0,0,1-.1-1.47V79.45h.63Z"/><path class="cls-2" d="M176.21,82.43c0,1.14-.61,1.93-1.65,1.93s-1.65-.75-1.65-1.92.61-1.94,1.66-1.94S176.21,81.26,176.21,82.43Zm-2.6,0c0,1,.33,1.4.95,1.4s.95-.44.95-1.41-.33-1.41-.94-1.41S173.61,81.47,173.61,82.44Z"/><path class="cls-2" d="M179.22,80.54l-.12.64a1.13,1.13,0,0,0-.32-.05c-.47,0-.73.33-.89,1v2.11h-.64V80.59h.55l.06.75c.2-.56.54-.84,1-.84A2.33,2.33,0,0,1,179.22,80.54Z"/><path class="cls-2" d="M181.81,84.11a1.37,1.37,0,0,1-.82.25.93.93,0,0,1-1-1V81.08h-.64v-.49H180v-.84l.65-.07v.91h.87l-.07.49h-.8v2.2c0,.37.11.55.44.55a1,1,0,0,0,.49-.15Z"/><path class="cls-2" d="M185.26,81.63v2.65h-.64V81.72c0-.55-.24-.71-.59-.71a1.14,1.14,0,0,0-.93.64v2.63h-.64V79.11l.64-.07V81.1a1.32,1.32,0,0,1,1.09-.6A1,1,0,0,1,185.26,81.63Z"/><path class="cls-2" d="M165.93,87.34l-.36.43a1.45,1.45,0,0,0-.93-.36c-.73,0-1.34.49-1.34,2s.58,1.94,1.33,1.94a1.58,1.58,0,0,0,1-.4l.33.42a1.88,1.88,0,0,1-1.38.54c-1.17,0-2-.87-2-2.5s.91-2.49,2-2.49A1.91,1.91,0,0,1,165.93,87.34Z"/><path class="cls-2" d="M169.48,91.41l-.14.45a.75.75,0,0,1-.73-.55,1.25,1.25,0,0,1-1.1.55,1.07,1.07,0,0,1-1.17-1.11c0-.79.59-1.22,1.62-1.22h.57v-.27c0-.54-.26-.73-.77-.73a3.41,3.41,0,0,0-1,.19l-.17-.46a3.65,3.65,0,0,1,1.28-.26,1.12,1.12,0,0,1,1.29,1.23v1.69C169.17,91.24,169.29,91.34,169.48,91.41Zm-.95-.61V90h-.48c-.68,0-1,.25-1,.75a.58.58,0,0,0,.64.67A1,1,0,0,0,168.53,90.8Z"/><path class="cls-2" d="M172.75,88.42l-.27.41a1.72,1.72,0,0,0-1-.32c-.42,0-.68.19-.68.49s.2.44.79.59c.78.2,1.23.51,1.23,1.15s-.71,1.12-1.46,1.12a2,2,0,0,1-1.39-.48l.34-.39a1.69,1.69,0,0,0,1,.35c.48,0,.79-.21.79-.56s-.18-.5-.9-.69-1.11-.55-1.11-1.07.56-1,1.33-1A2,2,0,0,1,172.75,88.42Z"/><path class="cls-2" d="M176.24,88.4l-.31.41a1.27,1.27,0,0,0-.79-.28c-.58,0-.95.46-.95,1.42s.37,1.37.95,1.37a1.36,1.36,0,0,0,.8-.28l.3.42a1.77,1.77,0,0,1-1.13.4c-1,0-1.61-.71-1.61-1.9s.61-2,1.61-2A1.65,1.65,0,0,1,176.24,88.4Z"/><path class="cls-2" d="M179.84,91.41l-.15.45a.74.74,0,0,1-.72-.55,1.27,1.27,0,0,1-1.1.55,1.07,1.07,0,0,1-1.18-1.11c0-.79.6-1.22,1.63-1.22h.56v-.27c0-.54-.26-.73-.77-.73a3.47,3.47,0,0,0-1,.19l-.16-.46a3.56,3.56,0,0,1,1.27-.26,1.13,1.13,0,0,1,1.3,1.23v1.69C179.53,91.24,179.65,91.34,179.84,91.41Zm-1-.61V90h-.48q-1,0-1,.75c0,.44.21.67.64.67A.94.94,0,0,0,178.88,90.8Z"/><path class="cls-2" d="M183.67,86.6v5.18h-.57l-.06-.51a1.23,1.23,0,0,1-1.06.59c-.9,0-1.4-.76-1.4-1.91s.55-2,1.45-2a1.34,1.34,0,0,1,1,.46V86.53ZM183,90.8V89a1.05,1.05,0,0,0-.86-.49c-.55,0-.89.47-.89,1.43s.31,1.41.84,1.41A1.06,1.06,0,0,0,183,90.8Z"/><path class="cls-2" d="M187.75,90.15H185.4c.06.86.46,1.19,1,1.19a1.51,1.51,0,0,0,1-.33l.28.39a2,2,0,0,1-1.28.46c-1,0-1.64-.72-1.64-1.89s.58-2,1.54-2,1.52.7,1.52,1.82A2.77,2.77,0,0,1,187.75,90.15Zm-.62-.52c0-.72-.29-1.12-.87-1.12s-.81.35-.86,1.17h1.73Z"/><path class="cls-2" d="M191,88.42l-.27.41a1.72,1.72,0,0,0-1-.32c-.42,0-.68.19-.68.49s.2.44.79.59c.78.2,1.23.51,1.23,1.15s-.71,1.12-1.46,1.12a2,2,0,0,1-1.39-.48l.34-.39a1.69,1.69,0,0,0,1,.35c.48,0,.79-.21.79-.56s-.18-.5-.9-.69-1.11-.55-1.11-1.07.57-1,1.33-1A2,2,0,0,1,191,88.42Z"/><text class="cls-11" transform="translate(122.04 168.7)">Mount <tspan class="cls-15" x="21.99" y="0">R</tspan><tspan x="26.19" y="0">ainier</tspan></text><text class="cls-11" transform="translate(97.22 209.64)">Mount S<tspan class="cls-18" x="25.81" y="0">t</tspan><tspan x="28.36" y="0">. He</tspan><tspan class="cls-13" x="40.47" y="0">l</tspan><tspan class="cls-16" x="42.49" y="0">ens</tspan></text><text class="cls-19" transform="translate(118.28 151.18)"><tspan class="cls-20">T</tspan><tspan class="cls-21" x="4.36" y="0">a</tspan><tspan class="cls-22" x="9.26" y="0">c</tspan><tspan x="13.43" y="0">oma</tspan></text><text class="cls-19" transform="translate(129.69 122.17)">S<tspan class="cls-23" x="5.08" y="0">e</tspan><tspan class="cls-21" x="9.99" y="0">at</tspan><tspan class="cls-24" x="18.31" y="0">tl</tspan><tspan x="24.33" y="0">e</tspan></text><text class="cls-19" transform="translate(110.65 23.03)"><tspan class="cls-25">V</tspan><tspan x="4.79" y="0">an</tspan><tspan class="cls-26" x="14.87" y="0">c</tspan><tspan class="cls-21" x="19.03" y="0">ou</tspan><tspan class="cls-23" x="29.42" y="0">v</tspan><tspan class="cls-21" x="33.93" y="0">e</tspan><tspan class="cls-27" x="38.9" y="0">r</tspan><tspan class="cls-21" x="41.74" y="0">, B</tspan><tspan class="cls-17" x="51.63" y="0">.</tspan><tspan class="cls-28" x="53.61" y="0">C.</tspan></text><text class="cls-29" transform="translate(122.69 50.49)">BELLINGHAM</text><text class="cls-19" transform="translate(332.16 157.76)">Spo<tspan class="cls-30" x="15.65" y="0">k</tspan><tspan class="cls-21" x="20.43" y="0">ane</tspan></text><text class="cls-19" transform="translate(35 172.07)">O<tspan class="cls-30" x="6.22" y="0">l</tspan><tspan x="8.81" y="0">ympia</tspan></text><text class="cls-19" transform="translate(16.62 247.62)"><tspan class="cls-25">V</tspan><tspan x="4.79" y="0">an</tspan><tspan class="cls-22" x="14.87" y="0">c</tspan><tspan x="19.04" y="0">ou</tspan><tspan class="cls-23" x="29.42" y="0">v</tspan><tspan class="cls-21" x="33.93" y="0">er</tspan></text><text class="cls-19" transform="translate(75.54 278.23)"><tspan class="cls-31">P</tspan><tspan x="5.08" y="0">or</tspan><tspan class="cls-24" x="13.9" y="0">tl</tspan><tspan x="19.92" y="0">and, OR</tspan></text><path class="cls-2" d="M76.4,36.35h1.92l-.12.83H75.37V32.33h1Z"/><path class="cls-2" d="M81.82,37.18H81l0-.5a1.23,1.23,0,0,1-1.12.61c-.69,0-1-.44-1-1.15V33.47h1V36c0,.41.14.54.41.54a.83.83,0,0,0,.68-.48v-2.6h1Z"/><path class="cls-2" d="M87.77,34.48v2.7h-1V34.65c0-.43-.17-.55-.36-.55s-.46.19-.64.52v2.56h-1V34.65c0-.43-.16-.55-.36-.55s-.46.19-.64.52v2.56h-1V33.47h.87l.07.47a1.28,1.28,0,0,1,1.08-.58.89.89,0,0,1,.89.61,1.28,1.28,0,0,1,1.1-.61A1,1,0,0,1,87.77,34.48Z"/><path class="cls-2" d="M93.67,34.48v2.7h-1V34.65c0-.43-.17-.55-.36-.55s-.46.19-.64.52v2.56h-1V34.65c0-.43-.16-.55-.36-.55s-.46.19-.64.52v2.56h-1V33.47h.87l.07.47a1.28,1.28,0,0,1,1.08-.58.89.89,0,0,1,.89.61,1.29,1.29,0,0,1,1.1-.61A1,1,0,0,1,93.67,34.48Z"/><path class="cls-2" d="M95.69,32.14a.58.58,0,0,1-.61.58.58.58,0,1,1,0-1.16A.58.58,0,0,1,95.69,32.14Zm-.11,5h-1V33.47h1Z"/><path class="cls-2" d="M79,44.68H77.69l-1.54-3.84a13.38,13.38,0,0,1,.14,2v1.88h-.93V39.83h1.3l1.57,3.86A12,12,0,0,1,78.09,42V39.83H79Z"/><path class="cls-2" d="M83.1,44.12l-.21.66a.89.89,0,0,1-.85-.54,1.26,1.26,0,0,1-1.11.55,1.11,1.11,0,0,1-1.21-1.15c0-.81.62-1.25,1.71-1.25h.43v-.18c0-.46-.2-.61-.66-.61a3.48,3.48,0,0,0-1,.19L80,41.13a3.87,3.87,0,0,1,1.37-.27c1,0,1.48.45,1.48,1.29v1.5C82.84,44,82.93,44.06,83.1,44.12Zm-1.24-.46V43h-.32c-.55,0-.82.19-.82.6a.46.46,0,0,0,.49.52A.73.73,0,0,0,81.86,43.66Z"/><path class="cls-2" d="M86.05,44.51a1.83,1.83,0,0,1-1,.28c-.77,0-1.16-.45-1.16-1.27V41.67h-.55V41h.55v-.81l1-.12V41h.85l-.1.7h-.75V43.5c0,.36.12.5.37.5a.84.84,0,0,0,.42-.13Z"/><path class="cls-2" d="M87.58,39.64a.61.61,0,1,1-.61-.58A.58.58,0,0,1,87.58,39.64Zm-.11,5h-1V41h1Z"/><path class="cls-2" d="M91.78,42.82a1.76,1.76,0,0,1-1.78,2,1.73,1.73,0,0,1-1.78-2,1.75,1.75,0,0,1,1.79-2A1.72,1.72,0,0,1,91.78,42.82Zm-2.52,0c0,.86.25,1.23.74,1.23s.74-.38.74-1.23S90.49,41.6,90,41.6,89.26,42,89.26,42.82Z"/><path class="cls-2" d="M95.63,42v2.7h-1V42.15c0-.43-.16-.55-.41-.55s-.51.19-.72.52v2.56h-1V41h.87l.07.47a1.4,1.4,0,0,1,1.13-.58A1,1,0,0,1,95.63,42Z"/></g></g></svg>