<?xml version="1.0" encoding="utf-8"?>
<!-- Generator: Adobe Illustrator 25.2.3, SVG Export Plug-In . SVG Version: 6.00 Build 0)  -->
<svg version="1.1" id="Layer_1" xmlns="http://www.w3.org/2000/svg" xmlns:xlink="http://www.w3.org/1999/xlink" x="0px" y="0px"
	 viewBox="0 0 100.8 100.8" style="enable-background:new 0 0 100.8 100.8;" xml:space="preserve">
<style type="text/css">
	.st0{fill:#00325E;}
</style>
<g>
	<g>
		<path class="st0" d="M47.1,82.9c2.5,0.8,5.1,1.2,7.9,1.2c11.9,0,22-8,25.1-19c-4.6,3.7-9.9,7.1-15.7,10.3
			C58.6,78.6,52.7,81.1,47.1,82.9z"/>
		<path class="st0" d="M91.5,38.3c-2.2-4.1-8.2-5.7-16.9-4.4c-0.6,0.1-1.2,0.2-1.8,0.3c1.3,1,2.5,2,3.6,3.2c1.3-0.2,2.6-0.2,3.7-0.2
			c4.2,0,7.1,1,8.2,2.9c1.4,2.6-0.5,7.2-5.2,12.4c-0.7,0.8-1.5,1.6-2.2,2.4C79.2,41.9,68.3,31.9,55,31.9
			c-14.4,0-26.1,11.7-26.1,26.1c0,7.9,3.5,15,9.1,19.8c-1,0.2-2.1,0.4-3.1,0.6c-6.9,1-11.8,0.1-13.2-2.5h0
			c-1.3-2.4,0.3-6.6,4.2-11.3c-0.4-1.6-0.6-3.2-0.7-4.8c-0.4,0.4-0.8,0.8-1.1,1.2c-5.9,6.6-7.9,12.4-5.6,16.6
			c1.7,3.2,5.7,4.8,11.4,4.8c1.7,0,3.5-0.1,5.5-0.4c2.1-0.3,4.3-0.8,6.5-1.4l0,0l0,0c0.8-0.2,1.5-0.4,2.3-0.6c0.1,0,0.2-0.1,0.4-0.1
			c1.5-0.5,3.1-1,4.7-1.6c0.1-0.1,0.3-0.1,0.4-0.2c0.8-0.3,1.6-0.6,2.4-0.9c0,0,0,0,0,0c0.8-0.3,1.6-0.6,2.3-1
			c0.2-0.1,0.3-0.2,0.5-0.2c0.8-0.4,1.6-0.7,2.4-1.1c0,0,0,0,0,0c0.8-0.4,1.5-0.7,2.3-1.1c0.2-0.1,0.4-0.2,0.6-0.3
			c0.8-0.4,1.6-0.8,2.4-1.2c0.8-0.4,1.6-0.9,2.3-1.3c0.2-0.1,0.4-0.2,0.6-0.3c0.7-0.4,1.5-0.8,2.2-1.3c0,0,0.1,0,0.1,0
			c0.8-0.5,1.5-0.9,2.2-1.4c0.1-0.1,0.3-0.2,0.4-0.3c0.7-0.5,1.4-0.9,2.1-1.4c0,0,0,0,0,0c0.7-0.5,1.4-1,2.1-1.5
			c0.1-0.1,0.2-0.1,0.3-0.2c1.4-1,2.7-2.1,4-3.1c0.1,0,0.1-0.1,0.2-0.1c0.6-0.5,1.2-1.1,1.8-1.6c0,0,0,0,0,0v0
			c1.8-1.6,3.4-3.2,4.8-4.8C91.7,48.3,93.7,42.4,91.5,38.3z"/>
	</g>
	<circle class="st0" cx="30.1" cy="19.4" r="2.7"/>
	<circle class="st0" cx="65.5" cy="24" r="2.7"/>
	<path class="st0" d="M25.3,35.2h-4.5c-0.3-1.3-1.3-2.3-2.6-2.6v-4.5c0-0.5-0.4-0.9-0.9-0.9s-0.9,0.4-0.9,0.9v4.5
		c-1.3,0.3-2.3,1.3-2.6,2.6H9.3c-0.5,0-0.9,0.4-0.9,0.9c0,0.5,0.4,0.9,0.9,0.9h4.5c0.3,1.3,1.3,2.3,2.6,2.6v4.5
		c0,0.5,0.4,0.9,0.9,0.9s0.9-0.4,0.9-0.9v-4.5c1.3-0.3,2.3-1.3,2.6-2.6h4.5c0.5,0,0.9-0.4,0.9-0.9C26.2,35.7,25.8,35.2,25.3,35.2z
		 M17.3,38c-1,0-1.8-0.8-1.8-1.8c0-1,0.8-1.8,1.8-1.8s1.8,0.8,1.8,1.8C19.1,37.2,18.3,38,17.3,38z"/>
</g>
</svg>
