<svg xmlns="http://www.w3.org/2000/svg" viewBox="0 0 90.11 76.89"><defs><style>.cls-1{fill:#c1d82f;}</style></defs><g id="Layer_2" data-name="Layer 2"><g id="Layer_1-2" data-name="Layer 1"><path class="cls-1" d="M87.4,2.47a2.94,2.94,0,0,0-2.76.08c-2.37,1.39-3,6.21-3.47,10.62,0,.55-.1,1-.14,1.35-.22,1.56-4.76,4.84-8.08,6.77l-2.57-.62-.16-1.79a7.49,7.49,0,0,0,3.4-11.24l4.81-1.32L67.45,0l-11,6.33,4.8,1.31A7.44,7.44,0,0,0,60,11.92a7.53,7.53,0,0,0,4.73,7l-.15,1.78L62,21.29c-3.32-1.93-7.86-5.21-8.08-6.77,0-.33-.09-.8-.14-1.34C53.3,8.77,52.64,4,50.27,2.55a3,3,0,0,0-2.76-.08,4.32,4.32,0,0,0-2.45,3v0a4.36,4.36,0,0,0-2.46-3,2.94,2.94,0,0,0-2.76.08c-2.36,1.4-3,6.22-3.46,10.63-.06.54-.1,1-.15,1.34-.21,1.56-4.76,4.84-8.08,6.77l-2.57-.62-.15-1.79A7.49,7.49,0,0,0,28.81,7.64l4.8-1.31L22.64,0l-11,6.33,4.8,1.32a7.49,7.49,0,0,0,3.4,11.24l-.16,1.79-2.57.61c-3.31-1.93-7.86-5.21-8.07-6.77-.05-.33-.1-.8-.15-1.35C8.49,8.76,7.83,4,5.46,2.55A3,3,0,0,0,2.7,2.48,4.3,4.3,0,0,0,.25,5.43C-.86,9.5,2,16,4.23,19.1c1,1.44,6.17,8.24,9.94,9l.48,45.49a3.1,3.1,0,0,0,.84,2.13,4.34,4.34,0,0,0,3.26,1.15c1.76,0,3-3.82,3.92-8.85,1.29,7.66,2.67,8.85,3.87,8.85a4.35,4.35,0,0,0,3.27-1.15,3.08,3.08,0,0,0,.84-2.09l.48-45.53c3.77-.78,8.89-7.58,9.94-9a25.19,25.19,0,0,0,4-9.23,25.37,25.37,0,0,0,4,9.23c1.05,1.44,6.17,8.24,9.94,9l.48,45.49a3.1,3.1,0,0,0,.84,2.13,4.34,4.34,0,0,0,3.26,1.15c1.77,0,3-3.82,3.92-8.85,1.29,7.66,2.67,8.85,3.87,8.85a4.35,4.35,0,0,0,3.27-1.15,3.08,3.08,0,0,0,.84-2.09l.48-45.53c3.77-.78,8.89-7.58,9.94-9C88.14,16,91,9.5,89.86,5.43A4.36,4.36,0,0,0,87.4,2.47ZM15.7,5.81l6.94-4,7,4-1.91.52-5,1.39-5-1.39h0Zm1,6.11a5.9,5.9,0,0,1,1.4-3.83l4.54,1.25,4.55-1.25A5.94,5.94,0,1,1,16.7,11.92Zm23.1,6.26c-3.64,5-7.46,8.45-9.34,8.45h-.07l-.81,0-.5,47.08a1.51,1.51,0,0,1-.42,1,2.88,2.88,0,0,1-2.1.64c-.07,0-1.63-.63-3.1-12.78.48-4,.79-8.21,1-11.6l-1.56-.09c-.75,12.81-2.65,24-4.14,24.47a2.88,2.88,0,0,1-2.11-.65,1.52,1.52,0,0,1-.43-1l-.5-47-.81,0h-.06c-1.86,0-5.77-3.53-9.35-8.45C3.32,15.2.82,9.26,1.76,5.84A2.71,2.71,0,0,1,3.32,3.91a1.36,1.36,0,0,1,1.35,0C6.55,5,7.11,10.62,7.38,13.32c0,.58.1,1.06.15,1.41.4,2.94,7.66,7.24,9.11,8.07l.27.16,4.27-1,.23-2.62a7.12,7.12,0,0,0,1.23.11,7.36,7.36,0,0,0,1.25-.11l.22,2.62,4.28,1,.27-.16c1.45-.83,8.71-5.13,9.11-8.07,0-.35.1-.83.15-1.4.25-2.49.83-8.32,2.71-9.43a1.35,1.35,0,0,1,1.34,0,2.69,2.69,0,0,1,1.57,1.93C44.47,9.26,42,15.2,39.8,18.18ZM60.51,5.81l6.94-4,7,4-1.91.52-5,1.39-5-1.39h0Zm1,6.11a5.88,5.88,0,0,1,1.4-3.83l4.54,1.25L72,8.09a5.94,5.94,0,1,1-10.49,3.83Zm23.1,6.26c-3.62,5-7.63,8.54-9.41,8.45l-.81,0-.5,47.09a1.49,1.49,0,0,1-.41,1,2.94,2.94,0,0,1-2.11.67c-.07,0-1.63-.64-3.1-12.79.48-4,.79-8.21,1-11.6l-1.56-.09c-.75,12.81-2.65,24-4.14,24.47a2.88,2.88,0,0,1-2.11-.64,1.48,1.48,0,0,1-.43-1l-.5-47-.81,0h-.07c-1.88,0-5.7-3.45-9.34-8.45-2.17-3-4.67-8.92-3.74-12.34a2.74,2.74,0,0,1,1.57-1.93,1.36,1.36,0,0,1,1.35,0c1.88,1.11,2.46,6.94,2.7,9.43.06.57.11,1.05.15,1.4.41,2.94,7.67,7.24,9.12,8.08l.27.15,4.27-1,.23-2.62a7,7,0,0,0,2.47,0l.23,2.62,4.27,1,.27-.15c1.45-.84,8.72-5.14,9.12-8.08,0-.35.09-.83.15-1.41.27-2.7.82-8.31,2.7-9.42a1.37,1.37,0,0,1,1.35,0,2.74,2.74,0,0,1,1.57,1.93C89.28,9.26,86.78,15.2,84.61,18.18Z"/></g></g></svg>