<?xml version="1.0" encoding="utf-8"?>
<!-- Generator: Adobe Illustrator 25.2.3, SVG Export Plug-In . SVG Version: 6.00 Build 0)  -->
<svg version="1.1" id="Layer_1" xmlns="http://www.w3.org/2000/svg" xmlns:xlink="http://www.w3.org/1999/xlink" x="0px" y="0px"
	 viewBox="0 0 100.8 100.8" style="enable-background:new 0 0 100.8 100.8;" xml:space="preserve">
<style type="text/css">
	.st0{fill:#00325E;}
</style>
<text transform="matrix(1 0 0 1 -2150.9155 -23.4226)"><tspan x="0" y="0" style="fill:#005596; font-family:'FiraSans-Bold'; font-size:9px;">AR</tspan><tspan x="11" y="0" style="fill:#005596; font-family:'FiraSans-Bold'; font-size:9px;">B</tspan></text>
<path class="st0" d="M75.7,83.6l-10-36.3h6.7V34.5V22.9l3.8,1.3l0.7-2.1l-26.5-9.3l-26.5,9.3l0.7,2.1l3.8-1.3v11.6v12.8h6.5
	l-10,36.3h-8.6V88h68.2v-4.4H75.7z M50.4,70L67,83.6H33.8L50.4,70z M30.2,80.8l6.2-22.3l10.6,8.6L30.2,80.8z M53.9,67.2l10.3-8.5
	l6,21.8L53.9,67.2z M34.1,27.3h32.7v13.8H34.1V27.3z M50.4,47.3h10.7l1.9,6.7L50.4,64.3L37.6,53.9l1.8-6.6H50.4z"/>
</svg>
