<svg xmlns="http://www.w3.org/2000/svg" xmlns:xlink="http://www.w3.org/1999/xlink" viewBox="0 0 375.45 75.49"><defs><style>.cls-1{fill:none;}.cls-2{clip-path:url(#clip-path);}.cls-3{fill:#fff;}</style><clipPath id="clip-path" transform="translate(0 0)"><rect class="cls-1" width="375.45" height="75.49"/></clipPath></defs><g id="Layer_2" data-name="Layer 2"><g id="Layer_1-2" data-name="Layer 1"><g class="cls-2"><path class="cls-3" d="M133,45.53a16.69,16.69,0,0,0,.25,3.76c.24,1.11,2.4,1.42,5.18,1.61v1.91h-19.5V50.9c2.72-.19,4.87-.5,5.12-1.61a16.69,16.69,0,0,0,.25-3.76V16.9a16.79,16.79,0,0,0-.25-3.77c-.25-1.11-2.4-1.41-5.12-1.6V9.62h19.5v1.91c-2.78.19-4.94.49-5.18,1.6A16.79,16.79,0,0,0,133,16.9V27.82h18.57V16.9a17.47,17.47,0,0,0-.24-3.77c-.25-1.11-2.41-1.41-5.13-1.6V9.62h19.44v1.91c-2.71.19-4.87.49-5.12,1.6a16.79,16.79,0,0,0-.25,3.77V45.53a16.69,16.69,0,0,0,.25,3.76c.25,1.11,2.41,1.42,5.12,1.61v1.91H146.2V50.9c2.72-.19,4.88-.5,5.13-1.61a17.37,17.37,0,0,0,.24-3.76V30.84H133Z" transform="translate(0 0)"/><path class="cls-3" d="M182.67,36.4C182.67,44,185,49.73,193,49.73c7.53,0,11.79-4.26,11.79-14.07v-17a37.45,37.45,0,0,0-.31-4.07c-.31-2-2-2.9-5.25-3.09V9.62h14.44v1.91c-3.33.19-5,1.05-5.24,3.09a25.46,25.46,0,0,0-.31,4.07V36.27c0,12.34-8.08,17.28-16.17,17.28-13.88,0-18-6.66-18-17.58V16.9a17.33,17.33,0,0,0-.24-3.76c-.25-1.12-2.41-1.42-5.12-1.61V9.62H188v1.91c-2.71.19-4.87.49-5.12,1.61a16.65,16.65,0,0,0-.25,3.76Z" transform="translate(0 0)"/><path class="cls-3" d="M240.4,27.7l12.46,17.83c3.09,4.38,3.7,5.37,7.1,5.37v1.91H241.57V50.9c2.34,0,5-.5,2.1-4.82L235,33.5l-8.58,11.84c-3,4.14-1.42,5.56,1,5.56v1.91H215.16V50.9c3,0,4.94-1.67,8.15-6.17L233.24,31,222.93,15.42c-1.85-2.78-3-3.89-5.73-3.89V9.62h17.15v1.91c-2.35,0-4.44.93-2.1,4.44l6.23,9.32,7.22-9.63c1.92-2.65.74-4.13-1.66-4.13V9.62h12v1.91a7.21,7.21,0,0,0-5.74,2.71Z" transform="translate(0 0)"/><path class="cls-3" d="M262.69,50.9c2.78-.19,4.87-.5,5.12-1.61a16.69,16.69,0,0,0,.25-3.76V16.9a16.79,16.79,0,0,0-.25-3.77c-.25-1.11-2.34-1.41-5.12-1.6V9.62h19.43v1.91c-2.77.19-4.87.49-5.12,1.6a17.47,17.47,0,0,0-.24,3.77V46c0,4.2,2.28,4.57,7.28,4.57,7.9,0,9.07-3.4,11.6-8.89h1.73l-1.85,11.17H262.69Z" transform="translate(0 0)"/><path class="cls-3" d="M299.49,50.9c2.72-.19,4.88-.5,5.12-1.61a16.69,16.69,0,0,0,.25-3.76V16.9a16.79,16.79,0,0,0-.25-3.77c-.24-1.11-2.4-1.41-5.12-1.6V9.62h30.3v9.93h-1.67c-.92-4.38-2.4-7.65-6.72-7.65h-7.84V29.18h5.12c3.89,0,5.55-2.41,5.55-5.93h1.67V37.63h-1.67c-.12-3.39-1.41-6.17-5.55-6.17h-5.12v14c0,4.69,2.28,5.06,7.34,5.06,7.84,0,9-3.4,11.6-8.89h1.67l-1.85,11.17H299.49Z" transform="translate(0 0)"/><path class="cls-3" d="M364.59,52.81H345.16V50.9c2.71-.19,4.87-.5,5.12-1.61a16.69,16.69,0,0,0,.25-3.76V36.15L340.9,16.78c-1.91-4-4-5.25-6.85-5.25V9.62h18.39v1.91c-4.69,0-4.26,2-2.72,5.25l7.72,15.73L366,17c2.1-3.83-.12-5.43-3.76-5.43V9.68h13.26v1.85c-1.72,0-3.33.55-4.87,3.46L360.4,33.37a11.78,11.78,0,0,0-1.17,5.12v7a17.37,17.37,0,0,0,.24,3.76c.25,1.11,2.41,1.42,5.12,1.61Z" transform="translate(0 0)"/><path class="cls-3" d="M126.47,59V60.7a4,4,0,0,0-2.59-1.05,3.28,3.28,0,0,0-2.49,1.06,3.56,3.56,0,0,0-1,2.58,3.48,3.48,0,0,0,1,2.54,3.37,3.37,0,0,0,2.49,1,3,3,0,0,0,1.3-.25,3.49,3.49,0,0,0,.62-.34,6.63,6.63,0,0,0,.67-.51v1.75a5.19,5.19,0,0,1-2.6.71,4.81,4.81,0,0,1-3.51-1.44,4.74,4.74,0,0,1-1.44-3.48A4.93,4.93,0,0,1,120.13,60a5,5,0,0,1,6.34-1" transform="translate(0 0)"/><path class="cls-3" d="M129.8,63.22a4.7,4.7,0,0,1,1.48-3.47,4.88,4.88,0,0,1,3.55-1.45,5,5,0,0,1,3.51,8.48,5,5,0,0,1-6.91.16,4.68,4.68,0,0,1-1.63-3.72m1.46,0a3.42,3.42,0,0,0,1.07,2.6,3.38,3.38,0,0,0,2.45,1,3.46,3.46,0,0,0,2.54-1,3.71,3.71,0,0,0,0-5.14,3.39,3.39,0,0,0-2.52-1,3.53,3.53,0,0,0-3.55,3.59" transform="translate(0 0)"/><polygon class="cls-3" points="145.12 58.47 145.12 66.69 147.94 66.69 147.94 68.05 143.68 68.05 143.68 58.47 145.12 58.47"/><polygon class="cls-3" points="152.8 58.47 152.8 66.69 155.62 66.69 155.62 68.05 151.35 68.05 151.35 58.47 152.8 58.47"/><polygon class="cls-3" points="164.32 59.83 160.48 59.83 160.48 62.13 164.21 62.13 164.21 63.49 160.48 63.49 160.48 66.69 164.32 66.69 164.32 68.05 159.03 68.05 159.03 58.47 164.32 58.47 164.32 59.83"/><path class="cls-3" d="M173.19,63.06h4v.32a6.49,6.49,0,0,1-.26,1.91,3.86,3.86,0,0,1-.84,1.44,4.31,4.31,0,0,1-3.39,1.5,4.64,4.64,0,0,1-3.44-1.45,5,5,0,0,1,3.57-8.49,5,5,0,0,1,2.1.45,6.07,6.07,0,0,1,1.83,1.49l-1,1a3.49,3.49,0,0,0-2.87-1.57,3.41,3.41,0,0,0-2.55,1.05,3.47,3.47,0,0,0-1,2.58,3.38,3.38,0,0,0,1.15,2.63,3.41,3.41,0,0,0,2.32,1,3,3,0,0,0,1.92-.71,2.61,2.61,0,0,0,1-1.74h-2.39Z" transform="translate(0 0)"/><polygon class="cls-3" points="186.3 59.83 182.46 59.83 182.46 62.13 186.19 62.13 186.19 63.49 182.46 63.49 182.46 66.69 186.3 66.69 186.3 68.05 181.01 68.05 181.01 58.47 186.3 58.47 186.3 59.83"/><path class="cls-3" d="M195.73,63.22a4.66,4.66,0,0,1,1.48-3.47,4.88,4.88,0,0,1,3.55-1.45,5,5,0,0,1,5,5,4.69,4.69,0,0,1-1.48,3.5,4.9,4.9,0,0,1-3.57,1.45,5,5,0,0,1-3.34-1.29,4.71,4.71,0,0,1-1.62-3.72m1.46,0a3.55,3.55,0,0,0,6.06,2.59,3.73,3.73,0,0,0,0-5.14,3.57,3.57,0,0,0-5,0,3.46,3.46,0,0,0-1,2.55" transform="translate(0 0)"/><polygon class="cls-3" points="214.39 59.83 211.05 59.83 211.05 62.13 214.27 62.13 214.27 63.49 211.05 63.49 211.05 68.05 209.6 68.05 209.6 58.47 214.39 58.47 214.39 59.83"/><polygon class="cls-3" points="226.72 59.83 226.72 68.05 225.27 68.05 225.27 59.83 223.07 59.83 223.07 58.47 228.91 58.47 228.91 59.83 226.72 59.83"/><polygon class="cls-3" points="233.69 62.22 237.82 62.22 237.82 58.47 239.27 58.47 239.27 68.05 237.82 68.05 237.82 63.58 233.69 63.58 233.69 68.05 232.25 68.05 232.25 58.47 233.69 58.47 233.69 62.22"/><polygon class="cls-3" points="248.9 59.83 245.06 59.83 245.06 62.13 248.79 62.13 248.79 63.49 245.06 63.49 245.06 66.69 248.9 66.69 248.9 68.05 243.61 68.05 243.61 58.47 248.9 58.47 248.9 59.83"/><polygon class="cls-3" points="264.09 59.83 260.25 59.83 260.25 62.13 263.98 62.13 263.98 63.49 260.25 63.49 260.25 66.69 264.09 66.69 264.09 68.05 258.81 68.05 258.81 58.47 264.09 58.47 264.09 59.83"/><polygon class="cls-3" points="268.04 68.05 268.04 57.82 275.02 65.13 275.02 58.48 276.47 58.48 276.47 68.64 269.48 61.35 269.48 68.05 268.04 68.05"/><polygon class="cls-3" points="281.29 58.47 283.94 65.11 286.63 58.47 288.21 58.47 283.91 68.77 279.71 58.47 281.29 58.47"/><rect class="cls-3" x="291.45" y="58.48" width="1.45" height="9.58"/><path class="cls-3" d="M300.48,64l3,4.08h-1.77l-2.74-3.92h-.26v3.92h-1.44V58.47h1.69a4.18,4.18,0,0,1,2.74.72,2.62,2.62,0,0,1,.93,2.09A2.7,2.7,0,0,1,302,63a2.61,2.61,0,0,1-1.54.94m-1.8-1.1h.46c1.37,0,2.05-.52,2.05-1.57s-.66-1.47-2-1.47h-.52Z" transform="translate(0 0)"/><path class="cls-3" d="M306.24,63.22a4.66,4.66,0,0,1,1.48-3.47,4.87,4.87,0,0,1,3.55-1.45,5,5,0,0,1,5,5,4.69,4.69,0,0,1-1.48,3.5,5,5,0,0,1-6.91.16,4.71,4.71,0,0,1-1.62-3.72m1.45,0a3.45,3.45,0,0,0,1.07,2.6,3.41,3.41,0,0,0,2.45,1,3.49,3.49,0,0,0,2.55-1,3.73,3.73,0,0,0,0-5.14,3.4,3.4,0,0,0-2.52-1,3.44,3.44,0,0,0-2.53,1,3.5,3.5,0,0,0-1,2.55" transform="translate(0 0)"/><polygon class="cls-3" points="320.11 68.05 320.11 57.82 327.1 65.13 327.1 58.48 328.55 58.48 328.55 68.64 321.56 61.35 321.56 68.05 320.11 68.05"/><polygon class="cls-3" points="332.55 68.05 334.57 57.76 337.85 65.2 341.26 57.76 343.07 68.05 341.59 68.05 340.67 62.27 337.83 68.49 335.07 62.27 334.05 68.05 332.55 68.05"/><polygon class="cls-3" points="352.43 59.83 348.59 59.83 348.59 62.13 352.32 62.13 352.32 63.49 348.59 63.49 348.59 66.69 352.43 66.69 352.43 68.05 347.15 68.05 347.15 58.47 352.43 58.47 352.43 59.83"/><polygon class="cls-3" points="356.38 68.05 356.38 57.82 363.36 65.13 363.36 58.48 364.81 58.48 364.81 68.64 357.82 61.35 357.82 68.05 356.38 68.05"/><polygon class="cls-3" points="371.79 59.83 371.79 68.05 370.34 68.05 370.34 59.83 368.14 59.83 368.14 58.47 373.99 58.47 373.99 59.83 371.79 59.83"/><path class="cls-3" d="M84.86,72.77s1.81-.66,1.42-.63-8.2-1.22-7.45-2.21,8.33,1.34,8.33,1.34,4.6-.73,3-.63-8.1-1.2-7.35-2.19,10.3,1,10.3,1,1.42-.64,1-.88a6.26,6.26,0,0,0-1.33-.45s-1.62-1-1.25-1.67,5.06,1.69,5.06,1.69,1.54-.91,1-1S96,65.3,96.75,64.57,100.93,67,100.93,67l4-1.14L98.27,63s-5,.19-5.52.23-3,.46-3,.46L83.5,65.31l-6.77,1.52-2,1.89a47.64,47.64,0,0,1-3.82,3.08c-.64.31-2.19,1.08-2.09.27s5.34-4.53,4.68-4.48a18.58,18.58,0,0,0-2.59.84c-.66.17-2.71,1.39-4.39,2s-6.95.59-7.1.06,1.92-1.21,1.92-1.21l4.82-1.12,2.86-1-3.62-1.51s-1.22-1-.6-1.85,5.77,2.72,5.77,2.72l2.07-.67a4.6,4.6,0,0,0-2.4-.93c-1.32,0-2.69-1.43-1.66-2S75.73,65,75.73,65l2.48-.57-3.87-1.36s-3.57-.44-2.69-1.44,8.87,1.44,8.87,1.44L83.29,63l-2.57-1.39s-5.44-1.13-4.15-1.88,9.29,2.08,9.29,2.08l1.44-.09s-2.42-1.33-1.8-2.17S89.77,61,89.77,61l3.09-.31L86.07,57l-2.91.19L80,57.31a10.81,10.81,0,0,0-5.08,1.28c-2.34,1.59-5.3,1.6-6.84,2.38s-5.47.86-5,.16c.85-1.28,5.6-1.46,5.6-1.46l4.06-1.94-6.62.49-8.19-.4a39.6,39.6,0,0,1-6.49-.24c-1.47-.4-1.17-.92-1.17-.92,1.28-.89,13.11-.19,13.11-.19l-1-.69-4.15-1.62S56.83,53,57.73,52.3s7.65,4,7.65,4H67.5l-1.66-1a17.1,17.1,0,0,0-1.86-1c-.8-.36-3.67-2.87-2.51-3.62s9.08,5.15,9.08,5.15l.85-.13-1.9-1.5s-5.64-2.86-4.76-3.86,10.47,5.24,10.47,5.24l1.29-.18.94-.1a24.4,24.4,0,0,0-4.07-1.82c-1.59-.43-4.49-1.87-4-3.39s12.43,5.46,12.43,5.46l1.8,0-4.94-3-2.22-1.79s-4.06-2-4.47-2.2a7.15,7.15,0,0,0-1.79-.38l-1.64-.39-1.91.15-4.73-.1L57.29,48l-5.12.33a14.52,14.52,0,0,0-6.68.57c-3.63,1.19-7.58,2.41-7.58,2.41s-2.56.18-1.8-.55,7.9-2.7,7.9-2.7-5.5.52-5.15-.58,8.93-.21,8.93-.21l-1.88-.95S42,43.9,43.17,43.55s7.21,2.76,7.21,2.76l2.64.37a9.32,9.32,0,0,0-3.63-1.92c-2.12-.54-4.94-2-3.26-2.62S55,46.41,55,46.41s2.49,0,1.17-.21-7.83-4.88-6.53-5.37,10.86,5.22,10.86,5.22a7.28,7.28,0,0,1,1.15,0l-.1,0c-1.7-1.06-7.16-4.79-6.28-5.66s10.37,5.93,10.37,5.93l1.71-.12-2.68-2-4-2.82L56.51,39l-1.79.79L49.21,40,43,40.32l-6.55.43L34,41.59s-4,.94-4.34-.12,4.55-1.19,4.55-1.19-3-.53-2.55-1.24,6.85.1,6.85.1l2.09-.28S35,36.13,36.12,35.25s6.56,2.94,6.56,2.94,3.84.69,1.83-.26-6.46-3.19-5.15-4c.89-.55,9.51,4.2,9.51,4.2l-1.53-1.73s-3.49-1.82-2.87-2.67S51,37.69,51,37.69l2.51.33-3.38-2.34-3.79-2.45-3.21-1.54-6.82.45c-2.1.13-10.46,1.49-11,.45s3.38-.89,3.38-.89-1.49-1-.86-1.83,3.19,1,3.19,1l2.26.18s-2.86-2-2.1-2.75,4.19,2.45,4.19,2.45,4.33.12,2.74-.18S34.24,28,34.47,27,40,30.28,40,30.28l1.78-.12-5.31-3.42-3.36-1.81-4.73.18s-6.1.52-7.9-.43c-1.3-.68,6-.82,6-.82s-1.83-1.38-.87-1.6c1.55-.38,4.54.58,4.54.58l-4.62-3.75s-8.07-1.22-8.39-2.41,2.65-.63,3.35-.46c-.08-.19-.47-.87-2.11-1.51C15.21,13.49,12.64,10.9,13,9.8s4.54,2.36,4.54,2.36-.46-2.22.59-2.29,3.62,5,3.62,5l5.6,3.76-1.9-3s-1.13-3.92.13-3.55c1.07.3,3.12,5.59,3.12,5.59L29.58,20,37,24.83l-1.25-2.74s-3.1-.74-3.15-1.95S35.23,20,35.23,20s-3.65-2.49-3.69-3.43,3.37.86,2.7.5S33,12.67,33.6,12.23s3.49,8.26,3.49,8.26l1.55,5.23,3.49,2.12,5.68,4.24-1.27-2.5-3.8-2.64s-2.45-2.21-1.94-2.65,5.26,3.16,5.26,3.16l-2.73-2.38s-4.09-3.51-3.74-4.61S45.25,25,45.25,25l-1-3S39.89,18.15,40,17.07s3.24,2.21,3.24,2.21.51-.57-.33-1.87-1.07-5.18-.76-5.61c1.64-2.23,2.9,6.55,2.9,6.55l1.39,5.17,1.22,4,2.47,5.45,3.64,2.51,5.16,2.73-.19-.66-.95-.92s-5.35-3.4-5.26-4.48,6.63,3.25,6.63,3.25L56.69,33.5s-8.27-5.91-7.5-6.66C50.46,25.61,57.52,32,57.52,32s-1.4-2.73-2.87-3.44S48,22.4,48.83,21.39s6.61,5.89,6.61,5.89l-1.78-3.7s-3.65-2.46-4-4.32,5.21,3.56,5.21,3.56.4-3.94-.75-6.42c-.9-1.95-.53-3.87.38-4.06s2.38,9.82,2.38,9.82l.33,5L58.92,30l.72,2.33,1.11,3.41,1.44,3.56,5.19,4.31,1.5.89,2.31,1.18s2,1,1.15.42S64,39,64.3,37.41s8.5,6.9,8.5,6.9l-.63-2.53S63.46,36,63.76,34s7.85,5.61,7.85,5.61L71.54,39s-7.62-8.07-7.71-10.1S71.61,36,71.61,36l-.46-1.93s-7.2-6.69-6.77-8.69,5.42,4.41,5.42,4.41.66,1.53.06-.81-5.77-6.46-5.74-8.35c0-1.6,2.62.94,3.11,1.48-.44-.74-.37-6.3.69-6.88S69,20.41,69,20.41s1.62,6.82,1.56,5.87,1.08-5.31,2.23-5-.48,9.85-.48,9.85l.78.18L73.18,35l.37.29.57,4.23,2.79,9.11,1.87.8,4.63,3.88,4.7,2s1.77,1.74,1.22.65-7.82-7.7-7.77-10.18c0-.86,6.53,5,6.53,5l-.78-2.94c-6.06-5.74-8.62-6.41-8.1-8.1s4.68,2.5,5.32,3.19,2.35,2.6,2.35,2.6.83-.73-.66-2.36c-4.82-5.23-7.7-10.2-7-9.91,2.11.82,7.11,7.46,7.11,7.46a1.63,1.63,0,0,0-.08-1.87c-.68-1.12-5.9-9.12-5.11-10.2S86,35.56,86,35.56s.48.19-.08-2c-.29-1.11-4.14-6.32-3.24-7.92s3,5.27,3,5.27.29.48.08-1.51-.15-9.84,1-10.7,1,4.22,1,4.22l-.17,5.37s.33,6.16.64,5.4a16.06,16.06,0,0,0,1.15-4.34c.05-1.38.42-1.9,1.49-.7s-1.87,7-1.87,7l.28,6.18.52,4.68.83.7,0,3.06a5,5,0,0,1,.71,2c.22,1.49,0,3.16,1.23,4s5,3.5,5,3.5l5.65,3s.88-1.89,1.64-.75a7.64,7.64,0,0,0,2.78,2,15.43,15.43,0,0,0,.26-2.74V14.15c0-7.82-6-14.15-13.5-14.15H13.49C6,0,0,6.33,0,14.15V61.33c0,7.82,6,14.16,13.49,14.16H73c2.88-1.15,11.89-2.72,11.89-2.72" transform="translate(0 0)"/><path class="cls-3" d="M89,73.18c-.77.45-3.92.66-5.06,1.54a7.49,7.49,0,0,0-.84.77h6.71a50.7,50.7,0,0,1,4-3.84A41.37,41.37,0,0,0,89,73.18" transform="translate(0 0)"/><path class="cls-3" d="M106.23,68.13s-7,1.27-7.7,1.45a8.68,8.68,0,0,0-2.68,1.79c-.45.52-2.45,2.41-4,4.12h2.57a13.41,13.41,0,0,0,11.84-7.36h0" transform="translate(0 0)"/><path class="cls-3" d="M81.3,75.49l.33-.3-1.58.3Z" transform="translate(0 0)"/></g></g></g></svg>