<?xml version="1.0" encoding="utf-8"?>
<!-- Generator: Adobe Illustrator 25.2.3, SVG Export Plug-In . SVG Version: 6.00 Build 0)  -->
<svg version="1.1" id="Layer_1" xmlns="http://www.w3.org/2000/svg" xmlns:xlink="http://www.w3.org/1999/xlink" x="0px" y="0px"
	 viewBox="0 0 100.8 100.8" style="enable-background:new 0 0 100.8 100.8;" xml:space="preserve">
<style type="text/css">
	.st0{fill-rule:evenodd;clip-rule:evenodd;fill:#00325E;}
</style>
<g>
	<path class="st0" d="M69.1,86.5L69.1,86.5c-2.2,0-4.5-1.7-4.5-4.5V56.4c0,0-3.5,0-7.4,0c2.4-21,9.3-42,14-42c1.3,0,2.4,1.1,2.4,2.6
		c0,4.2,0,49.9,0,65C73.6,84.4,71.6,86.5,69.1,86.5L69.1,86.5z M34.6,49.1c0-2.1-1.3-2.8-4.1-5c-2.1-1.7-3.5-4.3-3.3-7
		c0.8-7.6,2.6-22.7,2.6-22.7h1.8v18h3l0.7-18h1.8l0.5,18h3l0.7-18H43l0.6,18h3v-18h1.6c0,0,2,15,2.9,22.7c0.3,2.7-1.2,5.4-3.4,7.1
		c-2.9,2.3-4.1,2.9-4.1,5v32.8c0,2.5-2,4.5-4.5,4.5c-2.5,0-4.5-2-4.5-4.5V49.1L34.6,49.1z"/>
</g>
</svg>
