<?xml version="1.0" encoding="utf-8"?>
<!-- Generator: Adobe Illustrator 25.2.3, SVG Export Plug-In . SVG Version: 6.00 Build 0)  -->
<svg version="1.1" id="Layer_1" xmlns="http://www.w3.org/2000/svg" xmlns:xlink="http://www.w3.org/1999/xlink" x="0px" y="0px"
	 viewBox="0 0 100.8 100.8" style="enable-background:new 0 0 100.8 100.8;" xml:space="preserve">
<style type="text/css">
	.st0{fill:#00325E;}
</style>
<g>
	<g>
		<path class="st0" d="M53.1,34.4L53.1,34.4l-5.2,23.5c-1.2,5.7-0.3,11.7,2.7,16.8c3.8,6.6,11.9,9.5,19,6.9c5.5-2,10.1-6,12.8-11.2
			l11-21.4C78.8,48.1,64.8,43.1,53.1,34.4z M62.7,48.8c2.3,0.8,3.2,3.7,3.2,5.3l-1.7,0.4c0,0-0.3-2-2.5-2.9
			c-2.2-0.8-3.8,0.6-3.8,0.6l-1-1.4C57.9,49.6,60.3,48,62.7,48.8z M72.3,75.3c-2-3.1-4.5-5.6-8.7-7.1c-4.2-1.5-7.7-1.3-11.2-0.1
			l-0.6-1.2c3.2-2.4,8.1-4.4,13.2-2.5c5.1,1.8,7.6,6.5,8.5,10.4L72.3,75.3z M78.2,59.5c0,0-0.3-2-2.5-2.9c-2.2-0.8-3.8,0.6-3.8,0.6
			l-1-1.4c1-1.2,3.5-2.8,5.8-2c2.3,0.8,3.2,3.7,3.2,5.3L78.2,59.5z"/>
	</g>
	<g>
		<g>
			<path class="st0" d="M36.2,68.2c-2.3-0.1-4.5-0.6-6.7-1.6c-5.6-2.6-9.9-7.2-12.3-12.8L7.5,29.9L9.1,30
				c14.4,0.5,28.5-3.2,40.8-10.8l1.4-0.9l3.4,25.5c0.8,6.1-0.8,12.2-4.3,17.2l0,0C47,65.8,41.6,68.3,36.2,68.2z M10.7,32.2L19.2,53
				c2.1,5.2,6.1,9.3,11.2,11.7c6.5,3,14.1,1,18.2-4.8l0,0c3.2-4.6,4.6-10.2,4-15.7l-2.9-22.2C37.8,28.8,24.4,32.3,10.7,32.2z"/>
		</g>
	</g>
	<g>
		<path class="st0" d="M46.4,46.9c-2.2,3-4.9,5.1-9.3,6.3c-4.3,1.1-7.8,0.6-11.2-0.9l-0.7,1.2c2.9,2.6,7.7,5.1,12.9,3.7
			c5.2-1.4,8.1-5.8,9.4-9.6L46.4,46.9z"/>
	</g>
	<g>
		<path class="st0" d="M45.2,36.2l-1.2,1.3c0,0-1.4-1.5-3.7-0.9c-2.2,0.6-2.8,2.6-2.8,2.6L36,38.6c0.2-1.5,1.3-4.3,3.7-4.9
			C42,33,44.4,34.9,45.2,36.2z"/>
	</g>
	<g>
		<path class="st0" d="M30.9,40l-1.2,1.3c0,0-1.4-1.5-3.7-0.9C23.8,41,23.2,43,23.2,43l-1.6-0.6c0.2-1.5,1.3-4.3,3.7-4.9
			C27.6,36.8,30,38.7,30.9,40z"/>
	</g>
</g>
</svg>
