<svg xmlns="http://www.w3.org/2000/svg" viewBox="0 0 88.8 99.32"><defs><style>.cls-1,.cls-2{fill:none;stroke:#fff;stroke-miterlimit:10;stroke-width:1.25px;}.cls-2{fill-rule:evenodd;}</style></defs><g id="Layer_2" data-name="Layer 2"><g id="Layer_1-2" data-name="Layer 1"><rect class="cls-1" x="4.29" y="64.81" width="60.75" height="33.89"/><rect class="cls-1" x="0.63" y="55.62" width="68.25" height="6.19"/><path class="cls-2" d="M50.3,45h0l5.44-8.47L53.28,35,46.5,37.78a7,7,0,0,1-2.69.59h0c-2.19,0-3.91-1.29-5.27-3.94a5,5,0,0,1-.19-4.07,6.49,6.49,0,0,1,2-2.77l-3.51-2.15A1.51,1.51,0,0,1,36.4,25l-.52-.31L21.28,46.54l28.09-.14Z"/><polygon class="cls-2" points="57.16 44.96 53.86 44.96 52.84 46.55 55.01 46.55 55.01 49.55 19.95 49.55 15.64 49.57 15.66 49.55 14.49 49.55 14.49 46.55 17.66 46.55 18.73 44.96 12.3 44.96 2.5 52.62 67.01 52.62 57.16 44.96"/><path class="cls-2" d="M64.89,9.54A48,48,0,0,1,53.16,7.85a4,4,0,0,0-.91-.1c-2.13,0-4.46,1.82-6.24,4.88-2.14,3.67-2.84,4.9-3.54,6.13s-1.23,2.17-2.81,4.89L43.47,26l2.17-.84a21.24,21.24,0,0,0,1.84-2.19c.64-.83,1.3-1.69,1.92-2.36a5.89,5.89,0,0,1,1.88-1.46,4.3,4.3,0,0,1,1.77-.35c1.63,0,3.86.77,4.79,2.21a1.49,1.49,0,0,1-.64,2.17l-10.27,4.7c-.15.07-.32.13-.5.2l-2.92,1.19h0l-.4.16a3.67,3.67,0,0,0-2,2,2,2,0,0,0,.05,1.66c1.18,2.31,2.18,2.31,2.6,2.31A4.2,4.2,0,0,0,45.38,35l10.43-4.23a14.11,14.11,0,0,1,6.91-1c.27,0,.56,0,.85,0A8,8,0,0,0,68.81,28a14.33,14.33,0,0,1,1.88-1.4L77.82,22,70.47,9.26C68.38,9.43,66.55,9.54,64.89,9.54Z"/><rect class="cls-1" x="76.01" y="1.17" width="7.04" height="21.49" transform="translate(4.69 41.35) rotate(-29.99)"/></g></g></svg>