<?xml version="1.0" encoding="utf-8"?>
<!-- Generator: Adobe Illustrator 25.2.3, SVG Export Plug-In . SVG Version: 6.00 Build 0)  -->
<svg version="1.1" id="Layer_1" xmlns="http://www.w3.org/2000/svg" xmlns:xlink="http://www.w3.org/1999/xlink" x="0px" y="0px"
	 viewBox="0 0 100.8 100.8" style="enable-background:new 0 0 100.8 100.8;" xml:space="preserve">
<style type="text/css">
	.st0{fill:#00325E;}
</style>
<path id="paintbrush-6" class="st0" d="M27.1,79c13.3,1.1,8.6-13.1,20.9-13.2l5.3,4.5C54.7,86.4,35,90,27.1,79z M68,58.3
	C72.2,51.8,85,30,85,30c1-1.8-1.2-3.7-2.8-2.4c0,0-19.1,16.6-24.7,21.9c-4.5,4.2-4.5,6.1-5.9,12.9l4.9,4.1
	C62.9,63.8,64.8,63.5,68,58.3z M33.1,69.6c1.9-3.3,5.1-8.7,12.9-9.5c1.3-6.1,1.8-9.6,7.4-14.9c4-3.7,14.4-12.8,20.4-18.1
	c-2.9-6.4-12-11.7-23.8-11.6c-19.3,0.2-34.8,15.9-34.6,35.2c0.1,8.5,3.1,16.2,8.2,22.2C28.4,74.1,30.6,73.9,33.1,69.6z M53.4,23.5
	c3.2,0,5.8,2.6,5.9,5.8c0,3.2-2.6,5.8-5.8,5.9c-3.2,0-5.8-2.6-5.9-5.8C47.6,26.2,50.1,23.6,53.4,23.5z M35.9,29.3
	c3.2,0,5.8,2.6,5.8,5.8c0,3.2-2.6,5.8-5.8,5.9c-3.2,0-5.8-2.6-5.9-5.8C30.1,32,32.7,29.4,35.9,29.3z M30.1,46.8
	c3.2,0,5.8,2.6,5.9,5.8c0,3.2-2.6,5.8-5.8,5.9c-3.2,0-5.8-2.6-5.8-5.8C24.3,49.4,26.9,46.8,30.1,46.8z M59.3,71.6
	c0.1,6.5-2.6,10.8-4.9,13.3c0,0-0.1,0.1-0.1,0.1c15.3-1.7,26.3-12.5,18.2-22.9C68.5,68.1,65.1,69.2,59.3,71.6z"/>
</svg>
