<?xml version="1.0" encoding="utf-8"?>
<!-- Generator: Adobe Illustrator 25.2.3, SVG Export Plug-In . SVG Version: 6.00 Build 0)  -->
<svg version="1.1" id="Layer_1" xmlns="http://www.w3.org/2000/svg" xmlns:xlink="http://www.w3.org/1999/xlink" x="0px" y="0px"
	 viewBox="0 0 20 18" style="enable-background:new 0 0 20 18;" xml:space="preserve">
<style type="text/css">
	.st0{fill:#00325E;}
</style>
<path class="st0" d="M18,8H2V5h16 M18,12h-7v-2h7 M18,16h-7v-2h7 M9,16H2v-6h7 M18.3,1.7L16.7,0L15,1.7L13.3,0l-1.7,1.7L10,0
	L8.3,1.7L6.7,0L5,1.7L3.3,0L1.7,1.7L0,0v16c0,1.1,0.9,2,2,2h16c1.1,0,2-0.9,2-2V0L18.3,1.7z"/>
</svg>
