<?xml version="1.0" encoding="utf-8"?>
<!-- Generator: Adobe Illustrator 25.2.3, SVG Export Plug-In . SVG Version: 6.00 Build 0)  -->
<svg version="1.1" id="Layer_1" xmlns="http://www.w3.org/2000/svg" xmlns:xlink="http://www.w3.org/1999/xlink" x="0px" y="0px"
	 viewBox="0 0 100.8 100.8" style="enable-background:new 0 0 100.8 100.8;" xml:space="preserve">
<style type="text/css">
	.st0{fill-rule:evenodd;clip-rule:evenodd;fill:#00325E;}
	.st1{fill:none;stroke:#00325E;stroke-width:7;stroke-linecap:round;stroke-miterlimit:10;}
</style>
<g>
	<path class="st0" d="M84.4,11.1c-10.5-3.4-20.8-1.5-27.2,4.2c-10.1,9-8.1,24-8.1,24s17.1,5,27.3-4.1C85.9,26.5,84.4,12.2,84.4,11.1
		L84.4,11.1z"/>
	<path class="st0" d="M44.5,54c1.7-9.3-1.1-17.9-6.7-22.6c-8.8-7.5-21.3-4.1-21.3-4.1s-2.3,15.1,6.6,22.7
		C31.6,57.1,43.5,54.1,44.5,54L44.5,54z"/>
	<path class="st0" d="M59.7,66.2c-0.4-6.5,2.2-12.2,6.4-15C72.7,46.7,81,50,81,50s0.4,10.6-6.3,15.1C68.4,69.4,60.4,66.4,59.7,66.2
		L59.7,66.2z"/>
	<line class="st1" x1="52.3" y1="35.2" x2="52.3" y2="91.4"/>
</g>
</svg>
