<svg xmlns="http://www.w3.org/2000/svg" viewBox="0 0 733.7 443.26"><defs><style>.cls-1{fill:#00325e;fill-rule:evenodd;}</style></defs><g id="Layer_2" data-name="Layer 2"><g id="Layer_1-2" data-name="Layer 1"><path class="cls-1" d="M640.41,332l90.13-26.42a4.14,4.14,0,0,0,3.16-4L733.64,4.09A4,4,0,0,0,731.5.53a3.87,3.87,0,0,0-4.07.11L566,102.73a4.1,4.1,0,0,0-1.9,4.8l3.82,11.87H549.17L475.61,60.45a4,4,0,0,0-2.78-1.09c-37.57,0-75.56.25-112.3.5s-74.67.5-112.17.5a4,4,0,0,0-3,1.35l-.3.3-61,58H165.62l4-12.48a4.12,4.12,0,0,0-1.89-4.81l-.24-.14L6.27.63A3.87,3.87,0,0,0,2.2.53,4,4,0,0,0,.06,4.09L0,301.6a4.09,4.09,0,0,0,3.16,4l.29.08L93.29,332a6.66,6.66,0,0,0,4.51-1.27,2.84,2.84,0,0,0,.29-.24v-.46l7.58-23.55h46l2,3.78c6,11.67,18.7,20.05,30.82,20.38l7.12.19-.32,7.12a37.54,37.54,0,0,0,12.8,29.43,33.37,33.37,0,0,0,27.72,8.29l7.42-1.27.73,7.49c1.06,10.9,7.77,21,18,27,9.64,5.67,20.58,6.56,30,2.44l7.56-3.3,2,8a36.5,36.5,0,0,0,25.85,26c11.56,3.18,22.93.26,31.2-8l16.19-16.37,4.62,7.8a27.87,27.87,0,0,0,25.83,14.2,38.62,38.62,0,0,0,32.34-20.37l3-5.83,6,2.62c10.26,4.46,20.53,4.32,28.93-.39,8.87-5,14.89-14.57,16.52-26.33l1.26-9.11,8.44,3.64c13.55,5.84,27.3,4.52,37.72-3.61,11.56-9,17.1-24.7,14.45-40.89l-1.1-6.74,6.72-1.26c12-2.27,22.36-12.13,26.92-25.74l1.6-4.77h42.2l9.4,29.2v.47l.28.23A6.69,6.69,0,0,0,640.41,332Zm-548.63-9L8.23,298.52V11.5L160.85,108Zm94-.72a26,26,0,0,1-10-2.07c-10.48-4.34-17.51-14.3-17.51-24.79a24.19,24.19,0,0,1,7-17l48.61-48.61a22.71,22.71,0,0,1,22.76-6.2,29.87,29.87,0,0,1,20.48,20.57,22.66,22.66,0,0,1-6.26,22.65l-48.58,48.59A23.19,23.19,0,0,1,185.8,322.33ZM226.93,368a27.65,27.65,0,0,1-19.21-8.42,28.08,28.08,0,0,1-8.31-16.9,22.63,22.63,0,0,1,6.92-18.71l48.61-48.61a22.72,22.72,0,0,1,22.75-6.19,29.85,29.85,0,0,1,20.49,20.57,22.66,22.66,0,0,1-6.26,22.65l-48.59,48.58A22.9,22.9,0,0,1,226.93,368ZM292,398.8a24.25,24.25,0,0,1-17,7.1c-6.66,0-13-2.79-18.42-8a27.32,27.32,0,0,1-8.32-16.8c-.69-7.22,1.81-14,7.23-19.72l.1-.1,38.7-38.73a22.57,22.57,0,0,1,22.57-6.2,29.9,29.9,0,0,1,20.64,20.5,22.72,22.72,0,0,1-6.21,22.75Zm75.85,10.38h0l-19.09,19a22.72,22.72,0,0,1-16.3,7,24.51,24.51,0,0,1-6.35-.86,29.85,29.85,0,0,1-20.52-20.47,22.68,22.68,0,0,1,6.21-22.65l19-19a22.63,22.63,0,0,1,18.71-6.92,29.2,29.2,0,0,1,25.21,25.21A22.62,22.62,0,0,1,367.85,409.18ZM575,301.89c-6.36,21.54-19.82,22-34.24,20.59l-.7-.07-.68-.21c-18.22-5.67-58.7-42.84-99.73-82.16L436.45,237c-2.46-2.34-4.59-.84-5.64.26s-2.45,3.31,0,5.68l5.5,5.26.69.67c24.68,23.67,76,72.9,98.55,80.73l2.81,1,1.25,2.71c6.55,14.23,3.17,30.93-8,39.7-12.14,9.5-29.29,7.3-45.85-5.92-31.38-25.09-61.16-52.92-83.6-74.36-2.45-2.35-4.58-.85-5.64.25s-2.44,3.3,0,5.66c30.22,28.88,55.24,51.26,78.74,70.45l.93.76.62,1c6.44,10.59,4.06,26.42-5.2,34.57-4.65,4.09-17.68,11.83-38.17-4.56l-18.05-14.94a3.73,3.73,0,0,0-3.17-1.08,4.62,4.62,0,0,0-2.53,1.61c-1,1.17-2.25,3.45.34,5.64,5.64,4.76,10.35,8.72,15.35,12.78l3.78,3.07-1.56,4.61c-3.66,10.8-15,18.94-26.32,18.94H401c-10.62-.15-18.76-6.9-22.35-18.51l-.87-2.84,1.43-2.6c5-9.14,4.95-20.19-.22-30.34-5.56-10.92-15.95-18.58-27.12-20l-7.49-.94,1.51-7.41c1.85-9-.67-18.85-6.91-27-6.45-8.44-16-13.85-25.6-14.47l-7.39-.48.89-7.34c1.12-9.27-2.07-19-8.75-26.77s-16-12.41-25.36-12.67l-7.12-.19.32-7.11c.66-15-8.36-29.26-22.44-35.46-12.49-5.5-25.74-3-35.43,6.7l-48.61,48.61A32.22,32.22,0,0,0,150.24,292l-.65,6.28H108.31L163,128.21l22.67,0a4,4,0,0,0,2.81-1.09L250,68.59h69.78l-16,12.51c-16,12.55-32.13,30-47.79,52l-.18.23c-6.68,8.42-8.4,15.62-5.29,22.06,7.58,15.7,41.78,25.72,62,25.72,16.69,0,24.7-10.36,33.18-21.33,5.55-7.16,10.35-13.35,16.89-13.35,15.69,0,59,2.88,73.21,3.83l2.78.19L576.13,298.06Zm7.23-9.28-138.81-149a4.13,4.13,0,0,0-2.64-1.27l-6.39-.61c-17.15-1.16-66.5-3.6-71.83-3.6-10.52,0-15.91,7-23.37,16.62-5.89,7.63-14,18.08-26.7,18.08-1.72,0-42.32-.2-51.5-17-2.09-3.84-3.52-10.07,1.56-18l.16-.24c16.07-22.47,47.95-61.24,81.29-69l.75-.13c25.16-3,59.08-2.22,89-1.53,12.64.3,24.54.58,35.23.58h2.46l73.77,59.09a4,4,0,0,0,2.51.89l22.83,0,53,165ZM572.86,108,725.48,11.5v287l-83.56,24.53Z"/></g></g></svg>