<svg xmlns="http://www.w3.org/2000/svg" viewBox="0 0 95.91 87.83"><defs><style>.cls-1,.cls-2,.cls-3{fill:none;stroke:#fff;}.cls-1,.cls-3{stroke-linecap:round;}.cls-1{stroke-linejoin:round;}.cls-2,.cls-3{stroke-miterlimit:10;}.cls-4{fill:#fff;}</style></defs><g id="Layer_2" data-name="Layer 2"><g id="Layer_1-2" data-name="Layer 1"><path class="cls-1" d="M46.45,10.81C48.26,3.42,55,.5,60,.5c5.28,0,6.62,4.14,8.25,4.14S79.17,8,79.17,8L67.8,8.55S66,10.68,64.15,10.68c-2.82,0-4.1-2.39-4.1,0,0,1.6,11.76,7.72,8.49,17.1a17.43,17.43,0,0,1-9,10.49"/><ellipse class="cls-2" cx="47.95" cy="78.27" rx="47.45" ry="9.06"/><path class="cls-3" d="M65.38,78.27c0,1.83-7.8,3.32-17.43,3.32S30.52,80.1,30.52,78.27"/><circle class="cls-4" cx="63.36" cy="4.4" r="0.93"/><path class="cls-3" d="M58.27,35.67s2.38,2.16.13,8.6"/><path class="cls-3" d="M56.4,38.1c.54,1.13,1.07,3.52-.42,7.77"/><path class="cls-3" d="M54.31,40.49a12.79,12.79,0,0,1-.86,6.33"/><path class="cls-1" d="M49.68,77.43V60.59a1.09,1.09,0,0,0,1.08-1.08V58.06A1.08,1.08,0,0,0,49.68,57V42.36A65.89,65.89,0,0,0,23.6,59.78c0-29.93,20.17-42.2,26.85-42.2s7.62,7.27,10.73,4.19c3.37-3.33-9.09-7.61-9.09-12.72"/><path class="cls-3" d="M50.45,22.58c-3.07,0-16,6.93-20.4,24.67a72.62,72.62,0,0,1,16.25-9"/><path class="cls-1" d="M46.29,77.52V60.69a1.09,1.09,0,0,0,1.09-1.09V58.16a1.09,1.09,0,0,0-1.09-1.09V43.74"/></g></g></svg>