<?xml version="1.0" encoding="utf-8"?>
<!-- Generator: Adobe Illustrator 25.2.3, SVG Export Plug-In . SVG Version: 6.00 Build 0)  -->
<svg version="1.1" id="Layer_1" xmlns="http://www.w3.org/2000/svg" xmlns:xlink="http://www.w3.org/1999/xlink" x="0px" y="0px"
	 viewBox="0 0 100 100" style="enable-background:new 0 0 100 100;" xml:space="preserve">
<style type="text/css">
	.st0{fill:#C1D82F;}
</style>
<path class="st0" d="M12.1,91.9l10.7,1H50v-1.6H25.1L24.7,89h6.9l-0.5-4.5l-7.2-0.2l-3.2-26.2H50v-1.6H18.9l3.6,29.3l7.2,0.2
	l0.1,1.4h-7.1l0.8,4h-0.7l-10.3-1c-2.7-1-4.5-2.6-5.3-4.8c-2.3-5.7,1.9-14.2,4.2-18.7c0.6-1.2,1-2.1,1.2-2.7c0.4-1.2,0.7-2.6,1-4.1
	c0.7-3.5,1.5-7.5,4.1-9.6c3.1-2.5,17.7-4.3,23.3-4.9c2.7,1.4,5.8,2.1,9,2.1s6.3-0.8,9-2.1c5.6,0.5,20.2,2.4,23.3,4.9
	c2.6,2.1,3.4,6.1,4.1,9.6c0.3,1.5,0.6,3,1,4.1c0.2,0.6,0.7,1.5,1.2,2.7c2.3,4.6,6.4,13,4.2,18.7c-0.9,2.2-2.6,3.8-5.3,4.8l-10.2,1
	h-0.8l0.8-4h-7.1l0.1-1.4l7.2-0.2l3.6-29.3H50v1.6h29.3l-3.2,26.2l-7.2,0.2L68.4,89h6.9l-0.5,2.4H50V93h27.3l10.4-1h0.2
	c3.2-1.2,5.3-3.1,6.3-5.7c2.5-6.3-1.9-15.2-4.2-20c-0.5-1.1-1-2-1.2-2.5c-0.4-1-0.6-2.4-0.9-3.9c-0.7-3.6-1.6-8.1-4.6-10.5
	c-3.3-2.7-16.5-4.4-22-5c5.4-3.7,9-9.9,9-16.9c0-11.2-9.1-20.3-20.3-20.3s-20.3,9.1-20.3,20.3c0,7,3.6,13.2,9,16.9
	c-5.4,0.6-18.7,2.3-22,5c-3,2.4-3.9,6.9-4.6,10.5c-0.3,1.5-0.6,2.9-0.9,3.9c-0.2,0.5-0.6,1.4-1.2,2.5c-2.4,4.8-6.8,13.7-4.2,20
	C6.8,88.8,8.9,90.7,12.1,91.9z M31.2,27.4C31.2,17,39.6,8.6,50,8.6S68.8,17,68.8,27.4S60.4,46.2,50,46.2S31.2,37.7,31.2,27.4z"/>
</svg>
