<svg xmlns="http://www.w3.org/2000/svg" viewBox="0 0 215.44 170.98"><defs><style>.cls-1{fill:none;stroke:#fff;stroke-linejoin:bevel;stroke-width:0.72px;}</style></defs><g id="Layer_2" data-name="Layer 2"><g id="Layer_1-2" data-name="Layer 1"><polygon class="cls-1" points="167.05 64.06 135.93 47.29 149.6 85.79 167.05 64.06"/><polygon class="cls-1" points="108.59 3.65 91.14 37.19 122.26 42.15 108.59 3.65"/><polygon class="cls-1" points="131.44 112.99 163.53 94.1 130.26 75.21 131.44 112.99"/><polygon class="cls-1" points="175.01 63.89 159.21 23.25 141.75 44.99 175.01 63.89"/><polygon class="cls-1" points="133.52 106.83 154.83 154.87 183.24 109.44 133.52 106.83"/><polygon class="cls-1" points="174.5 82.16 191.01 108.89 206.57 63.24 174.5 82.16"/><polygon class="cls-1" points="106.7 61.6 123.69 74.1 141.15 40.61 106.7 61.6"/><polygon class="cls-1" points="185.5 114.79 215.31 91.79 170.36 110.33 185.5 114.79"/><polygon class="cls-1" points="104.87 127.83 87.58 168.02 137.3 170.62 104.87 127.83"/><polygon class="cls-1" points="64.25 83.41 33.13 78.45 65.43 121.24 64.25 83.41"/><polygon class="cls-1" points="103.75 146.67 148.7 127.98 132.14 101.25 103.75 146.67"/><polygon class="cls-1" points="88.52 79.35 124.88 58.19 109.77 53.73 88.52 79.35"/><polygon class="cls-1" points="34.73 17.09 65.84 0.32 52.17 38.82 34.73 17.09"/><polygon class="cls-1" points="76.1 0.32 93.55 33.86 62.43 38.82 76.1 0.32"/><polygon class="cls-1" points="70.47 168.12 38.39 149.23 71.65 130.33 70.47 168.12"/><polygon class="cls-1" points="72.84 119.02 88.65 78.37 106.1 100.11 72.84 119.02"/><polygon class="cls-1" points="50.02 79.27 28.71 127.31 0.3 81.87 50.02 79.27"/><polygon class="cls-1" points="82.54 53.45 66.03 80.18 50.47 34.53 82.54 53.45"/><polygon class="cls-1" points="128.52 43.22 111.53 55.73 94.07 22.23 128.52 43.22"/><polygon class="cls-1" points="154.23 106.75 124.42 83.75 169.37 102.29 154.23 106.75"/><polygon class="cls-1" points="188.92 1.5 206.21 41.7 156.49 44.3 188.92 1.5"/><polygon class="cls-1" points="71.05 55.85 102.18 50.89 69.88 93.68 71.05 55.85"/><polygon class="cls-1" points="54.53 75.47 9.58 56.78 26.14 30.05 54.53 75.47"/><polygon class="cls-1" points="84.69 139.07 48.33 117.91 63.44 113.45 84.69 139.07"/></g></g></svg>