<svg xmlns="http://www.w3.org/2000/svg" viewBox="0 0 985.85 985.86"><defs><style>.cls-1{fill:#fff;}</style></defs><g id="Layer_2" data-name="Layer 2"><g id="Layer_1-2" data-name="Layer 1"><path class="cls-1" d="M985.79,145.25a141.66,141.66,0,0,0-1.23-19.42C974.41,52.82,913.63,0,839.87,0Q492.94,0,146,0a150.66,150.66,0,0,0-19.93,1.26A144.73,144.73,0,0,0,0,144.75Q0,492.95,0,841.13a140.13,140.13,0,0,0,4.62,36c17.22,65,74.09,108.67,141.35,108.68H492.93q173.48,0,346.94-.05a154.16,154.16,0,0,0,19.92-1.21,144.71,144.71,0,0,0,126-144Q985.88,492.95,985.79,145.25ZM43.3,641.57a16.33,16.33,0,1,1,15.94-16.44A16.25,16.25,0,0,1,43.3,641.57ZM43,588.74c-8.68,0-16.17-7.54-16.21-16.35A16.52,16.52,0,0,1,42.9,556,16.4,16.4,0,1,1,43,588.74Zm-.23-53A16.34,16.34,0,1,1,59.39,519.3,16.58,16.58,0,0,1,42.81,535.76ZM96.13,132.82a15.78,15.78,0,0,1,16,16.12,16.17,16.17,0,1,1-16-16.12Zm-.35,211.45a16.34,16.34,0,1,1-16,16.45A16.21,16.21,0,0,1,95.78,344.27Zm-16-89.47a16.17,16.17,0,1,1,32.33.21,16.17,16.17,0,0,1-32.33-.21ZM96.1,906a16.17,16.17,0,1,1,.06-32.33A16.17,16.17,0,0,1,96.1,906Zm.26-105.68a16.31,16.31,0,0,1-.46-32.62,16.31,16.31,0,0,1,.46,32.62Zm-.18-53a16.23,16.23,0,0,1-16.35-16.5,16.17,16.17,0,0,1,32.33.12A16.24,16.24,0,0,1,96.18,747.39Zm-.1-53a16.26,16.26,0,1,1,16.08-16.2A16.19,16.19,0,0,1,96.08,694.41Zm-.16-52.82a16.34,16.34,0,1,1,16.24-16.14A16.36,16.36,0,0,1,95.92,641.59ZM837.23,132.82c9,.07,15.88,7.12,15.81,16.31a16.17,16.17,0,1,1-15.81-16.31ZM853,413.76a16.29,16.29,0,0,1-16.22,16.15,16.49,16.49,0,0,1-16.12-16.34c0-9.1,7.7-16.75,16.55-16.45A16.38,16.38,0,0,1,853,413.76Zm-69-386.92A16.53,16.53,0,0,1,800.35,43a16.31,16.31,0,1,1-16.29-16.19Zm-.29,53a16.17,16.17,0,1,1,.21,32.33,16.17,16.17,0,0,1-.21-32.33Zm.11,105.68a16.31,16.31,0,1,1,0,32.62,16.38,16.38,0,0,1-16.15-16.28A16.58,16.58,0,0,1,783.88,185.51Zm.18,370.43a16.75,16.75,0,0,1,16.27,16.32c0,8.93-7.81,16.68-16.66,16.48a16.4,16.4,0,0,1,.39-32.8ZM767.73,255a16.29,16.29,0,1,1,16.36,16A16.22,16.22,0,0,1,767.73,255Zm-37-228.14a16.25,16.25,0,1,1,.36,32.49,16.25,16.25,0,0,1-.36-32.49Zm.41,158.67a16.64,16.64,0,0,1,16.2,16.33,16.43,16.43,0,0,1-16.17,16.29,16.21,16.21,0,0,1-16.33-16A16.4,16.4,0,0,1,731.19,185.51Zm-16.3-89.62a16,16,0,0,1,16.19-16.06,16.17,16.17,0,1,1-.27,32.33A15.94,15.94,0,0,1,714.89,95.89Zm16.05,195.56a16.26,16.26,0,1,1,0,32.51,16.26,16.26,0,0,1,0-32.51Zm.3,52.78c8.66,0,16.21,7.72,16.15,16.43A16.57,16.57,0,0,1,731.16,377a16.36,16.36,0,0,1,.08-32.72ZM678.18,26.84a16.26,16.26,0,1,1-16.28,16.1A16.25,16.25,0,0,1,678.18,26.84Zm-.24,53a16.21,16.21,0,0,1,16.47,16.36,16,16,0,0,1-16.29,16,16.17,16.17,0,0,1-.18-32.33Zm16.47,69.09a16.26,16.26,0,1,1-16.15-16.1A16,16,0,0,1,694.41,148.92ZM572.08,26.84a16.62,16.62,0,0,1,16.65,15.89c.31,8.73-7.51,16.66-16.43,16.66A16.61,16.61,0,0,1,556,43.21,16.5,16.5,0,0,1,572.08,26.84Zm-52.39,53a16.17,16.17,0,1,1-.35,32.33,16.17,16.17,0,1,1,.35-32.33Zm-53.09-53a16.28,16.28,0,0,1,0,32.55c-9,.06-16.68-7.69-16.46-16.57A16.47,16.47,0,0,1,466.6,26.84Zm16.16,69.31a16.12,16.12,0,0,1-16.29,16,16.17,16.17,0,1,1,16.29-16ZM413.47,26.84A16.48,16.48,0,0,1,429.89,42.9a16.6,16.6,0,0,1-16.53,16.49c-8.73-.1-16.29-7.72-16.24-16.35A16.6,16.6,0,0,1,413.47,26.84Zm-52.87,0A16.28,16.28,0,1,1,344.38,43,16.41,16.41,0,0,1,360.6,26.84Zm.21,53A16.17,16.17,0,1,1,344.29,96.2,16.29,16.29,0,0,1,360.81,79.83Zm-53.31-53a16.28,16.28,0,1,1-16.06,16.32A16.3,16.3,0,0,1,307.5,26.84ZM324,96.36a16.21,16.21,0,0,1-16.5,15.8,16,16,0,0,1-16-16.24,16.26,16.26,0,1,1,32.52.44ZM255,79.83a16.17,16.17,0,0,1-.09,32.33A16.17,16.17,0,1,1,255,79.83Zm16,228A16.12,16.12,0,0,1,254.8,324a16.26,16.26,0,1,1,.22-32.51A16.15,16.15,0,0,1,271,307.81Zm-16.19-122.3a16.31,16.31,0,1,1-16.31,16.22A16.64,16.64,0,0,1,254.77,185.51ZM202,26.84a16.25,16.25,0,1,1-16.51,16A16.34,16.34,0,0,1,202,26.84Zm-.3,53A16.17,16.17,0,1,1,185.5,96,16.2,16.2,0,0,1,201.71,79.83Zm16.42,69.29a16.32,16.32,0,1,1-16-16.3A16.26,16.26,0,0,1,218.13,149.12Zm-69.08,301a16.34,16.34,0,0,1,0,32.67,16.12,16.12,0,0,1-16.25-16.55A16.34,16.34,0,0,1,149.05,450.1Zm-16.24-37.24a16.18,16.18,0,1,1,15.81,17.06A16.4,16.4,0,0,1,132.81,412.86ZM149,344.27a16.34,16.34,0,1,1-16.23,16.12A16.15,16.15,0,0,1,149,344.27Zm-.26,158.82a16.34,16.34,0,1,1-16,16.34A16.08,16.08,0,0,1,148.78,503.09Zm16.36,122.42a16.42,16.42,0,0,1-16.36,16.06,16.33,16.33,0,1,1,16.36-16.06ZM148.8,853a15.76,15.76,0,0,1-16-16.13,16.17,16.17,0,1,1,16,16.13ZM202,906a16.17,16.17,0,1,1-.07-32.33A16.17,16.17,0,0,1,202,906Zm-.45-53a16.22,16.22,0,0,1-16.05-16.29,16.31,16.31,0,1,1,32.61.58A16.12,16.12,0,0,1,201.56,853Zm53.23,53A16.17,16.17,0,1,1,255,873.7a16.17,16.17,0,0,1-.21,32.33Zm-.12-53A16.17,16.17,0,1,1,271,837.14,16,16,0,0,1,254.67,853Zm52.85,106A16.28,16.28,0,1,1,324,943.07,16.27,16.27,0,0,1,307.52,959Zm.2-106a16,16,0,0,1-16.28-16,16.26,16.26,0,1,1,16.28,16ZM324,890.22a16.26,16.26,0,1,1-15.76-16.52A16.24,16.24,0,0,1,324,890.22ZM360.71,959a16.27,16.27,0,1,1,16.23-16.21A16.42,16.42,0,0,1,360.71,959Zm-16.28-69.27a15.94,15.94,0,0,1,16.67-16,16.17,16.17,0,1,1-.71,32.33A16,16,0,0,1,344.43,889.75Zm69,69.27c-8.82-.08-16.34-7.6-16.27-16.27A16.4,16.4,0,1,1,413.39,959ZM397.12,890A16.37,16.37,0,1,1,413.52,906,16.37,16.37,0,0,1,397.12,890ZM465.94,906a16.17,16.17,0,1,1,.79-32.33,16.17,16.17,0,0,1,16,16.27A16.35,16.35,0,0,1,465.94,906Zm53.53,53a16.26,16.26,0,1,1,16.28-16.2A16.39,16.39,0,0,1,519.47,959Zm105.74,0a16.28,16.28,0,1,1,16.34-16.12A16.4,16.4,0,0,1,625.21,959Zm-.42-106a16.17,16.17,0,1,1,16.63-15.56A15.92,15.92,0,0,1,624.79,853Zm16.63,36.76a16,16,0,0,1-16,16.23,16.17,16.17,0,1,1-.1-32.33A15.91,15.91,0,0,1,641.42,889.8ZM678.09,959A16.27,16.27,0,1,1,694.41,943,16.3,16.3,0,0,1,678.09,959ZM661.9,889.7a16.26,16.26,0,1,1,16,16.33A16.19,16.19,0,0,1,661.9,889.7ZM731,906a16.17,16.17,0,0,1-.2-32.33A16.17,16.17,0,1,1,731,906Zm15.52-178.94c-3,8.69-3.93,17.84-6.41,26.64-2.18,7.78-2.42,8.22-10.56,6.87-10.67-1.76-21.26-3.88-32-5-36.5-3.79-70,3-99.78,25.74-16.35,12.51-33.15,24.79-52.46,32.44-44.08,17.46-86.59,14-126.78-11.63-15.15-9.64-29.76-20.12-44.77-30-18.81-12.35-39.85-16.77-62.07-17.38-19.15-.52-37.76,2.71-56.41,6.35-7.41,1.44-7.54,1.12-9.38-6.37-2-8.22-3.86-16.51-6-24.72-2.66-10.43-8.93-16.34-20.16-17.51a243.69,243.69,0,0,1-57.58-13.72c-7.72-2.79-15.05-6.35-20.53-12.76-1.7-2-2.84-3.67,1.36-4.49,56.72-11,98.27-44.2,131.13-90A250.78,250.78,0,0,0,299.23,548c12.41-27.57,4.91-48.45-22-62.19-10.11-5.17-21-8.23-31.6-12-7.85-2.77-15.54-5.92-22.35-10.83a36.33,36.33,0,0,1-6-5.18c-4-4.54-3.92-9.35.79-13,7.58-5.93,15.74-8.8,25.45-4.36,14.37,6.56,29.28,11,45.41,8.57A38.32,38.32,0,0,0,306,442.45a10.9,10.9,0,0,0,5-10.59c-1.43-19.07-3-38.14-3.7-57.24-1-29.78-3-59.9,5.22-88.91,11.2-39.63,35.58-70.33,69.62-93.12,30.52-20.45,64.75-29.44,101.25-30.63,29.55-1,58.55,1.8,86.2,13,51.14,20.76,86.5,56.69,103.61,109.56,4.9,15.13,5.71,31,5.81,46.89.08,10.83,0,21.66,0,35.74-1.18,18.68-2.45,40.6-4,62.5-.59,8.37.67,11.31,8.25,15.11,11.3,5.67,23.07,5.57,35,2.69a117.7,117.7,0,0,0,20.15-7.14c9.88-4.38,19.2-3,27.78,3.24,6,4.37,6.39,9.25,1.53,14.8-5.3,6-12.25,9.58-19.53,12.57-12.44,5.1-25.74,7.88-37.88,13.82-1.19.59-2.41,1.12-3.57,1.74-25.19,13.59-32.71,32.63-21,58.72,25.71,57.41,64.82,102.19,124.14,126.94a150.51,150.51,0,0,0,32.52,9.32c4.3.74,3.66,2.24,1.67,4.6-3.73,4.41-8.64,7.25-13.73,9.76-14.92,7.36-31.12,10.52-47.2,14-6.33,1.35-12.78,2.17-19.2,3C755.21,714,749.47,718.63,746.56,727.09Zm37.63,73.26a16.62,16.62,0,0,1-16.46-16,16.28,16.28,0,1,1,32.55-.37A16.6,16.6,0,0,1,784.19,800.35ZM836.6,853a16,16,0,0,1-15.89-16.31,16.17,16.17,0,1,1,32.33.63C852.87,846.42,845.82,853.16,836.6,853Zm.17-211.45a16.34,16.34,0,0,1,.52-32.68,16.35,16.35,0,0,1-.52,32.68Zm.38-158.82A16.34,16.34,0,1,1,853,466.35,16.13,16.13,0,0,1,837.15,482.77Zm106-297.26a16.31,16.31,0,0,1-.45,32.62,16.31,16.31,0,1,1,.45-32.62Zm15.9,69A16.22,16.22,0,0,1,943.11,271a16,16,0,0,1-16.5-16.23,16.2,16.2,0,0,1,32.4-.19ZM890.12,79.83a16.17,16.17,0,0,1-.32,32.33,15.82,15.82,0,0,1-16.11-16A16,16,0,0,1,890.12,79.83Zm0,105.67a16.32,16.32,0,0,1-.33,32.63,16.32,16.32,0,0,1,.33-32.63Zm-16.44-37c.18-9,7.29-15.79,16.49-15.65A15.88,15.88,0,0,1,906,149.15a16.17,16.17,0,1,1-32.34-.68Zm16.15,354.62a16.34,16.34,0,1,1-16.15,16.16A16.11,16.11,0,0,1,889.84,503.09ZM890,556a16.4,16.4,0,1,1-16.28,16.11A16.33,16.33,0,0,1,890,556Zm16,175a16.17,16.17,0,1,1-32.33.45A16.17,16.17,0,1,1,906,731ZM890,906a16,16,0,0,1-16.34-15.89,16.17,16.17,0,1,1,32.34-.35A16.07,16.07,0,0,1,890,906Zm-.12-53a15.78,15.78,0,0,1-16.22-15.91A16.17,16.17,0,1,1,889.91,853ZM889.78,324A16.26,16.26,0,1,1,906,307.88,16.16,16.16,0,0,1,889.78,324ZM943,291.45a16.26,16.26,0,1,1-16.52,16.38A16.25,16.25,0,0,1,943,291.45Zm-.25,508.9A16.31,16.31,0,1,1,959,784.13,16.59,16.59,0,0,1,942.75,800.35Zm.11-264.59A16.34,16.34,0,1,1,959,519.43,16.52,16.52,0,0,1,942.86,535.76Z"/></g></g></svg>