<?xml version="1.0" encoding="utf-8"?>
<!-- Generator: Adobe Illustrator 25.2.3, SVG Export Plug-In . SVG Version: 6.00 Build 0)  -->
<svg version="1.1" id="Layer_1" xmlns="http://www.w3.org/2000/svg" xmlns:xlink="http://www.w3.org/1999/xlink" x="0px" y="0px"
	 viewBox="0 0 100.8 100.8" style="enable-background:new 0 0 100.8 100.8;" xml:space="preserve">
<style type="text/css">
	.st0{fill:#00325E;}
</style>
<path id="book-15" class="st0" d="M50.4,25.3C40.3,19,24.9,16.5,9.2,16v60.9c13.5,0.4,26.8,2.3,36.7,6.9c2.9,1.3,6.2,1.3,9.2,0
	c9.9-4.5,23.1-6.4,36.7-6.9V16C75.9,16.5,60.5,19,50.4,25.3z M16,70.4V23.3c17.7,1.3,25.9,5,30.9,8v45.3
	C41.7,74.7,30.8,71.4,16,70.4z M84.8,70.4c-14.7,1-25.7,4.3-30.9,6.2V31.3c5-3,13.2-6.7,30.9-8V70.4z"/>
</svg>
