<?xml version="1.0" encoding="utf-8"?>
<!-- Generator: Adobe Illustrator 25.2.3, SVG Export Plug-In . SVG Version: 6.00 Build 0)  -->
<svg version="1.1" id="Layer_1" xmlns="http://www.w3.org/2000/svg" xmlns:xlink="http://www.w3.org/1999/xlink" x="0px" y="0px"
	 viewBox="0 0 100 100" style="enable-background:new 0 0 100 100;" xml:space="preserve">
<style type="text/css">
	.st0{fill:#C1D82F;}
</style>
<path class="st0" d="M85.1,54.9c0-14.3-8.6-26.6-20.9-32.1l1.6-4.5l8.5,3l0.3-0.7c1.3-3.7,0.3-7.9-2.6-10.5l0,0
	c0.7-2-0.3-4.2-2.3-4.9C69.3,5,68.8,5,68.4,5c-1.6,0-3.1,1-3.6,2.6l0,0c-3.9,0.2-7.4,2.8-8.7,6.5l-0.3,0.7l8.5,3.1l-1.6,4.4
	c-4-1.5-8.3-2.4-12.7-2.4c-4.5,0-8.8,0.9-12.8,2.4l-1.6-4.4l8.5-3.1L43.9,14c-1.3-3.7-4.8-6.3-8.7-6.5l0,0c-0.5-1.5-2-2.6-3.6-2.6
	c-0.4,0-0.9,0.1-1.3,0.2c-2,0.7-3,2.9-2.3,4.9l0,0c-2.9,2.7-3.9,6.8-2.6,10.5l0.3,0.7l8.5-3l1.6,4.5c-12.3,5.5-20.9,17.8-20.9,32.1
	c0,15.7,10.4,29.1,24.7,33.5H25.9v6.6h48.2v-6.6H60.4C74.7,84,85.1,70.7,85.1,54.9z M69.2,6.6C70.2,7,70.8,8,70.7,9
	c-0.1,0-0.2,0-0.2,0c-0.2-0.1-0.4-0.3-0.7-0.4c-0.1,0-0.2-0.1-0.3-0.1c-0.3-0.1-0.6-0.3-0.9-0.4c-0.3-0.1-0.6-0.2-1-0.3
	c-0.1,0-0.2,0-0.3-0.1c-0.2,0-0.5-0.1-0.7-0.1c-0.1,0-0.1,0-0.2,0C67,6.7,68.2,6.3,69.2,6.6z M57.8,13.8c1.3-2.9,4.3-4.8,7.5-4.8
	c0.9,0,1.9,0.2,2.8,0.5c0.4,0.2,0.9,0.4,1.3,0.6c0.4,0.2,0.8,0.5,1.2,0.8c2.5,2,3.6,5.4,2.8,8.5L57.8,13.8z M30.8,6.6
	c0.2-0.1,0.5-0.1,0.8-0.1c0.8,0,1.5,0.4,1.9,1c-0.1,0-0.1,0-0.2,0c-0.2,0-0.5,0.1-0.7,0.1c-0.1,0-0.2,0-0.3,0.1
	c-0.3,0.1-0.7,0.2-1,0.3s-0.6,0.2-0.9,0.4c-0.1,0-0.2,0.1-0.3,0.1c-0.2,0.1-0.4,0.2-0.7,0.4c-0.1,0-0.1,0.1-0.2,0.1
	C29.2,8,29.8,7,30.8,6.6z M26.6,19.4c-0.8-3.1,0.3-6.4,2.8-8.5c0.7-0.6,1.6-1.1,2.4-1.4C32.7,9.2,33.6,9,34.6,9l0,0l0,0
	c3.2,0,6.1,1.9,7.5,4.8L26.6,19.4z M72.5,90v3.5h-45V90H50H72.5z M50.8,88.5v-2.8h-1.6v2.8C31.3,88,16.9,73.6,16.5,55.7h2.8v-1.6
	h-2.8c0.4-17.9,14.9-32.3,32.7-32.7v2.8h1.6v-2.8c17.9,0.4,32.3,14.9,32.7,32.7h-2.8v1.6h2.8C83.1,73.6,68.7,88,50.8,88.5z"/>
<path class="st0" d="M50.8,49.1V28.4h-1.6v20.8c-2.9,0.4-5.1,2.8-5.1,5.8c0,1.9,1,3.7,2.4,4.7l-6.1,9.1l1.3,0.9l6.2-9.2
	c0.7,0.2,1.4,0.4,2.1,0.4c3.2,0,5.9-2.6,5.9-5.9C55.9,52,53.7,49.5,50.8,49.1z M50,59.3c-2.4,0-4.3-1.9-4.3-4.3s1.9-4.3,4.3-4.3
	c2.4,0,4.3,1.9,4.3,4.3S52.4,59.3,50,59.3z"/>
</svg>
