<svg xmlns="http://www.w3.org/2000/svg" viewBox="0 0 165.09 149.04"><defs><style>.cls-1{fill:none;stroke:#fff;stroke-linejoin:bevel;stroke-width:0.72px;}</style></defs><g id="Layer_2" data-name="Layer 2"><g id="Layer_1-2" data-name="Layer 1"><path class="cls-1" d="M82.67,148.73,46,127.32l15.23-4.52ZM61.25,122.8,16,104,32.7,77.14ZM33.89,39.08l31.41-5L32.7,77.14Zm31.41-5L82.67,74.52l-50,2.62ZM46,127.32,16,104,61.25,122.8ZM82.43,21.48,65.3,34.09,47.69.32ZM32.7,77.14,16,104,.34,58.11Zm50-2.62L61.25,122.8,32.7,77.14ZM.34,58.11,16.28,17.2,33.89,39.08Zm32.36,19L.34,58.11l33.55-19ZM47.69.32,65.3,34.09l-31.41,5ZM16.28,17.2,47.69.32,33.89,39.08ZM82.43,148.73l36.64-21.41-15.23-4.52Zm21.41-25.93L149.05,104,132.4,77.14Zm27.37-83.72-31.41-5,32.6,43.05Zm-31.41-5L82.43,74.52l50,2.62Zm19.27,93.23,30-23.31L103.84,122.8ZM82.67,21.48,99.8,34.09,117.41.32ZM132.4,77.14,149.05,104l15.71-45.9Zm-50-2.62,21.41,48.28L132.4,77.14Zm82.33-16.41L148.81,17.2l-17.6,21.88Zm-32.36,19,32.36-19-33.55-19ZM117.41.32,99.8,34.09l31.41,5Zm31.4,16.88L117.41.32l13.8,38.76Z"/></g></g></svg>