<svg xmlns="http://www.w3.org/2000/svg" viewBox="0 0 288.16 446.05"><defs><style>.cls-1,.cls-2{fill:none;stroke-miterlimit:10;stroke-width:2px;}.cls-1{stroke:#fff;}.cls-2{stroke:#ffc425;stroke-linecap:round;}</style></defs><g id="Layer_2" data-name="Layer 2"><g id="Layer_1-2" data-name="Layer 1"><path class="cls-1" d="M197.75,98.82C186.29,79.5,144.06,1.05,144.06,1.05h0s-44.71,82.6-57.8,104.68C38,186.89,1,252.51,1,296.71,1,378.5,65.22,445.05,144.17,445.05c38.22,0,74.13-15.47,101.1-43.53s41.89-65.2,41.89-104.81c0-44.16-37-109.78-85.27-190.9Z"/><path class="cls-2" d="M197.88,391.63a57,57,0,0,0,1.1-11.16c0-30.83-24.58-55.81-54.9-55.81s-54.89,25-54.89,55.81a56.46,56.46,0,0,0,2,14.87m121.51,11.17a75.3,75.3,0,0,0,4.61-26c0-41.1-32.77-74.42-73.2-74.42s-73.19,33.32-73.19,74.42a75.42,75.42,0,0,0,4.61,26.06"/><line class="cls-2" x1="39.09" y1="381.67" x2="61.35" y2="381.67"/><line class="cls-2" x1="226.82" y1="381.67" x2="249.08" y2="381.67"/><line class="cls-2" x1="144.08" y1="296.97" x2="144.08" y2="274.25"/><line class="cls-2" x1="202.5" y1="321.81" x2="223.81" y2="300.06"/><line class="cls-2" x1="85.67" y1="321.81" x2="64.36" y2="300.06"/><line class="cls-2" x1="176.23" y1="303.72" x2="181.06" y2="292.94"/><line class="cls-2" x1="113.28" y1="303.15" x2="108.62" y2="292.3"/><line class="cls-2" x1="67.95" y1="348.64" x2="57.38" y2="343.73"/><line class="cls-2" x1="231.41" y1="345.27" x2="220.77" y2="350.01"/></g></g></svg>