<svg xmlns="http://www.w3.org/2000/svg" viewBox="0 0 192.07 188.12"><defs><style>.cls-1{fill:none;stroke:#00325e;stroke-miterlimit:10;stroke-width:2.5px;fill-rule:evenodd;}</style></defs><g id="Layer_2" data-name="Layer 2"><g id="Layer_1-2" data-name="Layer 1"><path class="cls-1" d="M31.66,138.05a12.28,12.28,0,0,0-.89,10L5.63,104.83c-2.84-4.18-2.09-6.88-.45-9.42L18.05,73.27,4.59,65.34H47.82l22,37.7L56.35,95.26,31.66,138.05Z"/><path class="cls-1" d="M55,167.52c-19.3-2-23-21.7-19.75-27.83l9.28-16H92.4v44H55.9l-.9-.15Z"/><path class="cls-1" d="M174.68,123.83a12.53,12.53,0,0,0,9.12-4.19L159,162.88c-2.1,4.64-4.94,5.38-7.93,5.09H125.46l-.15,15.55-21.54-37.4,21.69-37.84v15.55Z"/><path class="cls-1" d="M188.59,88.83c7.93,17.65-7.33,30.81-14.21,31H155.83L132,78.36l38-22,18.25,31.56.3.9Z"/><path class="cls-1" d="M90.75,7.15a11.91,11.91,0,0,0-8.07-5.69l49.66-.15c5.09-.45,7.18,1.5,8.53,4.34l12.71,22.14L167.05,20,145.51,57.56,102,57.71l13.32-7.78L90.75,7.15Z"/><path class="cls-1" d="M53.5,12.68C64.87-3,83.87,3.56,87.46,9.54l9.28,16L72.8,67l-38-22L53.05,13.43l.45-.75Z"/></g></g></svg>