<svg xmlns="http://www.w3.org/2000/svg" viewBox="0 0 98.77 91.67"><defs><style>.cls-1,.cls-2{fill:none;stroke:#fff;stroke-linecap:round;stroke-linejoin:round;}.cls-2{fill-rule:evenodd;}</style></defs><g id="Layer_2" data-name="Layer 2"><g id="Layer_1-2" data-name="Layer 1"><line class="cls-1" x1="10.5" y1="51.07" x2="41.03" y2="51.07"/><line class="cls-1" x1="5.31" y1="57.07" x2="30.84" y2="57.07"/><line class="cls-1" x1="67.74" y1="69.32" x2="88.27" y2="69.32"/><path class="cls-1" d="M31.94,90.87s-5.23-4.21-5.23-13.29c0-17.42,30.16-18.5,30.16-27.22,0-3.42-3.52-5.29-3.52-5.29H.5"/><path class="cls-1" d="M72.07,90.87C72.07,81,51,77.66,51,68.58c0-8.75,13.13-8,13.13-16.76,0-3.42-5.28-6.75-5.28-6.75H98.27"/><path class="cls-1" d="M43.06,63.42c-3,1.43-6.88,3.4-9.57,6a10.79,10.79,0,0,0-3.78,8.2"/><path class="cls-1" d="M68.07,90.87c0-.67-.21-1.77-2-3.46a43.58,43.58,0,0,0-6.59-4.58l-.34-.2a53.72,53.72,0,0,1-7.47-5.13"/><path class="cls-1" d="M64.08,91.17a5.77,5.77,0,0,0-.77-.84,40.19,40.19,0,0,0-5.91-4.07l-.35-.21"/><path class="cls-1" d="M60.64,55.51a5,5,0,0,0,1.5-3.69,2.91,2.91,0,0,0-.52-1.44,10.17,10.17,0,0,0-1.5-1.77"/><path class="cls-2" d="M24.07,44.63V40.15A3.5,3.5,0,0,1,22.29,39a4.48,4.48,0,0,1-1.72.35,4.38,4.38,0,0,1-3-7.54,3.09,3.09,0,0,1-.48-1.65A3.06,3.06,0,0,1,20,27.15a5.24,5.24,0,0,1,9.89,0,3.05,3.05,0,0,1,2.92,3.05,3,3,0,0,1-.48,1.65,4.37,4.37,0,0,1-3,7.54A4.48,4.48,0,0,1,27.6,39a3.54,3.54,0,0,1-1.78,1.11v4.48h0"/><path class="cls-2" d="M73,44.63V40.15A3.53,3.53,0,0,1,71.17,39a4.37,4.37,0,0,1-4.73-7.19A3.09,3.09,0,0,1,66,30.2a3.06,3.06,0,0,1,2.92-3.05,5.25,5.25,0,0,1,9.9,0A3.06,3.06,0,0,1,81.7,30.2a3.09,3.09,0,0,1-.48,1.65A4.37,4.37,0,0,1,76.49,39a3.53,3.53,0,0,1-1.79,1.11v4.48h0"/><path id="weather-102" class="cls-1" d="M.5,30.47,39.2.5,61,17.38l8.78-5.82L98.27,30.47M39.43,7.76,25.19,19l10.19-3.19,4.07,2,3.91-2.09,10.29,3.59h.05Z"/></g></g></svg>