<svg xmlns="http://www.w3.org/2000/svg" viewBox="0 0 79.12 79.12"><defs><style>.cls-1{fill:none;stroke:#fff;stroke-linecap:round;stroke-linejoin:round;}</style></defs><g id="Layer_2" data-name="Layer 2"><g id="Layer_1-2" data-name="Layer 1"><path id="weather-48" class="cls-1" d="M78.62,48.1,67.15,51.3,77.32,57l-3.2,5.67L64,57l3.2,11.47-6.27,1.74-5-17.73L42.81,45.12V57.74l13,13-4.6,4.6L42.81,67V78.62H36.3V67l-8.41,8.41-4.61-4.6,13-13V45.12L23.19,52.45l-5,17.73L12,68.44,15.17,57,5,62.71,1.8,57,12,51.3.5,48.1l1.75-6.26L20,46.78l12.9-7.22L20,32.34,2.25,37.28.5,31,12,27.82,1.8,22.08,5,16.41l10.18,5.74L12,10.68l6.27-1.75,4.94,17.74L36.3,34V21.38l-13-13,4.61-4.61,8.41,8.42V.5h6.51V12.17l8.42-8.42,4.6,4.61-13,13V34l13.13-7.34L60.88,8.93l6.27,1.75L64,22.15l10.17-5.74,3.2,5.67L67.15,27.82,78.62,31l-1.75,6.26L59.13,32.34l-12.9,7.22,12.9,7.22,17.74-4.94Z"/></g></g></svg>