<svg xmlns="http://www.w3.org/2000/svg" viewBox="0 0 95.26 85.88"><defs><style>.cls-1,.cls-2{fill:none;stroke:#fff;stroke-linecap:round;stroke-linejoin:round;}.cls-2{fill-rule:evenodd;}</style></defs><g id="Layer_2" data-name="Layer 2"><g id="Layer_1-2" data-name="Layer 1"><path class="cls-1" d="M35.31,4.4a2.25,2.25,0,0,0-2.19-1.78h-1a2.24,2.24,0,0,0-2.24,2.23,2.24,2.24,0,0,0-2.23-2.23h-1A2.25,2.25,0,0,0,24.53,4.4"/><path class="cls-1" d="M50.53,11.71A3.36,3.36,0,0,0,47.25,9H45.8a3.36,3.36,0,0,0-3.35,3.35A3.36,3.36,0,0,0,39.1,9H37.65a3.36,3.36,0,0,0-3.28,2.67"/><path class="cls-1" d="M65.06,2.29A2.24,2.24,0,0,0,62.87.5h-1a2.25,2.25,0,0,0-2.24,2.24A2.24,2.24,0,0,0,57.44.5h-1a2.24,2.24,0,0,0-2.18,1.78"/><path class="cls-1" d="M86.71,69.75a8.08,8.08,0,0,0,8.05-8.1V58.16a8.12,8.12,0,0,0-8.1-8.1H54.24a2.47,2.47,0,0,1-2.43-2.57V45.62a4.29,4.29,0,0,0-4.27-4.28H18.46a4.29,4.29,0,0,0-4.27,4.28v1.84a4.28,4.28,0,0,0,4.27,4.27H20a2.68,2.68,0,0,1,2.68,2.68v1.35A2.68,2.68,0,0,1,20,58.45H4.77A4.28,4.28,0,0,0,.5,62.72v1.84a4.28,4.28,0,0,0,4.27,4.27H22.63a3.46,3.46,0,0,1,3.47,3.46v5a8.12,8.12,0,0,0,8.09,8.1H73.3a8.12,8.12,0,0,0,8.1-8.1V73.79C81.4,70.76,83.12,69.74,86.71,69.75Z"/><path class="cls-1" d="M21.84,77.28V73.09H4.77"/><path class="cls-1" d="M90.5,58.16a3.84,3.84,0,0,0-3.84-3.84H54.24"/><line class="cls-1" x1="76.01" y1="58.59" x2="64.88" y2="58.59"/><polygon class="cls-2" points="79.61 44.99 76.67 44.99 76.67 37.64 66.38 37.64 72.26 28.82 67.85 28.82 73.73 20 70.79 20 78.14 9.71 85.49 20 82.55 20 88.44 28.82 84.02 28.82 89.91 37.64 79.61 37.64 79.61 44.99 79.61 44.99"/><polygon class="cls-2" points="56.56 37.88 54.8 37.88 54.8 33.47 48.63 33.47 52.15 28.19 49.51 28.19 53.03 22.91 51.27 22.91 55.67 16.74 60.08 22.91 58.32 22.91 61.84 28.19 59.2 28.19 62.72 33.47 56.56 33.47 56.56 37.88 56.56 37.88"/><polygon class="cls-2" points="18.91 37.88 16.68 37.88 16.68 32.31 8.9 32.31 13.35 25.64 10.01 25.64 14.46 18.96 12.23 18.96 17.8 11.18 23.36 18.96 21.13 18.96 25.58 25.64 22.25 25.64 26.7 32.31 18.91 32.31 18.91 37.88 18.91 37.88"/></g></g></svg>