<?xml version="1.0" encoding="utf-8"?>
<!-- Generator: Adobe Illustrator 25.2.3, SVG Export Plug-In . SVG Version: 6.00 Build 0)  -->
<svg version="1.1" id="Layer_1" xmlns="http://www.w3.org/2000/svg" xmlns:xlink="http://www.w3.org/1999/xlink" x="0px" y="0px"
	 viewBox="0 0 100.8 100.8" style="enable-background:new 0 0 100.8 100.8;" xml:space="preserve">
<style type="text/css">
	.st0{fill:#00325E;}
</style>
<path id="paintbrush-8" class="st0" d="M17.3,17.3C25,20.6,41.3,20,40.2,34.9l-5.9,6C19.6,41.2,19.9,25.5,17.3,17.3z M47.3,59.8
	c7.5,5.6,32.6,23.3,32.6,23.3c2.1,1.4,4.6-1.1,3.1-3.2c0,0-18.2-24.7-24-32c-4.6-5.8-6.9-6-15-8.4l-5.4,5.5
	C41.2,53,41.4,55.3,47.3,59.8z M33.9,69l7.2-7.2c-0.7-0.7-1.3-1.3-1.9-2L31.9,67L33.9,69z M56.6,38.2l13.2-13.3l5.9,5.9l-12.9,13
	c1.2,1.4,2.2,2.8,3.4,4.4L83.5,31L69.8,17.3L51.3,35.9C53.3,36.5,55,37.2,56.6,38.2z M69.9,28.9L59,39.9c0.7,0.5,1.3,1.2,2,1.9
	l10.9-10.9L69.9,28.9z M43.2,63.5l-9.9,9.9l-8.2,2.3l2.3-8.2l10.1-10.2c-1-1.6-1.7-3.3-2.4-5.2L22.4,64.9l-5,18.6L36,78.5l11.6-11.7
	C44.9,64.9,44.8,64.8,43.2,63.5z"/>
</svg>
