<svg xmlns="http://www.w3.org/2000/svg" viewBox="0 0 91.23 84.99"><defs><style>.cls-1{fill:none;stroke:#fff;stroke-linecap:round;stroke-miterlimit:10;}</style></defs><g id="Layer_2" data-name="Layer 2"><g id="Layer_1-2" data-name="Layer 1"><path class="cls-1" d="M90.55,60.59A16,16,0,0,0,71.46,42.54,16,16,0,0,0,42,40.79a15.75,15.75,0,0,0-4.08-.55,16.05,16.05,0,0,0-13.57,7.49,16.25,16.25,0,0,0-3.59-.41A16,16,0,0,0,5,60.59Z"/><path class="cls-1" d="M50.6,33A18.13,18.13,0,1,0,17.71,47.61"/><line class="cls-1" x1="33.28" y1="15.33" x2="33.28" y2="0.5"/><line class="cls-1" x1="13.34" y1="26.84" x2="0.5" y2="19.42"/><line class="cls-1" x1="53.21" y1="26.84" x2="66.05" y2="19.42"/><line class="cls-1" x1="21.77" y1="18.41" x2="18.06" y2="11.99"/><line class="cls-1" x1="43.05" y1="73.54" x2="46.75" y2="67.12"/><line class="cls-1" x1="14.5" y1="73.54" x2="18.21" y2="67.12"/><line class="cls-1" x1="71.59" y1="73.54" x2="75.3" y2="67.12"/><line class="cls-1" x1="24.77" y1="84.49" x2="28.48" y2="78.07"/><line class="cls-1" x1="53.32" y1="84.49" x2="57.03" y2="78.07"/><line class="cls-1" x1="10.26" y1="38.35" x2="2.84" y2="38.35"/><line class="cls-1" x1="44.78" y1="18.41" x2="48.49" y2="11.99"/></g></g></svg>