<?xml version="1.0" encoding="utf-8"?>
<!-- Generator: Adobe Illustrator 25.2.3, SVG Export Plug-In . SVG Version: 6.00 Build 0)  -->
<svg version="1.1" id="Layer_1" xmlns="http://www.w3.org/2000/svg" xmlns:xlink="http://www.w3.org/1999/xlink" x="0px" y="0px"
	 viewBox="0 0 100.8 100.8" style="enable-background:new 0 0 100.8 100.8;" xml:space="preserve">
<style type="text/css">
	.st0{fill:#00325E;}
</style>
<g>
	<polygon class="st0" points="42.6,70.5 44.9,70.5 45.3,67.6 43,67.6 	"/>
	<path class="st0" d="M72,58.8c0-0.6-0.1-1.1-0.2-1.6c-0.5-1.5-1.7-2.7-3.3-3.2c-0.4-0.1-0.9-0.2-1.3-0.2c-1.1,0-2-0.8-2.2-1.9
		c-0.2-1.6-0.9-3.6-3.3-4.1c-1-0.2-1.6-0.3-2.3-0.1c-0.8,0.2-1.7-0.2-2-1c-1.1-2.2-3.5-3.8-6.1-3.8h0c-2.6,0-4.9,1.5-6.1,3.6V15.2
		c0-3.8-3.1-6.9-6.9-6.9s-6.9,3.1-6.9,6.9V52c0,3.1-0.4,6.3-1.3,9.3c-0.8,2.5-1.2,5.3-1.2,8.2c0,3.5,0.6,6.8,1.7,9.7
		c0.5,1.4,0.8,2.9,0.8,4.4v8.9h36.7v-5.8c0-2.3,0.6-4.6,1.6-6.7c1.5-2.9,1.9-3.8,2.3-9.7C72.3,64.5,72,58.8,72,58.8z M52.2,67.6H49
		l-0.3,2.9h2.8V74h-3.3l-0.4,3.2h-3.7l0.4-3.2h-2.3l-0.4,3.2H38l0.4-3.2h-2.8v-3.5h3.3l0.3-2.9h-2.8v-3.5h3.3l0.4-3.2h3.7l-0.4,3.2
		h2.3l0.4-3.2h3.7l-0.4,3.2h2.8V67.6z M62.9,77.2h-5.5V65.1h-2.8v-4.1h8.3V77.2z"/>
</g>
</svg>
