<svg xmlns="http://www.w3.org/2000/svg" viewBox="0 0 87.52 79.77"><defs><style>.cls-1{fill:none;stroke:#fff;stroke-linecap:round;stroke-miterlimit:10;stroke-width:1.25px;}</style></defs><g id="Layer_2" data-name="Layer 2"><g id="Layer_1-2" data-name="Layer 1"><path class="cls-1" d="M22.35,34.09c-1.6-5.2-5.24-11.86.13-14l-.1-.83s-.23-2-.33-3.32a1.39,1.39,0,0,0-.5-1.1,3,3,0,0,0-2.6-.3c-.4.2-.5.4-.7,1.1a6.08,6.08,0,0,0-.1,1.9v17c0,.6-.2,1.1-.8,1.1l-.3.1a1.31,1.31,0,0,1-1.4-1l-2.1-14.7c-.2-1.3-1.3-2.1-2.2-1.8-1.6.1-1.6,1.3-1.8,2.2a7.55,7.55,0,0,0,.3,2.9c.8,6.3,1.6,12.5,2.3,18.8.1,1.4.3,2.7-1.3,2.7a3.85,3.85,0,0,1-2.7-1.7,46.75,46.75,0,0,1-3-5.9c-.6-1.3-2.4-2.6-3.6-1.6s-1.1,2.2-.6,3.5c2.2,5.2,4.2,10.6,6.5,15.9a17.51,17.51,0,0,0,3.2,4.8,9,9,0,0,1,2.5,6.2c0,3.3.1,6.7-.1,10.1-.1,1.3.4,2.1,1.8,2.2,1.1.1,2.3.3,3.4.4a46.51,46.51,0,0,0,8.9-.4,19.14,19.14,0,0,0,2.1-.4c1.4-.4,1.9-.9,1.8-2.3,0-5-.1-7.6.1-12.5,0-.3-.2-5.3-.1-11.1-.2-5.6-4.11-5.14-6.6-13.1C23.85,37.43,23.13,36.14,22.35,34.09ZM53.93,63c0,3.2,2.4,3.1,2.4,4,.1,4.9.1,3.6.1,8.5-.1,1.4.4,2,1.8,2.3a19.14,19.14,0,0,1,2.1.4,46.51,46.51,0,0,0,8.9.4c1.1-.1,2.3-.2,3.4-.4,1.4-.1,1.8-.8,1.8-2.2-.1-3.3-.1-2.7-.1-6.1a8.61,8.61,0,0,1,2.5-6.2,17.51,17.51,0,0,0,3.2-4.8c2.3-5.2,4.3-10.6,6.5-15.9a2.76,2.76,0,0,0-.6-3.5c-1.2-1-3,.4-3.6,1.6a54.35,54.35,0,0,1-3,5.9,4.21,4.21,0,0,1-2.7,1.7c-1.6,0-1.4-1.3-1.3-2.7.8-6.3,1.6-12.5,2.3-18.8a10.21,10.21,0,0,0,.3-2.9c-.2-.9-.2-2.1-1.8-2.2a2,2,0,0,0-2.2,1.8l-2.1,14.7a1.31,1.31,0,0,1-1.4,1l-.3-.1c-.6.1-.8-.4-.8-1v-17a6.08,6.08,0,0,0-.1-1.9,1.61,1.61,0,0,0-.7-1.1,2.69,2.69,0,0,0-2.6.3,1.39,1.39,0,0,0-.5,1.1c-.1,3.4-.1,6.9-.1,10.3,0,2.5-.1,5.2,0,7.7,0,1.1.1,1.5-.8,1.6a1.29,1.29,0,0,1-1.3-1.1c-.4-5-.8-10-1.1-15-.1-1.5-.4-2.8-2.1-2.8s-2,1.3-1.9,2.8c.3,5.2.6,10.4.9,15.7v.1c0,.8-1,.9-1.2,1.5-.2.4,0,2.8-3.6,8.6C54.13,51.09,53.93,58.59,53.93,63Zm3.64-50.9a2.43,2.43,0,0,0-1.7-1.7c-.6-.1-1.5.6-1.9,1.1a7.09,7.09,0,0,0-.6,2.2c-.5,2.7-1,5.5-1.5,8.1a1.26,1.26,0,0,1-2.5-.3v-.1c.4-5.2.6-10.4.9-15.7.1-1.5-.1-2.8-1.9-2.8s-2,1.3-2.1,2.8c-.4,5-.8,10-1.1,15a1.22,1.22,0,0,1-1.3,1.1c-.8-.1-.8-.5-.8-1.6.1-2.5,0-5.2,0-7.7,0-3.4.1-6.9-.1-10.3a1.39,1.39,0,0,0-.5-1.1,3,3,0,0,0-2.6-.3c-.4.2-.5.4-.7,1.1a6.08,6.08,0,0,0-.1,1.9v17c0,.6-.2,1.1-.8,1.1L38,22a1.31,1.31,0,0,1-1.4-1l-2.1-14.7c-.2-1.3-1.3-2.1-2.2-1.8-1.6.1-1.6,1.3-1.8,2.2a7.55,7.55,0,0,0,.3,2.9c.8,6.3,1.6,12.5,2.3,18.8.1,1.4.3,2.7-1.3,2.7a3.85,3.85,0,0,1-2.7-1.7,46.75,46.75,0,0,1-3-5.9c-.7-1.1-2.5-2.4-3.7-1.4s-1.1,2.2-.6,3.5l3.9,9.6c.8,2.1,1.7,4.2,2.6,6.2a17.51,17.51,0,0,0,3.2,4.8,9,9,0,0,1,2.5,6.2c0,3.3.1,20.7-.1,24.1-.1,1.3.4,2.1,1.8,2.2,1.1.1,2.3.3,3.4.4a46.51,46.51,0,0,0,8.9-.4,19.14,19.14,0,0,0,2.1-.4c1.4-.4,1.9-.9,1.8-2.3,0-5-.1-21.6.1-26.5.1-1.5,4.4-6.4,3.8-14a95.73,95.73,0,0,1,1.3-20.1A7.82,7.82,0,0,0,57.57,12.09ZM28.78,26c.2-3.3.28-4.09.48-7.39.1-1.5-.1-2.8-1.9-2.8s-1.9-.14-2.1,2.8c-.1,1.2,0,.9-.1,2.1"/></g></g></svg>