<svg xmlns="http://www.w3.org/2000/svg" viewBox="0 0 98.77 86.3"><defs><style>.cls-1{fill:none;stroke:#fff;stroke-linecap:round;stroke-miterlimit:10;}</style></defs><g id="Layer_2" data-name="Layer 2"><g id="Layer_1-2" data-name="Layer 1"><path class="cls-1" d="M.5,57.84c5.09,0,4.1-2.65,8.15-2.65s3,2.65,8.15,2.65,4.1-2.65,8.14-2.65,3,2.65,8.15,2.65,4.1-2.65,8.15-2.65,3,2.65,8.15,2.65,4.1-2.65,8.14-2.65,3,2.65,8.15,2.65,4.11-2.65,8.15-2.65,3,2.65,8.15,2.65,4.1-2.65,8.15-2.65,3,2.65,8.14,2.65"/><path class="cls-1" d="M16.8,71.57c5.09,0,4.1-2.65,8.14-2.65s3,2.65,8.15,2.65,4.1-2.65,8.15-2.65,3,2.65,8.15,2.65,4.1-2.65,8.14-2.65,3,2.65,8.15,2.65,4.11-2.65,8.15-2.65,3,2.65,8.15,2.65"/><path class="cls-1" d="M33.09,85.8c5.1,0,4.1-2.65,8.15-2.65s3,2.65,8.15,2.65,4.1-2.65,8.14-2.65,3,2.65,8.15,2.65"/><path class="cls-1" d="M63.53,14.09a7.9,7.9,0,0,0,.09-1.1,7.62,7.62,0,0,0-9.13-7.45,7.59,7.59,0,0,0-14-.83,7.76,7.76,0,0,0-1.94-.26A7.6,7.6,0,0,0,32.18,8a8,8,0,0,0-1.7-.2A7.62,7.62,0,0,0,23,14.09Z"/><line class="cls-1" x1="0.5" y1="45.11" x2="98.27" y2="45.11"/><path class="cls-1" d="M31.55,24.43a8.18,8.18,0,0,0-10-3.85A8.85,8.85,0,0,0,6.12,24.43Z"/><path class="cls-1" d="M62.48,21a8.45,8.45,0,0,1,10.32-4,9.14,9.14,0,0,1,15.9,4Z"/><path class="cls-1" d="M82.6,45.11,60.66,29.51a14.71,14.71,0,0,0-17.07,0L21.65,45.11"/><path class="cls-1" d="M40.85,31.45a12.47,12.47,0,0,0-13.73.47L8.56,45.11"/><path class="cls-1" d="M90.21,45.11,75.67,34.77a9.74,9.74,0,0,0-9.18-1.11"/></g></g></svg>