<svg xmlns="http://www.w3.org/2000/svg" viewBox="0 0 92.14 90.29"><defs><style>.cls-1{fill:none;stroke:#fff;stroke-linecap:round;stroke-linejoin:round;}</style></defs><g id="Layer_2" data-name="Layer 2"><g id="Layer_1-2" data-name="Layer 1"><polygon class="cls-1" points="91.64 74.6 67.13 89.79 46.07 74.6 25.01 89.79 0.5 74.6 0.5 0.5 25.01 15.69 46.07 0.5 67.13 15.69 91.64 0.5 91.64 74.6"/><polygon class="cls-1" points="79 53.72 74.08 48.89 78.91 43.98 76.22 41.31 71.39 46.23 66.48 41.4 63.81 44.06 68.73 48.91 63.9 53.83 66.57 56.5 71.42 51.57 76.33 56.41 79 53.72 79 53.72"/><path class="cls-1" d="M25.45,51.42a12,12,0,0,1-4.15-.74l1.55-4.19a7.7,7.7,0,0,0,2.6.46,7.37,7.37,0,0,0,2.86-.57L30,50.52a11.88,11.88,0,0,1-4.56.9Z"/><path class="cls-1" d="M15.57,42.41a3.68,3.68,0,1,0,3.68,3.67,3.67,3.67,0,0,0-3.68-3.67Z"/><polygon class="cls-1" points="58.37 48.45 52.07 44.86 54.29 40.97 60.59 44.56 58.37 48.45 58.37 48.45"/><polygon class="cls-1" points="33.86 48.37 31.56 44.53 37.78 40.81 40.08 44.65 33.86 48.37 33.86 48.37"/><path class="cls-1" d="M48.74,43a7.4,7.4,0,0,0-2.9-.58,7.7,7.7,0,0,0-2.56.44l-1.53-4.2a12,12,0,0,1,8.71.21L48.74,43Z"/><line class="cls-1" x1="46.07" y1="53.65" x2="46.07" y2="74.59"/><line class="cls-1" x1="46.07" y1="0.87" x2="46.07" y2="21.8"/><line class="cls-1" x1="24.96" y1="68.6" x2="24.96" y2="89.53"/><line class="cls-1" x1="24.96" y1="15.7" x2="24.96" y2="36.63"/><line class="cls-1" x1="67.1" y1="15.7" x2="67.1" y2="36.63"/><line class="cls-1" x1="67.1" y1="68.6" x2="67.1" y2="89.53"/></g></g></svg>