<svg xmlns="http://www.w3.org/2000/svg" viewBox="0 0 36.32 53.98"><defs><style>.cls-1{fill:none;stroke:#fff;stroke-linecap:round;stroke-linejoin:round;}</style></defs><g id="Layer_2" data-name="Layer 2"><g id="Layer_1-2" data-name="Layer 1"><path id="award-6" class="cls-1" d="M16.8,35.69,8.5,53.48,6.37,47.61.5,49.75,8.26,33.1m11.31,2.58,8.3,17.8L30,47.61l5.81,2.14L28.1,33.08m5.35-19.95c-1.07,3.11-1.07,2.51,0,5.64a3,3,0,0,1,.16,1,3.14,3.14,0,0,1-1.36,2.56c-2.77,1.92-2.4,1.43-3.45,4.56a3.26,3.26,0,0,1-3.12,2.18h0c-3.42,0-2.82-.19-5.58,1.75a3.4,3.4,0,0,1-3.86,0c-2.76-1.94-2.17-1.76-5.59-1.75h0a3.25,3.25,0,0,1-3.12-2.18c-1-3.13-.69-2.65-3.45-4.56a3.14,3.14,0,0,1-1.36-2.56,3,3,0,0,1,.16-1c1.07-3.11,1.07-2.51,0-5.64a3,3,0,0,1-.16-1A3.1,3.1,0,0,1,4.07,9.6C6.83,7.68,6.47,8.17,7.52,5a3.25,3.25,0,0,1,3.12-2.18h0c3.41,0,2.81.21,5.59-1.74a3.36,3.36,0,0,1,3.86,0C22.85,3,22.26,2.86,25.67,2.85h0A3.26,3.26,0,0,1,28.8,5c1.05,3.13.68,2.65,3.45,4.57a3.1,3.1,0,0,1,1.36,2.55A3,3,0,0,1,33.45,13.13ZM27,16a8.83,8.83,0,1,0-8.83,8.83A8.83,8.83,0,0,0,27,16Z"/></g></g></svg>