<svg xmlns="http://www.w3.org/2000/svg" viewBox="0 0 1023.99 1024"><defs><style>.cls-1{fill:#fff;}</style></defs><g id="Layer_2" data-name="Layer 2"><g id="Layer_1-2" data-name="Layer 1"><path class="cls-1" d="M236.78,564.31c-6.64.07-9.18,2.56-9.27,9.39-.09,7.35,0,14.69,0,22s-.09,14.68,0,22c.11,6.47,2.69,8.9,9.12,9,6.85.12,9.65-2.14,9.74-8.86q.28-22.27,0-44.56C246.3,566.57,243.53,564.23,236.78,564.31Z"/><path class="cls-1" d="M722.55,564.89c-4-1.69-9.19-2-12.9,0-2.46,1.33-.52,6-.87,9.16a24.28,24.28,0,0,0,0,2.56c0,3.24,0,6.48,0,9.72,0,1.59-.07,3.13,2.27,3,3.4-.12,6.85.18,10.21-.26,4.15-.54,6.46-3.47,6.1-7.52C726.83,575.73,730.53,568.25,722.55,564.89Z"/><path class="cls-1" d="M364.75,575.26c.22-4,.34-8.32-4.07-10.16a18.34,18.34,0,0,0-13.49-.42c-2.83,1.15-.64,5.91-1.1,9a19.52,19.52,0,0,0,0,3.06c0,3.24,0,6.49,0,9.72,0,1.11-.35,2.77,1.39,2.76,4.4,0,9,1.16,13.14-.8C366.45,585.65,364.49,580,364.75,575.26Z"/><path class="cls-1" d="M1023.93,150.87a147.85,147.85,0,0,0-1.27-20.17C1012.11,54.86,949,0,872.36,0Q512,0,151.64,0a158.81,158.81,0,0,0-20.7,1.3A150.34,150.34,0,0,0,0,150.35Q0,512,0,873.68a145.16,145.16,0,0,0,4.8,37.44C22.71,978.6,81.77,1024,151.64,1024H512q180.18,0,360.36,0a158.84,158.84,0,0,0,20.69-1.25A150.33,150.33,0,0,0,1024,873.16Q1024,512,1023.93,150.87ZM99.83,148c.36-7.3-.13-15.9,3.26-24,5.79-13.91,16.45-21.44,31.14-23.21,9.84-1.18,19.78-.71,29.69-.67,3.81,0,7,1.36,7,5.7s-3.26,5.58-7.06,5.64c-8.88.15-17.77,0-26.62.46-14.86.77-24.77,10.64-25.57,25.45-.44,8.34-.3,16.72-.46,25.08-.11,5.37-2.14,8.16-5.9,7.84-4.75-.41-5.45-3.9-5.46-7.76C99.82,158.11,99.83,153.67,99.83,148ZM163,924c-4.27,0-8.54,0-14,0-7.46-.38-16.23.15-24.5-3.39-14.06-6-21.62-16.88-22.93-31.83-.81-9.17-.54-18.42-.66-27.64-.06-4,1.1-7.42,5.86-7.3,4.43.12,5.41,3.47,5.47,7.2.15,8.53,0,17.08.46,25.6.78,14.84,10.67,24.61,25.48,25.57,3.75.24,7.51.33,11.26.39,4.44.07,8.88,0,13.32,0,6.37,0,9.2,1.73,9.29,5.56S169.24,924,163,924Zm96.13-303.43c-.12,9.94-4.82,15.88-14.4,17.56a40.19,40.19,0,0,1-16.77-.32c-8.46-2.11-12.84-7.34-12.91-16q-.21-26.12,0-52.24c.07-9,4.47-14.28,13.23-16.3a40.51,40.51,0,0,1,16.77-.15c9.38,1.82,14,7.59,14.08,17.29.12,8.37,0,16.73,0,25.1S259.21,612.18,259.11,620.55Zm58,.8C317,632.29,310,638,299,638.69c-20.67,1.22-26.48-7.6-25.45-25.06.47-8,.08-16,.08-24,0-10.41.16-20.82-.07-31.22-.11-4.86,2-6,6.47-6s6.58,1.11,6.54,6c-.17,19.62-.12,39.24,0,58.86,0,6.88,2.07,9.14,7.94,9.42,7.44.36,9.86-1.88,9.88-9.46.05-19.28,0-38.56,0-57.84,0-6.12,5.69-9.46,11-6.45,1.73,1,1.87,2.74,1.87,4.47C317.25,578.7,317.48,600,317.13,621.35Zm58.38,17.21c-5.29,1.16-9.4-.24-10.37-3.87a18.74,18.74,0,0,1-.36-4.57c0-6.66.06-13.32,0-20-.09-6-2.67-8.64-8.65-9.21-10-1-10-1-10,9.12,0,7.68-.15,15.37.06,23.05.13,4.78-2.32,5.65-6.41,5.57-3.87-.06-6.56-.4-6.54-5.41q.22-37.63,0-75.29c0-3.86,1.23-5.64,5.32-5.53,7.16.19,14.34,0,21.51.09,10,.16,16.63,6.39,17.32,16.4.26,3.74.16,7.5.11,11.26-.08,6.42-2.27,11.68-9.47,14.87,8,3.51,9.59,9.65,9.54,16.76s.15,14,.21,21C377.77,635,379.25,637.73,375.51,638.56Zm87.73-80.51q-4.71,38.09-9.48,76.15c-.37,3-1.8,4.48-5,4.44-14.92-.18-11.82,1.5-14.12-11.74-2.73-15.76-5-31.61-8.33-47.44q-3.11,19.06-6.2,38.13c-.88,5.38-1.85,10.75-2.59,16.15-.47,3.46-2,5-5.68,4.91-12.91-.46-11.61,2.32-13.41-11.72-2.85-22.33-5.93-44.63-8.7-67-.33-2.68-2.61-6.84,3-7.46,8-.87,9.1-.11,9.85,6.38,2.13,18.25,4.31,36.49,7.47,54.87q2-11.19,3.89-22.36c1.88-11.09,4-22.15,5.51-33.29.71-5,3.35-5.72,7.68-5.73s6,1.19,6.68,5.54c2.91,18.31,6.22,36.56,9.38,54.83l1.25.08q1.67-13.79,3.31-27.57c1.09-9.32,2.1-18.64,3.23-28,.58-4.75,2.35-5.48,9.22-4.84C464.25,552.85,463.55,555.55,463.24,558.05Zm49.41,80.63q-15.07-.36-30.18,0c-4.59.11-5.9-1.78-5.84-6.09.18-12.45.07-24.9.07-37.34,0-12.28.13-24.56-.08-36.84-.07-4.41,1.42-6.09,5.92-6q14.83.35,29.67,0c4.26-.09,5.66,1.47,5.62,5.68s-.86,6.5-5.59,6.34c-6.31-.21-12.62.07-18.93-.1-2.79-.07-3.95.66-3.84,3.67.21,5.79.26,11.61,0,17.39-.16,3.36,1.2,4,4.16,3.86,5.1-.2,10.23.07,15.34-.08,4.78-.15,4.36,3,4.47,6.21.11,3.36-.49,5.68-4.63,5.54-5.28-.17-10.58.1-15.86-.09-2.73-.09-3.51.92-3.45,3.52.14,6.31.16,12.62,0,18.93-.08,2.76,1,3.47,3.56,3.41,6.48-.14,13,.1,19.44-.09,4.32-.12,6.11,1.42,6,6C518.45,636.86,517.27,638.79,512.65,638.68Zm61.16-63.24c0,6.83-.15,6.74-6.79,7-4.51.17-6.35-1.45-5.8-5.92a20,20,0,0,0,0-4.09c-.55-6.13-3.16-8.2-10-8-6.07.17-8,2.29-8.47,8.39-.44,5.57,1.52,9.44,6.44,12.19,5.65,3.16,11.15,6.59,16.56,10.14a16.38,16.38,0,0,1,7.46,12.24,68.1,68.1,0,0,1,.19,15.82c-1.14,10.52-8.16,15.42-21.4,15.42-3.41,0-6.8.06-10.15-.91-7.62-2.21-11.8-7.21-12.25-15.06-.15-2.55-.12-5.11-.12-7.67,0-7,3.77-9.55,10.35-7.21,1.77.63,2.26,1.84,2.24,3.53,0,2.73-.1,5.48.11,8.19.31,4,2.18,6.83,6.6,7s9.22,1.23,11.41-4.2c2.44-6,.23-15.08-4.5-18.14-5.14-3.33-10.52-6.3-15.77-9.48-10.22-6.17-13.93-25.87-6.64-35.32a16.37,16.37,0,0,1,2.92-2.84c7.14-5.53,23.74-5.74,31.12-.45a15.1,15.1,0,0,1,6.42,11.69C573.88,570.31,573.81,572.88,573.81,575.44Zm5.24-121.5c-1.79,22.06-15.67,34.77-37.89,35.85-9.7.48-19.45.08-29.18.08-11.75-.12-23.55,1.08-35.26-.8-18.38-3-30.53-15.27-32.11-33.87a394.49,394.49,0,0,1,0-66.47c1.63-19.48,14.52-32.33,34.05-34a394.9,394.9,0,0,1,66,0c19.85,1.64,32.59,14.4,34.33,34.29A385.94,385.94,0,0,1,579.05,453.94Zm50.54,103.87c-.06,3.1.47,6.46-4.2,6.55-.34,0-.69,0-1,0-3.52.29-8.08-1.55-10.32.82-2.4,2.54-.8,7.15-.81,10.84-.09,18.59,0,37.19-.05,55.78,0,6.57-.24,6.79-6.48,6.77-6,0-6.26-.28-6.26-7q0-15.36,0-30.71c0-10.92-.08-21.84.06-32.75,0-2.81-.68-4.11-3.67-3.78a47.87,47.87,0,0,1-5.62,0c-6.67,0-7.7-1.27-7-7.89.27-2.66,1.37-4,4.17-4,12.29,0,24.57.07,36.85,0C629,552.46,629.66,554.69,629.59,557.81Zm47.14,80.85c-5.1-.23-10.23,0-15.34,0-5.29,0-10.58-.09-15.86,0-3.47.07-4.93-1.4-4.93-4.88q.07-38.35,0-76.73c0-3.27,1.49-4.57,4.69-4.55,10.57.06,21.15.12,31.72,0,4.09-.05,4.73,2.11,4.69,5.51s-.05,6.57-4.88,6.47c-6.48-.13-13,.13-19.43-.1-3.19-.11-4.13.93-4,4.06.23,5.78.17,11.59,0,17.38-.07,2.64.78,3.58,3.47,3.5,5.28-.18,10.57.08,15.85-.09,4.18-.14,4.71,2.23,4.62,5.56s.27,6.34-4.48,6.19c-4.94-.15-9.9.17-14.83-.1-3.44-.18-4.88.66-4.67,4.42a158.22,158.22,0,0,1,0,16.87c-.17,3.5.74,4.81,4.46,4.63,6.3-.31,12.62.07,18.92-.13,4.68-.15,5.7,2.15,5.67,6.32S681,638.86,676.73,638.66Zm60.88-.11c-3.54-.19-7.88,1.48-9.64-3.46a14,14,0,0,1-.48-4.54c0-6.83.06-13.66,0-20.49-.09-5.78-2.57-8.41-8.22-9.09-10.44-1.26-10.44-1.26-10.44,9.18,0,7.68-.15,15.37.06,23.05.13,4.86-2.49,5.51-6.49,5.49s-6.49-.58-6.46-5.5c.16-25.1.12-50.2,0-75.29,0-3.95,1.4-5.56,5.41-5.45,7.16.19,14.34,0,21.51.09,10,.17,16.56,6.46,17.24,16.48.25,3.57.13,7.17.12,10.75,0,6.61-2.15,12.06-9.43,15.29,7.22,3.31,9.37,8.68,9.46,15.32.12,8.19-.48,16.39.46,24.56C740.94,637.28,740,638.68,737.61,638.55ZM799.2,632c0,2.75.9,6-3.54,6.64-6.7.9-9.19,0-10.79-4.77-5-14.83-9.92-29.7-15-44.52-.4-1.17-.18-2.8-2.37-3.64v33.08c0,4.44-.24,8.89.06,13.3.32,4.72-1.07,6.69-6.23,6.7-5.48,0-6.08-2.69-6-7,.14-12.62,0-25.25,0-37.87,0-11.44-.06-22.87,0-34.3,0-2.68-1.08-6.14,3.15-7,6.93-1.41,10.23,0,11.93,5.16q7.18,21.82,14.27,43.67c.41,1.24.84,2.46,1.26,3.69l.85-.21c0-15.35.14-30.7-.08-46.05-.08-4.92,1.55-6.48,6.52-6.47s6,2,5.95,6.44C799.14,583.18,799.24,607.58,799.2,632ZM923.3,889.79c-2.49,18-16.1,31.09-34.14,32.57-4.93.4-9.89.5-14.83.74V923c-4.44,0-8.88.06-13.31,0-5.44-.09-8.13-2-7.87-5.84.33-4.8,3.83-5.47,7.68-5.52,8.37-.11,16.74,0,25.09-.39,15.17-.73,24.24-9.15,26.32-24.13,1.23-8.84.49-17.74.59-26.6,0-4,.84-7.29,5.5-7.7,3.7-.33,5.88,2.61,5.8,7.87C924,870.36,924.64,880.09,923.3,889.79Zm.83-726.11c0,3.72-1.54,6.55-5.52,6.59-4.29,0-5.69-2.89-5.78-6.85-.2-9.54.65-19.12-.76-28.63-2-13.13-11.11-22-24.33-22.78-8.34-.52-16.72-.36-25.08-.52a39,39,0,0,1-4.59-.23c-3.15-.43-5-2.31-4.92-5.51s1.87-5.24,5-5.38c5.28-.23,10.58-.06,15.87-.06,7.66,0,15.39-.3,22.86,1.87,16.22,4.71,26,17.94,27,36.92C924.35,147.27,924.1,155.48,924.13,163.68Z"/><path class="cls-1" d="M512.27,399.13c-12.17-.49-22.88,9.77-23.28,22.3-.38,12.07,9.46,22.41,21.93,23.06,12.3.63,22.89-9.3,23.45-22C534.9,410.23,524.91,399.64,512.27,399.13Z"/><path class="cls-1" d="M566.8,391.81c-1-16.08-10.11-24.89-26.26-25.57q-29.16-1.23-58.35,0c-16.55.7-25.81,10.55-26.24,27.26-.24,9.37,0,18.76,0,28.14h0c0,9.9-.26,19.8.06,29.69.47,14.6,8.39,24,22.87,25.46a358.76,358.76,0,0,0,64.39.13c15.07-1.25,22.39-9.58,23.51-24.79A437.23,437.23,0,0,0,566.8,391.81ZM511.61,456.9c-19.29-.1-35.23-16.25-34.95-35.41s16.16-34.79,35.17-34.7a35.06,35.06,0,0,1-.22,70.11Zm36.71-63.2a8.16,8.16,0,0,1-.43-16.31,8.35,8.35,0,0,1,8.38,8A8.24,8.24,0,0,1,548.32,393.7Z"/></g></g></svg>