<?xml version="1.0" encoding="utf-8"?>
<!-- Generator: Adobe Illustrator 25.2.3, SVG Export Plug-In . SVG Version: 6.00 Build 0)  -->
<svg version="1.1" id="Layer_1" xmlns="http://www.w3.org/2000/svg" xmlns:xlink="http://www.w3.org/1999/xlink" x="0px" y="0px"
	 viewBox="0 0 100.8 100.8" style="enable-background:new 0 0 100.8 100.8;" xml:space="preserve">
<style type="text/css">
	.st0{fill-rule:evenodd;clip-rule:evenodd;fill:#00325E;}
	.st1{fill:#00325E;}
</style>
<g>
	<path class="st0" d="M20.5,29.5v62.8h59.8V29.5H20.5z M40.2,80.1c0,1.3-1.2,2.4-2.5,2.4h-4.6c-1.3,0-2.2-1.1-2.2-2.4V66.9
		c0-1.3,0.9-2.4,2.2-2.4h4.6c1.3,0,2.5,1.1,2.5,2.4V80.1z M40.2,55.7c0,1.3-1.2,2.4-2.5,2.4h-4.6c-1.3,0-2.2-1.1-2.2-2.4V43.9
		c0-2.6,2.1-4.6,4.6-4.6c2.6,0,4.6,2.1,4.6,4.6V55.7z M55,80.1c0,1.3-1.2,2.4-2.5,2.4H48c-1.3,0-2.2-1.1-2.2-2.4V66.9
		c0-1.3,0.9-2.4,2.2-2.4h4.6c1.3,0,2.5,1.1,2.5,2.4V80.1z M52.5,58.2H48c-1.3,0-2.2-1.1-2.2-2.4V43.9c0-2.6,2.1-4.6,4.6-4.6
		c2.6,0,4.6,2.1,4.6,4.6l0,11.9C55,57,53.8,58.2,52.5,58.2z M69.9,80.1c0,1.3-1.2,2.4-2.5,2.4h-4.6c-1.3,0-2.2-1.1-2.2-2.4V66.9
		c0-1.3,0.9-2.4,2.2-2.4h4.6c1.3,0,2.5,1.1,2.5,2.4V80.1z M67.4,58.2h-4.6c-1.3,0-2.2-1.1-2.2-2.4V43.9c0-2.6,2.1-4.6,4.6-4.6
		c2.6,0,4.6,2.1,4.6,4.6l0,11.9C69.8,57,68.6,58.2,67.4,58.2z"/>
	<polygon class="st1" points="88.5,25.5 12.3,25.5 35.3,8.5 65.5,8.5 	"/>
</g>
</svg>
