<?xml version="1.0" encoding="utf-8"?>
<!-- Generator: Adobe Illustrator 25.2.3, SVG Export Plug-In . SVG Version: 6.00 Build 0)  -->
<svg version="1.1" id="Layer_1" xmlns="http://www.w3.org/2000/svg" xmlns:xlink="http://www.w3.org/1999/xlink" x="0px" y="0px"
	 viewBox="0 0 100.8 100.8" style="enable-background:new 0 0 100.8 100.8;" xml:space="preserve">
<style type="text/css">
	.st0{fill:#00325E;}
</style>
<g>
	<path class="st0" d="M16.7,74.7c-0.2,1.4-0.3,2.9-0.3,4.4h68c0-1.5-0.1-3-0.3-4.4H16.7z"/>
	<path class="st0" d="M90.1,21.7c0,2-0.1,4.1-0.6,6.1C87.3,38.2,79,46.2,67.9,50c-4.4-2.6-9.4-4.3-14.8-4.7v-4h-5.3v4
		c-5.4,0.4-10.4,2.1-14.8,4.7c-11.1-3.8-19.4-11.7-21.7-22.2c-0.4-2-0.6-4.1-0.6-6.1c-3,7.6-3.8,16.5-1.9,25.5
		c1.7,7.7,5.1,14.6,9.8,20c-0.4,1-0.7,2.1-1,3.2h65.7c-0.3-1.1-0.6-2.1-1-3.2c4.6-5.4,8.1-12.2,9.8-20
		C93.9,38.2,93.1,29.3,90.1,21.7z"/>
</g>
</svg>
