<?xml version="1.0" encoding="utf-8"?>
<!-- Generator: Adobe Illustrator 25.2.3, SVG Export Plug-In . SVG Version: 6.00 Build 0)  -->
<svg version="1.1" id="Layer_1" xmlns="http://www.w3.org/2000/svg" xmlns:xlink="http://www.w3.org/1999/xlink" x="0px" y="0px"
	 viewBox="0 0 100 100" style="enable-background:new 0 0 100 100;" xml:space="preserve">
<style type="text/css">
	.st0{fill:#C1D82F;}
</style>
<path class="st0" d="M50,95.1c24.8,0,45.1-20.2,45.1-45.1S74.8,4.9,50,4.9S4.9,25.2,4.9,50S25.2,95.1,50,95.1z M50,6.5
	C74,6.5,93.5,26,93.5,50S74,93.5,50,93.5S6.5,74,6.5,50S26,6.5,50,6.5z"/>
<path class="st0" d="M88.2,50h1.6c0-21.9-17.9-39.8-39.8-39.8v1.6C71.1,11.8,88.2,28.9,88.2,50z"/>
<path class="st0" d="M50,89.8v-1.6C28.9,88.2,11.8,71,11.8,50h-1.6C10.2,71.9,28.1,89.8,50,89.8z"/>
<path class="st0" d="M45,76.8c0.4,0,0.9,0,1.6,0c0.2,0,0.4,0,0.6,0V83h5.6v-6.2c0.2,0,0.4,0,0.7,0c0.7,0,1.2,0,1.6,0
	c5,0,6-2.5,6-4.6V60.4c0-1.6-0.6-3.1-1.7-4.4l-6.8-8.2l-4-4.7l-3.3-4.3V28.7h9.6v11.7H61V27.7c0-2.1-1-4.6-6-4.6
	c-0.4,0-0.9,0-1.6,0.1c-0.2,0-0.5,0-0.6,0V17h-5.6v6.2c-0.2,0-0.4,0-0.6,0c-0.7,0-1.2-0.1-1.6-0.1c-5,0-6,2.5-6,4.6V38
	c0,1.6,0.6,3.1,1.7,4.5l6.7,8.3l4.1,4.7l3.4,4.1v11.6h-9.6V58.5H39v13.8C39,74.3,40,76.8,45,76.8z M40.5,60h3.1v12.8h12.7V59.2
	l-3.8-4.6l-4.1-4.7l-6.7-8.3c-0.9-1.1-1.3-2.3-1.3-3.5V27.7c0-1.3,0.5-3,4.4-3c0.3,0,0.8,0,1.5,0s1.2,0.1,1.5,0.1h0.8v-6.3h2.5v6.3
	H52c0.3,0,0.8,0,1.5-0.1c0.7,0,1.2,0,1.6,0c4,0,4.4,1.7,4.4,3v11.1h-3.1V27.2H43.6v12.2l3.7,4.7l4.1,4.7l6.8,8.2
	c0.9,1.1,1.3,2.2,1.3,3.4v11.8c0,1.3-0.5,3-4.4,3c-0.4,0-0.9,0-1.6,0c-0.7,0-1.2,0-1.5,0h-0.8v6.2h-2.5v-6.2h-0.8
	c-0.3,0-0.8,0-1.4,0c-0.7,0-1.2,0-1.5,0c-4,0-4.4-1.7-4.4-3L40.5,60L40.5,60z"/>
</svg>
